{
.appVersion = "939";
DisplayStrings = (
"/jdotless j",
"essentially social and the social essentially spatial",
D,
/dcroat,
d,
/commaturnedabovecomb,
/cedillacomb,
U,
N/Eng,
"I\U00CD",
/idotless/jdotless,
"Kulim Park",
"\U00C1",
"&",
/idotless,
/iogonek,
2,
S
);
copyright = "Copyright (C) 2018 by Dale Sattler. All rights reserved.";
date = "2018-04-05 12:00:00 +0000";
designer = "Dale Sattler";
designerURL = "http://noponies.com";
disablesNiceNames = 1;
familyName = "Kulim Park";
fontMaster = (
{
alignmentZones = (
"{840, 16}",
"{700, 4}",
"{500, 8}",
"{0, -11}",
"{-205, -16}"
);
ascender = 840;
capHeight = 700;
descender = -205;
horizontalStems = (
57
);
id = "D890DE10-725C-4894-AB83-5F7B73FFD58A";
userData = {
GSOffsetHorizontal = -7;
GSOffsetProportional = 1;
GSOffsetVertical = 10;
};
verticalStems = (
70
);
weight = SemiLight;
weightValue = 400;
widthValue = 5;
xHeight = 500;
}
);
glyphs = (
{
glyphname = A;
lastChange = "2018-04-17 03:22:24 +0000";
layers = (
{
anchors = (
{
name = bottom;
position = "{321, 0}";
},
{
name = ogonek;
position = "{575, 10}";
},
{
name = top;
position = "{321, 700}";
}
);
layerId = "D890DE10-725C-4894-AB83-5F7B73FFD58A";
paths = (
{
closed = 1;
nodes = (
"114 0 LINE",
"170 179 LINE",
"470 179 LINE",
"527 0 LINE",
"601 0 LINE",
"379 700 LINE",
"255 700 LINE",
"40 0 LINE"
);
},
{
closed = 1;
nodes = (
"317 646 LINE",
"451 241 LINE",
"187 241 LINE"
);
}
);
width = 641;
}
);
leftKerningGroup = "upper-A";
note = A;
unicode = 0041;
},
{
glyphname = AE;
lastChange = "2018-04-12 21:53:02 +0000";
layers = (
{
layerId = "D890DE10-725C-4894-AB83-5F7B73FFD58A";
paths = (
{
closed = 1;
nodes = (
"823 65 LINE",
"573 65 LINE",
"497 311 LINE",
"766 311 LINE",
"766 368 LINE",
"479 368 LINE",
"396 635 LINE",
"823 635 LINE",
"823 700 LINE",
"253 700 LINE",
"40 0 LINE",
"113 0 LINE",
"164 170 LINE",
"467 170 LINE",
"522 -5 LINE",
"522 -13 LINE",
"510 0 LINE",
"823 0 LINE"
);
},
{
closed = 1;
nodes = (
"185 241 LINE",
"313 645 LINE",
"446 241 LINE"
);
}
);
width = 873;
}
);
leftKerningGroup = "upper-A";
note = AE;
unicode = 00C6;
},
{
glyphname = B;
lastChange = "2018-04-06 02:06:09 +0000";
layers = (
{
layerId = "D890DE10-725C-4894-AB83-5F7B73FFD58A";
paths = (
{
closed = 1;
nodes = (
"400 0 OFFCURVE",
"444 26 OFFCURVE",
"477 64 CURVE SMOOTH",
"509 102 OFFCURVE",
"530 151 OFFCURVE",
"530 200 CURVE SMOOTH",
"530 268 OFFCURVE",
"497 327 OFFCURVE",
"432 368 CURVE",
"447 385 LINE SMOOTH",
"478 422 OFFCURVE",
"494 472 OFFCURVE",
"494 516 CURVE SMOOTH",
"494 565 OFFCURVE",
"477 612 OFFCURVE",
"446 645 CURVE SMOOTH",
"415 678 OFFCURVE",
"372 700 OFFCURVE",
"320 700 CURVE SMOOTH",
"50 700 LINE",
"50 0 LINE",
"352 0 LINE SMOOTH"
);
},
{
closed = 1;
nodes = (
"355 631 OFFCURVE",
"381 616 OFFCURVE",
"398 594 CURVE SMOOTH",
"414 572 OFFCURVE",
"423 543 OFFCURVE",
"423 516 CURVE SMOOTH",
"423 485 OFFCURVE",
"412 453 OFFCURVE",
"393 427 CURVE SMOOTH",
"373 401 OFFCURVE",
"347 382 OFFCURVE",
"316 382 CURVE SMOOTH",
"121 382 LINE",
"121 631 LINE",
"320 631 LINE SMOOTH"
);
},
{
closed = 1;
nodes = (
"390 318 OFFCURVE",
"416 302 OFFCURVE",
"433 279 CURVE SMOOTH",
"450 255 OFFCURVE",
"459 225 OFFCURVE",
"459 200 CURVE SMOOTH",
"459 168 OFFCURVE",
"447 136 OFFCURVE",
"428 111 CURVE SMOOTH",
"409 86 OFFCURVE",
"381 69 OFFCURVE",
"352 69 CURVE SMOOTH",
"121 69 LINE",
"121 318 LINE",
"355 318 LINE SMOOTH"
);
}
);
width = 570;
}
);
note = B;
unicode = 0042;
},
{
glyphname = C;
lastChange = "2018-04-12 21:53:02 +0000";
layers = (
{
anchors = (
{
name = bottom;
position = "{365, 0}";
},
{
name = top;
position = "{365, 700}";
}
);
layerId = "D890DE10-725C-4894-AB83-5F7B73FFD58A";
paths = (
{
closed = 1;
nodes = (
"485 -5 OFFCURVE",
"575 36 OFFCURVE",
"642 111 CURVE",
"587 156 LINE",
"535 99 OFFCURVE",
"463 63 OFFCURVE",
"386 63 CURVE SMOOTH",
"310 63 OFFCURVE",
"242 96 OFFCURVE",
"192 148 CURVE SMOOTH",
"142 200 OFFCURVE",
"111 271 OFFCURVE",
"111 350 CURVE SMOOTH",
"111 427 OFFCURVE",
"142 500 OFFCURVE",
"192 552 CURVE SMOOTH",
"242 604 OFFCURVE",
"310 637 OFFCURVE",
"386 637 CURVE SMOOTH",
"463 637 OFFCURVE",
"535 601 OFFCURVE",
"587 544 CURVE",
"642 589 LINE",
"575 664 OFFCURVE",
"485 705 OFFCURVE",
"386 705 CURVE SMOOTH",
"290 705 OFFCURVE",
"204 665 OFFCURVE",
"141 601 CURVE SMOOTH",
"78 537 OFFCURVE",
"40 447 OFFCURVE",
"40 350 CURVE SMOOTH",
"40 251 OFFCURVE",
"78 163 OFFCURVE",
"141 99 CURVE SMOOTH",
"204 35 OFFCURVE",
"290 -5 OFFCURVE",
"386 -5 CURVE SMOOTH"
);
}
);
width = 682;
}
);
leftKerningGroup = "upper-rounds";
note = C;
unicode = 0043;
},
{
glyphname = D;
lastChange = "2018-04-06 02:19:05 +0000";
layers = (
{
anchors = (
{
name = bottom;
position = "{303, 0}";
},
{
name = center;
position = "{184, 350}";
},
{
name = top;
position = "{303, 700}";
}
);
layerId = "D890DE10-725C-4894-AB83-5F7B73FFD58A";
paths = (
{
closed = 1;
nodes = (
"349 0 OFFCURVE",
"434 39 OFFCURVE",
"497 103 CURVE SMOOTH",
"560 167 OFFCURVE",
"598 255 OFFCURVE",
"598 352 CURVE SMOOTH",
"598 448 OFFCURVE",
"560 536 OFFCURVE",
"497 600 CURVE SMOOTH",
"434 664 OFFCURVE",
"349 703 OFFCURVE",
"254 703 CURVE SMOOTH",
"50 703 LINE",
"50 0 LINE",
"254 0 LINE SMOOTH"
);
},
{
closed = 1;
nodes = (
"330 637 OFFCURVE",
"398 606 OFFCURVE",
"447 555 CURVE SMOOTH",
"496 503 OFFCURVE",
"527 432 OFFCURVE",
"527 352 CURVE SMOOTH",
"527 272 OFFCURVE",
"496 201 OFFCURVE",
"447 150 CURVE SMOOTH",
"398 98 OFFCURVE",
"330 67 OFFCURVE",
"254 67 CURVE SMOOTH",
"122 67 LINE",
"122 637 LINE",
"254 637 LINE SMOOTH"
);
}
);
width = 638;
}
);
note = D;
unicode = 0044;
},
{
glyphname = E;
lastChange = "2018-04-06 02:06:09 +0000";
layers = (
{
anchors = (
{
name = bottom;
position = "{234, 0}";
},
{
name = ogonek;
position = "{420, 10}";
},
{
name = top;
position = "{234, 700}";
},
{
name = topleft;
position = "{20, 700}";
}
);
layerId = "D890DE10-725C-4894-AB83-5F7B73FFD58A";
paths = (
{
closed = 1;
nodes = (
"427 65 LINE",
"122 65 LINE",
"122 311 LINE",
"368 311 LINE",
"368 368 LINE",
"122 368 LINE",
"122 635 LINE",
"427 635 LINE",
"427 700 LINE",
"50 700 LINE",
"50 0 LINE",
"427 0 LINE"
);
}
);
width = 467;
}
);
note = E;
unicode = 0045;
},
{
glyphname = F;
lastChange = "2018-04-06 02:06:09 +0000";
layers = (
{
layerId = "D890DE10-725C-4894-AB83-5F7B73FFD58A";
paths = (
{
closed = 1;
nodes = (
"427 700 LINE",
"50 700 LINE",
"50 0 LINE",
"122 0 LINE",
"122 312 LINE",
"368 312 LINE",
"368 369 LINE",
"122 369 LINE",
"122 635 LINE",
"427 635 LINE"
);
}
);
width = 467;
}
);
note = F;
unicode = 0046;
},
{
glyphname = G;
lastChange = "2018-04-12 21:53:02 +0000";
layers = (
{
anchors = (
{
name = bottom;
position = "{385, 0}";
},
{
name = top;
position = "{385, 700}";
}
);
layerId = "D890DE10-725C-4894-AB83-5F7B73FFD58A";
paths = (
{
closed = 1;
nodes = (
"528 -5 OFFCURVE",
"622 46 OFFCURVE",
"677 154 CURVE",
"677 327 LINE",
"479 327 LINE",
"479 266 LINE",
"605 266 LINE",
"605 171 LINE",
"554 92 OFFCURVE",
"489 65 OFFCURVE",
"385 65 CURVE SMOOTH",
"309 65 OFFCURVE",
"241 97 OFFCURVE",
"192 149 CURVE SMOOTH",
"143 201 OFFCURVE",
"112 271 OFFCURVE",
"112 350 CURVE SMOOTH",
"112 427 OFFCURVE",
"143 499 OFFCURVE",
"192 550 CURVE SMOOTH",
"241 601 OFFCURVE",
"309 633 OFFCURVE",
"385 633 CURVE SMOOTH",
"473 633 OFFCURVE",
"553 592 OFFCURVE",
"605 520 CURVE",
"665 559 LINE",
"600 651 OFFCURVE",
"497 705 OFFCURVE",
"385 705 CURVE SMOOTH",
"290 705 OFFCURVE",
"205 665 OFFCURVE",
"142 601 CURVE SMOOTH",
"79 537 OFFCURVE",
"40 447 OFFCURVE",
"40 350 CURVE SMOOTH",
"40 251 OFFCURVE",
"79 163 OFFCURVE",
"142 99 CURVE SMOOTH",
"205 35 OFFCURVE",
"290 -5 OFFCURVE",
"385 -5 CURVE SMOOTH"
);
}
);
width = 717;
}
);
leftKerningGroup = "upper-rounds";
note = G;
unicode = 0047;
},
{
glyphname = H;
lastChange = "2018-04-06 02:12:53 +0000";
layers = (
{
anchors = (
{
name = bottom;
position = "{303, 0}";
},
{
name = center;
position = "{303, 587}";
},
{
name = top;
position = "{303, 700}";
},
{
name = topleft;
position = "{20, 700}";
}
);
layerId = "D890DE10-725C-4894-AB83-5F7B73FFD58A";
paths = (
{
closed = 1;
nodes = (
"556 700 LINE",
"486 700 LINE",
"486 368 LINE",
"122 368 LINE",
"122 700 LINE",
"50 700 LINE",
"50 0 LINE",
"122 0 LINE",
"122 311 LINE",
"486 311 LINE",
"486 0 LINE",
"556 0 LINE"
);
}
);
width = 606;
}
);
note = H;
unicode = 0048;
},
{
glyphname = I;
lastChange = "2018-04-06 02:12:38 +0000";
layers = (
{
anchors = (
{
name = bottom;
position = "{85, 0}";
},
{
name = ogonek;
position = "{153, 10}";
},
{
name = top;
position = "{85, 700}";
},
{
name = topleft;
position = "{20, 700}";
}
);
layerId = "D890DE10-725C-4894-AB83-5F7B73FFD58A";
paths = (
{
closed = 1;
nodes = (
"120 700 LINE",
"50 700 LINE",
"50 0 LINE",
"120 0 LINE"
);
}
);
width = 170;
}
);
note = I;
unicode = 0049;
},
{
glyphname = J;
lastChange = "2018-04-12 21:53:01 +0000";
layers = (
{
layerId = "D890DE10-725C-4894-AB83-5F7B73FFD58A";
paths = (
{
closed = 1;
nodes = (
"216 -9 OFFCURVE",
"267 9 OFFCURVE",
"299 52 CURVE SMOOTH",
"331 95 OFFCURVE",
"345 163 OFFCURVE",
"345 266 CURVE SMOOTH",
"345 700 LINE",
"271 700 LINE",
"271 266 LINE SMOOTH",
"271 170 OFFCURVE",
"261 119 OFFCURVE",
"238 91 CURVE SMOOTH",
"214 62 OFFCURVE",
"181 61 OFFCURVE",
"146 60 CURVE SMOOTH",
"121 60 OFFCURVE",
"86 66 OFFCURVE",
"51 75 CURVE",
"30 11 LINE",
"73 -1 OFFCURVE",
"112 -10 OFFCURVE",
"143 -10 CURVE SMOOTH"
);
}
);
width = 395;
}
);
note = J;
unicode = 004A;
},
{
glyphname = K;
lastChange = "2018-04-12 21:53:01 +0000";
layers = (
{
anchors = (
{
name = bottom;
position = "{296, 0}";
},
{
name = top;
position = "{296, 700}";
}
);
layerId = "D890DE10-725C-4894-AB83-5F7B73FFD58A";
paths = (
{
closed = 1;
nodes = (
"283 448 LINE",
"503 702 LINE",
"409 702 LINE",
"121 369 LINE",
"121 701 LINE",
"50 701 LINE",
"50 0 LINE",
"121 0 LINE",
"121 260 LINE",
"234 391 LINE",
"460 0 LINE",
"542 0 LINE"
);
}
);
width = 565;
}
);
note = K;
unicode = 004B;
},
{
glyphname = L;
lastChange = "2018-04-12 21:53:01 +0000";
layers = (
{
anchors = (
{
name = bottom;
position = "{211, 0}";
},
{
name = center;
position = "{99, 366}";
},
{
name = top;
position = "{211, 700}";
},
{
name = topright;
position = "{398, 700}";
}
);
layerId = "D890DE10-725C-4894-AB83-5F7B73FFD58A";
paths = (
{
closed = 1;
nodes = (
"378 65 LINE",
"123 65 LINE",
"123 700 LINE",
"53 700 LINE",
"53 0 LINE",
"378 0 LINE"
);
}
);
width = 418;
}
);
note = L;
unicode = 004C;
},
{
glyphname = M;
lastChange = "2018-04-06 02:06:09 +0000";
layers = (
{
layerId = "D890DE10-725C-4894-AB83-5F7B73FFD58A";
paths = (
{
closed = 1;
nodes = (
"783 700 LINE",
"620 700 LINE",
"416 194 LINE",
"212 700 LINE",
"50 700 LINE",
"50 0 LINE",
"120 0 LINE",
"120 629 LINE",
"164 629 LINE",
"373 112 LINE",
"460 112 LINE",
"668 629 LINE",
"712 629 LINE",
"712 0 LINE",
"783 0 LINE"
);
}
);
width = 833;
}
);
note = M;
unicode = 004D;
},
{
glyphname = N;
lastChange = "2018-04-06 02:06:09 +0000";
layers = (
{
anchors = (
{
name = bottom;
position = "{314, 0}";
},
{
name = top;
position = "{314, 700}";
}
);
layerId = "D890DE10-725C-4894-AB83-5F7B73FFD58A";
paths = (
{
closed = 1;
nodes = (
"577 702 LINE",
"507 702 LINE",
"507 68 LINE",
"169 702 LINE",
"50 702 LINE",
"50 1 LINE",
"121 1 LINE",
"121 640 LINE",
"459 0 LINE",
"577 0 LINE"
);
}
);
width = 627;
}
);
note = N;
unicode = 004E;
},
{
glyphname = Eng;
lastChange = "2018-04-11 00:33:59 +0000";
layers = (
{
components = (
{
name = N;
}
);
layerId = "D890DE10-725C-4894-AB83-5F7B73FFD58A";
paths = (
{
closed = 1;
nodes = (
"508 0 LINE",
"508 -58 OFFCURVE",
"490 -69 OFFCURVE",
"390 -69 CURVE",
"390 -140 LINE",
"547 -140 OFFCURVE",
"577 -104 OFFCURVE",
"577 0 CURVE",
"577 118 LINE",
"508 118 LINE"
);
}
);
width = 627;
}
);
unicode = 014A;
},
{
glyphname = O;
lastChange = "2018-04-12 21:53:02 +0000";
layers = (
{
anchors = (
{
name = bottom;
position = "{383, 0}";
},
{
name = center;
position = "{383, 350}";
},
{
name = ogonek;
position = "{688, 10}";
},
{
name = top;
position = "{383, 700}";
},
{
name = topleft;
position = "{20, 700}";
},
{
name = topright;
position = "{745, 700}";
}
);
layerId = "D890DE10-725C-4894-AB83-5F7B73FFD58A";
paths = (
{
closed = 1;
nodes = (
"478 -10 OFFCURVE",
"563 29 OFFCURVE",
"625 93 CURVE SMOOTH",
"687 157 OFFCURVE",
"725 246 OFFCURVE",
"725 343 CURVE SMOOTH",
"725 440 OFFCURVE",
"687 531 OFFCURVE",
"625 597 CURVE SMOOTH",
"563 663 OFFCURVE",
"476 703 OFFCURVE",
"383 703 CURVE SMOOTH",
"288 703 OFFCURVE",
"204 661 OFFCURVE",
"141 596 CURVE SMOOTH",
"78 531 OFFCURVE",
"40 440 OFFCURVE",
"40 343 CURVE SMOOTH",
"40 246 OFFCURVE",
"79 157 OFFCURVE",
"141 93 CURVE SMOOTH",
"203 29 OFFCURVE",
"288 -10 OFFCURVE",
"383 -10 CURVE SMOOTH"
);
},
{
closed = 1;
nodes = (
"459 639 OFFCURVE",
"526 605 OFFCURVE",
"575 551 CURVE SMOOTH",
"624 497 OFFCURVE",
"654 422 OFFCURVE",
"654 343 CURVE SMOOTH",
"654 263 OFFCURVE",
"623 191 OFFCURVE",
"575 139 CURVE SMOOTH",
"526 86 OFFCURVE",
"458 54 OFFCURVE",
"383 54 CURVE SMOOTH",
"307 54 OFFCURVE",
"239 86 OFFCURVE",
"191 139 CURVE SMOOTH",
"142 191 OFFCURVE",
"111 263 OFFCURVE",
"111 343 CURVE SMOOTH",
"111 422 OFFCURVE",
"141 497 OFFCURVE",
"190 551 CURVE SMOOTH",
"239 605 OFFCURVE",
"307 639 OFFCURVE",
"383 639 CURVE SMOOTH"
);
}
);
width = 765;
}
);
leftKerningGroup = "upper-rounds";
note = O;
unicode = 004F;
},
{
glyphname = OE;
lastChange = "2018-04-12 21:53:02 +0000";
layers = (
{
layerId = "D890DE10-725C-4894-AB83-5F7B73FFD58A";
paths = (
{
closed = 1;
nodes = (
"1009 66 LINE",
"716 66 LINE",
"716 311 LINE",
"953 311 LINE",
"953 368 LINE",
"716 368 LINE",
"716 635 LINE",
"1009 635 LINE",
"1009 700 LINE",
"648 700 LINE",
"648 563 LINE",
"564 659 OFFCURVE",
"476 703 OFFCURVE",
"379 703 CURVE SMOOTH",
"286 703 OFFCURVE",
"201 661 OFFCURVE",
"140 596 CURVE SMOOTH",
"79 531 OFFCURVE",
"40 440 OFFCURVE",
"40 343 CURVE SMOOTH",
"40 246 OFFCURVE",
"79 157 OFFCURVE",
"140 93 CURVE SMOOTH",
"201 29 OFFCURVE",
"286 -10 OFFCURVE",
"379 -10 CURVE SMOOTH",
"476 -10 OFFCURVE",
"564 33 OFFCURVE",
"648 126 CURVE",
"648 0 LINE",
"1009 0 LINE"
);
},
{
closed = 1;
nodes = (
"454 639 OFFCURVE",
"521 605 OFFCURVE",
"570 551 CURVE SMOOTH",
"618 497 OFFCURVE",
"648 422 OFFCURVE",
"648 343 CURVE SMOOTH",
"648 263 OFFCURVE",
"618 191 OFFCURVE",
"570 139 CURVE SMOOTH",
"521 86 OFFCURVE",
"454 54 OFFCURVE",
"379 54 CURVE SMOOTH",
"304 54 OFFCURVE",
"237 86 OFFCURVE",
"189 139 CURVE SMOOTH",
"140 191 OFFCURVE",
"110 263 OFFCURVE",
"110 343 CURVE SMOOTH",
"110 422 OFFCURVE",
"140 497 OFFCURVE",
"189 551 CURVE SMOOTH",
"237 605 OFFCURVE",
"304 639 OFFCURVE",
"379 639 CURVE SMOOTH"
);
}
);
width = 1049;
}
);
leftKerningGroup = "upper-rounds";
note = OE;
unicode = 0152;
},
{
glyphname = P;
lastChange = "2018-04-06 02:06:09 +0000";
layers = (
{
layerId = "D890DE10-725C-4894-AB83-5F7B73FFD58A";
paths = (
{
closed = 1;
nodes = (
"365 300 OFFCURVE",
"409 326 OFFCURVE",
"442 364 CURVE SMOOTH",
"474 402 OFFCURVE",
"495 452 OFFCURVE",
"495 500 CURVE SMOOTH",
"495 551 OFFCURVE",
"477 601 OFFCURVE",
"446 638 CURVE SMOOTH",
"414 675 OFFCURVE",
"371 700 OFFCURVE",
"320 700 CURVE SMOOTH",
"51 700 LINE",
"50 0 LINE",
"120 0 LINE",
"120 300 LINE",
"317 300 LINE SMOOTH"
);
},
{
closed = 1;
nodes = (
"355 629 OFFCURVE",
"381 612 OFFCURVE",
"399 588 CURVE SMOOTH",
"417 563 OFFCURVE",
"426 531 OFFCURVE",
"426 500 CURVE SMOOTH",
"426 473 OFFCURVE",
"415 441 OFFCURVE",
"396 415 CURVE SMOOTH",
"376 389 OFFCURVE",
"349 370 OFFCURVE",
"317 370 CURVE SMOOTH",
"120 370 LINE",
"120 629 LINE",
"320 629 LINE SMOOTH"
);
}
);
width = 535;
}
);
note = P;
unicode = 0050;
},
{
glyphname = Thorn;
lastChange = "2018-04-06 02:06:09 +0000";
layers = (
{
layerId = "D890DE10-725C-4894-AB83-5F7B73FFD58A";
paths = (
{
closed = 1;
nodes = (
"367 150 OFFCURVE",
"411 176 OFFCURVE",
"444 214 CURVE SMOOTH",
"476 252 OFFCURVE",
"497 302 OFFCURVE",
"497 351 CURVE SMOOTH",
"497 402 OFFCURVE",
"479 452 OFFCURVE",
"448 489 CURVE SMOOTH",
"416 526 OFFCURVE",
"373 551 OFFCURVE",
"322 551 CURVE SMOOTH",
"122 551 LINE",
"122 700 LINE",
"51 700 LINE",
"50 0 LINE",
"122 0 LINE",
"122 150 LINE",
"319 150 LINE SMOOTH"
);
},
{
closed = 1;
nodes = (
"357 480 OFFCURVE",
"383 463 OFFCURVE",
"401 439 CURVE SMOOTH",
"419 414 OFFCURVE",
"428 382 OFFCURVE",
"428 351 CURVE SMOOTH",
"428 324 OFFCURVE",
"417 292 OFFCURVE",
"398 266 CURVE SMOOTH",
"378 240 OFFCURVE",
"351 221 OFFCURVE",
"319 221 CURVE SMOOTH",
"122 221 LINE",
"122 480 LINE",
"322 480 LINE SMOOTH"
);
}
);
width = 537;
}
);
note = Thorn;
unicode = 00DE;
},
{
glyphname = Q;
lastChange = "2018-04-12 21:53:02 +0000";
layers = (
{
layerId = "D890DE10-725C-4894-AB83-5F7B73FFD58A";
paths = (
{
closed = 1;
nodes = (
"687 161 OFFCURVE",
"725 249 OFFCURVE",
"725 348 CURVE SMOOTH",
"725 445 OFFCURVE",
"687 535 OFFCURVE",
"625 599 CURVE SMOOTH",
"563 663 OFFCURVE",
"478 703 OFFCURVE",
"383 703 CURVE SMOOTH",
"288 703 OFFCURVE",
"203 663 OFFCURVE",
"141 599 CURVE SMOOTH",
"79 534 OFFCURVE",
"40 445 OFFCURVE",
"40 348 CURVE SMOOTH",
"40 251 OFFCURVE",
"79 162 OFFCURVE",
"141 98 CURVE SMOOTH",
"203 34 OFFCURVE",
"288 -5 OFFCURVE",
"383 -5 CURVE SMOOTH",
"442 -5 OFFCURVE",
"499 11 OFFCURVE",
"556 44 CURVE",
"576 21 OFFCURVE",
"589 9 OFFCURVE",
"604 1 CURVE SMOOTH",
"628 -11 OFFCURVE",
"664 -19 OFFCURVE",
"699 -18 CURVE SMOOTH",
"721 -17 LINE",
"721 51 LINE",
"676 52 OFFCURVE",
"646 56 OFFCURVE",
"615 88 CURVE"
);
},
{
closed = 1;
nodes = (
"458 639 OFFCURVE",
"526 606 OFFCURVE",
"575 553 CURVE SMOOTH",
"623 500 OFFCURVE",
"654 428 OFFCURVE",
"654 348 CURVE SMOOTH",
"654 280 OFFCURVE",
"634 219 OFFCURVE",
"583 152 CURVE",
"564 189 OFFCURVE",
"555 206 OFFCURVE",
"542 221 CURVE",
"501 265 OFFCURVE",
"445 285 OFFCURVE",
"398 294 CURVE",
"398 219 LINE",
"429 211 OFFCURVE",
"463 197 OFFCURVE",
"484 174 CURVE SMOOTH",
"495 162 OFFCURVE",
"509 135 OFFCURVE",
"524 102 CURVE",
"477 74 OFFCURVE",
"430 60 OFFCURVE",
"383 60 CURVE SMOOTH",
"307 60 OFFCURVE",
"239 92 OFFCURVE",
"191 144 CURVE SMOOTH",
"142 196 OFFCURVE",
"111 268 OFFCURVE",
"111 348 CURVE SMOOTH",
"111 428 OFFCURVE",
"142 500 OFFCURVE",
"191 553 CURVE SMOOTH",
"239 606 OFFCURVE",
"307 639 OFFCURVE",
"383 639 CURVE SMOOTH"
);
}
);
width = 765;
}
);
leftKerningGroup = "upper-rounds";
note = Q;
unicode = 0051;
},
{
glyphname = R;
lastChange = "2018-04-12 21:53:01 +0000";
layers = (
{
anchors = (
{
name = bottom;
position = "{281, 0}";
},
{
name = top;
position = "{281, 700}";
}
);
layerId = "D890DE10-725C-4894-AB83-5F7B73FFD58A";
paths = (
{
closed = 1;
nodes = (
"328 299 LINE",
"377 310 OFFCURVE",
"420 339 OFFCURVE",
"449 376 CURVE SMOOTH",
"478 412 OFFCURVE",
"495 456 OFFCURVE",
"495 500 CURVE SMOOTH",
"495 551 OFFCURVE",
"477 601 OFFCURVE",
"446 638 CURVE SMOOTH",
"414 675 OFFCURVE",
"371 700 OFFCURVE",
"320 700 CURVE SMOOTH",
"51 700 LINE",
"50 0 LINE",
"121 0 LINE",
"121 300 LINE",
"245 300 LINE",
"429 0 LINE",
"512 0 LINE"
);
},
{
closed = 1;
nodes = (
"352 629 OFFCURVE",
"378 612 OFFCURVE",
"396 588 CURVE SMOOTH",
"414 563 OFFCURVE",
"424 531 OFFCURVE",
"424 500 CURVE SMOOTH",
"424 473 OFFCURVE",
"412 441 OFFCURVE",
"393 415 CURVE SMOOTH",
"374 389 OFFCURVE",
"346 370 OFFCURVE",
"317 370 CURVE SMOOTH",
"121 370 LINE",
"121 629 LINE",
"320 629 LINE SMOOTH"
);
}
);
width = 552;
}
);
note = R;
unicode = 0052;
},
{
glyphname = S;
lastChange = "2018-05-23 00:04:57 +0000";
layers = (
{
anchors = (
{
name = bottom;
position = "{275, 0}";
},
{
name = top;
position = "{275, 700}";
}
);
layerId = "D890DE10-725C-4894-AB83-5F7B73FFD58A";
paths = (
{
closed = 1;
nodes = (
"464 658 LINE",
"407 687 OFFCURVE",
"332 704 OFFCURVE",
"267 704 CURVE SMOOTH",
"131 704 OFFCURVE",
"48 642 OFFCURVE",
"40 535 CURVE SMOOTH",
"35 451 OFFCURVE",
"100 372 OFFCURVE",
"198 345 CURVE SMOOTH",
"227 336 OFFCURVE",
"255 329 OFFCURVE",
"283 324 CURVE",
"296 321 OFFCURVE",
"308 318 OFFCURVE",
"321 314 CURVE SMOOTH",
"350 305 OFFCURVE",
"378 291 OFFCURVE",
"399 273 CURVE SMOOTH",
"424 253 OFFCURVE",
"435 227 OFFCURVE",
"435 198 CURVE SMOOTH",
"435 161 OFFCURVE",
"420 127 OFFCURVE",
"388 102 CURVE SMOOTH",
"357 77 OFFCURVE",
"317 63 OFFCURVE",
"275 63 CURVE SMOOTH",
"242 63 OFFCURVE",
"208 71 OFFCURVE",
"174 85 CURVE SMOOTH",
"142 97 OFFCURVE",
"117 113 OFFCURVE",
"100 127 CURVE",
"45 77 LINE",
"73 53 OFFCURVE",
"110 32 OFFCURVE",
"153 16 CURVE SMOOTH",
"195 1 OFFCURVE",
"238 -8 OFFCURVE",
"277 -8 CURVE SMOOTH",
"342 -8 OFFCURVE",
"399 13 OFFCURVE",
"446 57 CURVE SMOOTH",
"486 95 OFFCURVE",
"509 146 OFFCURVE",
"509 198 CURVE SMOOTH",
"509 285 OFFCURVE",
"446 355 OFFCURVE",
"343 383 CURVE",
"334 386 OFFCURVE",
"321 389 OFFCURVE",
"308 392 CURVE SMOOTH",
"295 395 OFFCURVE",
"280 398 OFFCURVE",
"266 402 CURVE SMOOTH",
"186 421 OFFCURVE",
"115 454 OFFCURVE",
"115 530 CURVE SMOOTH",
"115 567 OFFCURVE",
"131 595 OFFCURVE",
"166 613 CURVE SMOOTH",
"193 627 OFFCURVE",
"225 633 OFFCURVE",
"266 633 CURVE SMOOTH",
"310 633 OFFCURVE",
"377 621 OFFCURVE",
"421 601 CURVE"
);
}
);
width = 549;
}
);
note = S;
unicode = 0053;
},
{
glyphname = T;
lastChange = "2018-04-06 02:16:21 +0000";
layers = (
{
anchors = (
{
name = bottom;
position = "{298, 0}";
},
{
name = center;
position = "{298, 350}";
},
{
name = top;
position = "{298, 700}";
}
);
layerId = "D890DE10-725C-4894-AB83-5F7B73FFD58A";
paths = (
{
closed = 1;
nodes = (
"556 700 LINE",
"40 700 LINE",
"40 635 LINE",
"263 635 LINE",
"263 0 LINE",
"333 0 LINE",
"333 635 LINE",
"556 635 LINE"
);
}
);
width = 596;
}
);
note = T;
unicode = 0054;
},
{
glyphname = U;
lastChange = "2018-04-06 02:06:09 +0000";
layers = (
{
anchors = (
{
name = bottom;
position = "{308, 0}";
},
{
name = ogonek;
position = "{553, 10}";
},
{
name = top;
position = "{308, 700}";
},
{
name = topright;
position = "{595, 700}";
}
);
layerId = "D890DE10-725C-4894-AB83-5F7B73FFD58A";
paths = (
{
closed = 1;
nodes = (
"379 -12 OFFCURVE",
"443 16 OFFCURVE",
"490 61 CURVE SMOOTH",
"537 105 OFFCURVE",
"565 166 OFFCURVE",
"565 234 CURVE SMOOTH",
"565 700 LINE",
"494 700 LINE",
"494 236 LINE SMOOTH",
"494 187 OFFCURVE",
"474 142 OFFCURVE",
"441 110 CURVE SMOOTH",
"408 77 OFFCURVE",
"360 57 OFFCURVE",
"307 57 CURVE SMOOTH",
"254 57 OFFCURVE",
"207 77 OFFCURVE",
"175 110 CURVE SMOOTH",
"142 142 OFFCURVE",
"121 187 OFFCURVE",
"121 236 CURVE",
"120 700 LINE",
"50 700 LINE",
"50 236 LINE SMOOTH",
"50 167 OFFCURVE",
"79 105 OFFCURVE",
"125 61 CURVE SMOOTH",
"171 16 OFFCURVE",
"235 -12 OFFCURVE",
"307 -12 CURVE SMOOTH"
);
}
);
width = 615;
}
);
note = U;
unicode = 0055;
},
{
glyphname = V;
lastChange = "2018-04-12 21:53:02 +0000";
layers = (
{
layerId = "D890DE10-725C-4894-AB83-5F7B73FFD58A";
paths = (
{
closed = 1;
nodes = (
"485 700 LINE",
"298 87 LINE",
"111 700 LINE",
"40 700 LINE",
"259 0 LINE",
"337 0 LINE",
"556 700 LINE"
);
}
);
width = 596;
}
);
leftKerningGroup = "upper-angled";
note = V;
unicode = 0056;
},
{
glyphname = W;
lastChange = "2018-04-17 03:22:47 +0000";
layers = (
{
anchors = (
{
name = bottom;
position = "{538, 0}";
},
{
name = top;
position = "{538, 700}";
}
);
layerId = "D890DE10-725C-4894-AB83-5F7B73FFD58A";
paths = (
{
closed = 1;
nodes = (
"352 0 LINE",
"538 496 LINE",
"726 0 LINE",
"815 0 LINE",
"1036 702 LINE",
"965 702 LINE",
"769 79 LINE",
"580 579 LINE",
"497 579 LINE",
"308 80 LINE",
"110 702 LINE",
"40 702 LINE",
"263 0 LINE"
);
}
);
width = 1076;
}
);
leftKerningGroup = "upper-angled";
note = W;
unicode = 0057;
},
{
glyphname = X;
lastChange = "2018-04-06 02:06:09 +0000";
layers = (
{
layerId = "D890DE10-725C-4894-AB83-5F7B73FFD58A";
paths = (
{
closed = 1;
nodes = (
"481 701 LINE",
"304 410 LINE",
"127 701 LINE",
"46 701 LINE",
"262 355 LINE",
"40 0 LINE",
"122 0 LINE",
"304 298 LINE",
"486 0 LINE",
"567 0 LINE",
"345 355 LINE",
"562 701 LINE"
);
}
);
width = 607;
}
);
note = X;
unicode = 0058;
},
{
glyphname = Y;
lastChange = "2018-04-12 21:53:01 +0000";
layers = (
{
anchors = (
{
name = bottom;
position = "{318, 0}";
},
{
name = top;
position = "{318, 700}";
},
{
name = topleft;
position = "{5, 700}";
}
);
layerId = "D890DE10-725C-4894-AB83-5F7B73FFD58A";
paths = (
{
closed = 1;
nodes = (
"516 701 LINE",
"318 310 LINE",
"120 701 LINE",
"40 701 LINE",
"283 236 LINE",
"283 0 LINE",
"354 0 LINE",
"354 236 LINE",
"596 701 LINE"
);
}
);
width = 636;
}
);
note = Y;
unicode = 0059;
},
{
glyphname = Z;
lastChange = "2018-04-06 02:06:09 +0000";
layers = (
{
anchors = (
{
name = bottom;
position = "{281, 0}";
},
{
name = top;
position = "{281, 700}";
}
);
layerId = "D890DE10-725C-4894-AB83-5F7B73FFD58A";
paths = (
{
closed = 1;
nodes = (
"521 71 LINE",
"131 71 LINE",
"516 636 LINE",
"516 700 LINE",
"45 700 LINE",
"45 631 LINE",
"425 631 LINE",
"40 66 LINE",
"40 0 LINE",
"521 0 LINE"
);
}
);
width = 561;
}
);
note = Z;
unicode = 005A;
},
{
glyphname = a;
lastChange = "2018-05-08 09:11:40 +0000";
layers = (
{
anchors = (
{
name = bottom;
position = "{261, 0}";
},
{
name = ogonek;
position = "{445, 10}";
},
{
name = top;
position = "{261, 520}";
}
);
layerId = "D890DE10-725C-4894-AB83-5F7B73FFD58A";
paths = (
{
closed = 1;
nodes = (
"465 271 LINE SMOOTH",
"465 356 OFFCURVE",
"458 416 OFFCURVE",
"431 454 CURVE SMOOTH",
"403 492 OFFCURVE",
"356 508 OFFCURVE",
"279 508 CURVE SMOOTH",
"242 508 OFFCURVE",
"200 499 OFFCURVE",
"161 484 CURVE SMOOTH",
"121 468 OFFCURVE",
"85 448 OFFCURVE",
"58 425 CURVE",
"108 373 LINE",
"124 388 OFFCURVE",
"158 413 OFFCURVE",
"201 429 CURVE SMOOTH",
"228 440 OFFCURVE",
"257 446 OFFCURVE",
"286 446 CURVE SMOOTH",
"311 446 OFFCURVE",
"338 441 OFFCURVE",
"358 427 CURVE SMOOTH",
"378 413 OFFCURVE",
"392 392 OFFCURVE",
"392 360 CURVE SMOOTH",
"392 315 LINE",
"193 331 OFFCURVE",
"47 283 OFFCURVE",
"47 134 CURVE SMOOTH",
"47 115 OFFCURVE",
"49 91 OFFCURVE",
"60 67 CURVE SMOOTH",
"71 43 OFFCURVE",
"88 19 OFFCURVE",
"120 6 CURVE",
"140 -5 OFFCURVE",
"165 -8 OFFCURVE",
"190 -8 CURVE SMOOTH",
"229 -8 OFFCURVE",
"268 0 OFFCURVE",
"299 11 CURVE SMOOTH",
"326 20 OFFCURVE",
"349 33 OFFCURVE",
"393 64 CURVE",
"393 0 LINE",
"465 0 LINE"
);
},
{
closed = 1;
nodes = (
"341 77 OFFCURVE",
"274 55 OFFCURVE",
"218 55 CURVE SMOOTH",
"193 55 OFFCURVE",
"168 60 OFFCURVE",
"149 73 CURVE",
"130 85 OFFCURVE",
"118 105 OFFCURVE",
"118 134 CURVE SMOOTH",
"118 175 OFFCURVE",
"144 220 OFFCURVE",
"191 240 CURVE SMOOTH",
"238 260 OFFCURVE",
"292 265 OFFCURVE",
"393 268 CURVE",
"393 120 LINE"
);
}
);
width = 515;
}
);
leftKerningGroup = "rounded-low";
note = a;
unicode = 0061;
},
{
glyphname = ae;
lastChange = "2018-04-12 21:53:02 +0000";
layers = (
{
layerId = "D890DE10-725C-4894-AB83-5F7B73FFD58A";
paths = (
{
closed = 1;
nodes = (
"846 262 LINE SMOOTH",
"846 334 OFFCURVE",
"825 394 OFFCURVE",
"785 436 CURVE SMOOTH",
"745 478 OFFCURVE",
"686 502 OFFCURVE",
"611 502 CURVE SMOOTH",
"539 502 OFFCURVE",
"478 477 OFFCURVE",
"428 427 CURVE",
"396 486 OFFCURVE",
"352 508 OFFCURVE",
"265 508 CURVE SMOOTH",
"229 508 OFFCURVE",
"189 499 OFFCURVE",
"151 484 CURVE SMOOTH",
"113 468 OFFCURVE",
"76 448 OFFCURVE",
"51 425 CURVE",
"99 373 LINE",
"115 388 OFFCURVE",
"149 413 OFFCURVE",
"190 429 CURVE",
"215 440 OFFCURVE",
"244 446 OFFCURVE",
"272 446 CURVE SMOOTH",
"297 446 OFFCURVE",
"323 441 OFFCURVE",
"342 427 CURVE SMOOTH",
"361 413 OFFCURVE",
"374 392 OFFCURVE",
"374 360 CURVE SMOOTH",
"374 302 LINE",
"334 302 LINE SMOOTH",
"290 302 OFFCURVE",
"248 300 OFFCURVE",
"208 295 CURVE SMOOTH",
"127 285 OFFCURVE",
"40 231 OFFCURVE",
"40 134 CURVE SMOOTH",
"40 125 OFFCURVE",
"41 114 OFFCURVE",
"43 103 CURVE",
"46 79 OFFCURVE",
"55 55 OFFCURVE",
"74 33 CURVE SMOOTH",
"93 11 OFFCURVE",
"126 -8 OFFCURVE",
"179 -8 CURVE SMOOTH",
"216 -8 OFFCURVE",
"253 0 OFFCURVE",
"284 11 CURVE SMOOTH",
"308 20 OFFCURVE",
"331 32 OFFCURVE",
"374 63 CURVE",
"374 1 LINE",
"446 1 LINE",
"446 48 LINE",
"513 1 OFFCURVE",
"568 -13 OFFCURVE",
"624 -10 CURVE SMOOTH",
"695 -7 OFFCURVE",
"764 19 OFFCURVE",
"824 66 CURVE",
"788 118 LINE",
"749 83 OFFCURVE",
"690 64 OFFCURVE",
"631 63 CURVE",
"574 60 OFFCURVE",
"532 78 OFFCURVE",
"502 108 CURVE SMOOTH",
"472 138 OFFCURVE",
"454 179 OFFCURVE",
"446 230 CURVE",
"846 230 LINE"
);
},
{
closed = 1;
nodes = (
"707 430 OFFCURVE",
"762 380 OFFCURVE",
"776 281 CURVE",
"448 281 LINE",
"463 381 OFFCURVE",
"512 430 OFFCURVE",
"611 430 CURVE SMOOTH"
);
},
{
closed = 1;
nodes = (
"324 78 OFFCURVE",
"259 55 OFFCURVE",
"206 55 CURVE SMOOTH",
"182 55 OFFCURVE",
"158 60 OFFCURVE",
"140 73 CURVE",
"122 85 OFFCURVE",
"109 105 OFFCURVE",
"109 134 CURVE SMOOTH",
"109 175 OFFCURVE",
"134 203 OFFCURVE",
"179 223 CURVE SMOOTH",
"224 243 OFFCURVE",
"291 246 OFFCURVE",
"374 253 CURVE",
"375 119 LINE"
);
}
);
width = 886;
}
);
leftKerningGroup = "rounded-low";
note = ae;
unicode = 00E6;
},
{
glyphname = b;
lastChange = "2018-04-06 02:06:09 +0000";
layers = (
{
layerId = "D890DE10-725C-4894-AB83-5F7B73FFD58A";
paths = (
{
closed = 1;
nodes = (
"331 -9 OFFCURVE",
"387 17 OFFCURVE",
"425 63 CURVE SMOOTH",
"463 109 OFFCURVE",
"483 172 OFFCURVE",
"483 251 CURVE SMOOTH",
"483 327 OFFCURVE",
"458 390 OFFCURVE",
"418 433 CURVE SMOOTH",
"377 476 OFFCURVE",
"319 500 OFFCURVE",
"252 500 CURVE SMOOTH",
"209 500 OFFCURVE",
"171 488 OFFCURVE",
"122 467 CURVE",
"122 700 LINE",
"50 700 LINE",
"50 1 LINE",
"122 1 LINE",
"122 44 LINE",
"178 7 OFFCURVE",
"216 -9 OFFCURVE",
"259 -9 CURVE SMOOTH"
);
},
{
closed = 1;
nodes = (
"349 432 OFFCURVE",
"412 364 OFFCURVE",
"412 251 CURVE SMOOTH",
"412 134 OFFCURVE",
"351 61 OFFCURVE",
"254 61 CURVE SMOOTH",
"201 61 OFFCURVE",
"151 86 OFFCURVE",
"122 105 CURVE",
"122 406 LINE",
"149 417 OFFCURVE",
"187 432 OFFCURVE",
"236 432 CURVE SMOOTH"
);
}
);
width = 523;
}
);
note = b;
unicode = 0062;
},
{
glyphname = c;
lastChange = "2018-04-12 21:53:02 +0000";
layers = (
{
anchors = (
{
name = bottom;
position = "{284, 0}";
},
{
name = top;
position = "{278, 520}";
}
);
layerId = "D890DE10-725C-4894-AB83-5F7B73FFD58A";
paths = (
{
closed = 1;
nodes = (
"340 -22 OFFCURVE",
"413 5 OFFCURVE",
"460 53 CURVE",
"422 104 LINE",
"409 92 OFFCURVE",
"386 79 OFFCURVE",
"355 71 CURVE SMOOTH",
"323 63 OFFCURVE",
"285 59 OFFCURVE",
"240 67 CURVE SMOOTH",
"156 82 OFFCURVE",
"111 150 OFFCURVE",
"111 250 CURVE SMOOTH",
"111 350 OFFCURVE",
"156 417 OFFCURVE",
"240 432 CURVE SMOOTH",
"285 440 OFFCURVE",
"323 436 OFFCURVE",
"355 428 CURVE SMOOTH",
"386 420 OFFCURVE",
"409 407 OFFCURVE",
"422 395 CURVE",
"460 446 LINE",
"413 494 OFFCURVE",
"340 521 OFFCURVE",
"220 501 CURVE SMOOTH",
"109 482 OFFCURVE",
"40 390 OFFCURVE",
"40 250 CURVE SMOOTH",
"40 109 OFFCURVE",
"109 17 OFFCURVE",
"220 -2 CURVE SMOOTH"
);
}
);
width = 500;
}
);
leftKerningGroup = "rounded-low";
note = c;
unicode = 0063;
},
{
glyphname = d;
lastChange = "2018-04-17 04:05:43 +0000";
layers = (
{
anchors = (
{
name = bottom;
position = "{252, 0}";
},
{
name = center;
position = "{297, 600}";
},
{
name = top;
position = "{252, 649}";
},
{
name = topright;
position = "{493, 500}";
}
);
layerId = "D890DE10-725C-4894-AB83-5F7B73FFD58A";
paths = (
{
closed = 1;
nodes = (
"307 -9 OFFCURVE",
"345 7 OFFCURVE",
"401 44 CURVE",
"401 1 LINE",
"473 1 LINE",
"473 700 LINE",
"401 700 LINE",
"401 467 LINE",
"352 488 OFFCURVE",
"314 500 OFFCURVE",
"271 500 CURVE SMOOTH",
"204 500 OFFCURVE",
"146 476 OFFCURVE",
"105 433 CURVE SMOOTH",
"65 390 OFFCURVE",
"40 327 OFFCURVE",
"40 251 CURVE SMOOTH",
"40 172 OFFCURVE",
"60 109 OFFCURVE",
"98 63 CURVE SMOOTH",
"136 17 OFFCURVE",
"192 -9 OFFCURVE",
"264 -9 CURVE SMOOTH"
);
},
{
closed = 1;
nodes = (
"336 432 OFFCURVE",
"374 417 OFFCURVE",
"401 406 CURVE",
"401 105 LINE",
"372 86 OFFCURVE",
"322 61 OFFCURVE",
"269 61 CURVE SMOOTH",
"172 61 OFFCURVE",
"111 134 OFFCURVE",
"111 251 CURVE SMOOTH",
"111 364 OFFCURVE",
"174 432 OFFCURVE",
"287 432 CURVE SMOOTH"
);
}
);
width = 523;
}
);
leftKerningGroup = "rounded-low";
note = d;
unicode = 0064;
},
{
glyphname = eth;
lastChange = "2018-04-12 21:53:02 +0000";
layers = (
{
layerId = "D890DE10-725C-4894-AB83-5F7B73FFD58A";
paths = (
{
closed = 1;
nodes = (
"313 -10 OFFCURVE",
"375 9 OFFCURVE",
"423 46 CURVE SMOOTH",
"470 82 OFFCURVE",
"503 136 OFFCURVE",
"511 199 CURVE SMOOTH",
"526 311 OFFCURVE",
"482 436 OFFCURVE",
"378 605 CURVE SMOOTH",
"367 622 OFFCURVE",
"356 639 OFFCURVE",
"345 655 CURVE SMOOTH",
"334 670 OFFCURVE",
"324 685 OFFCURVE",
"315 699 CURVE",
"227 700 LINE",
"239 684 OFFCURVE",
"253 666 OFFCURVE",
"268 646 CURVE SMOOTH",
"283 626 OFFCURVE",
"298 605 OFFCURVE",
"313 583 CURVE SMOOTH",
"333 555 OFFCURVE",
"352 527 OFFCURVE",
"374 492 CURVE SMOOTH",
"396 456 OFFCURVE",
"418 414 OFFCURVE",
"446 359 CURVE",
"367 456 OFFCURVE",
"262 455 OFFCURVE",
"186 434 CURVE SMOOTH",
"110 413 OFFCURVE",
"54 349 OFFCURVE",
"42 256 CURVE SMOOTH",
"34 193 OFFCURVE",
"54 133 OFFCURVE",
"91 86 CURVE SMOOTH",
"128 39 OFFCURVE",
"184 6 OFFCURVE",
"249 -2 CURVE SMOOTH"
);
},
{
closed = 1;
nodes = (
"212 73 OFFCURVE",
"174 96 OFFCURVE",
"148 129 CURVE SMOOTH",
"122 161 OFFCURVE",
"108 204 OFFCURVE",
"113 248 CURVE SMOOTH",
"118 292 OFFCURVE",
"142 330 OFFCURVE",
"175 355 CURVE SMOOTH",
"208 380 OFFCURVE",
"252 393 OFFCURVE",
"297 388 CURVE SMOOTH",
"341 383 OFFCURVE",
"380 360 OFFCURVE",
"406 328 CURVE SMOOTH",
"432 295 OFFCURVE",
"445 252 OFFCURVE",
"440 208 CURVE",
"433 164 OFFCURVE",
"410 125 OFFCURVE",
"377 101 CURVE SMOOTH",
"344 76 OFFCURVE",
"301 63 OFFCURVE",
"256 68 CURVE SMOOTH"
);
},
{
closed = 1;
nodes = (
"475 629 LINE",
"455 685 LINE",
"173 583 LINE",
"193 527 LINE"
);
}
);
width = 554;
}
);
leftKerningGroup = "rounded-low";
unicode = 00F0;
},
{
glyphname = e;
lastChange = "2018-05-08 09:16:39 +0000";
layers = (
{
anchors = (
{
name = bottom;
position = "{281, 0}";
},
{
name = ogonek;
position = "{419, 10}";
},
{
name = top;
position = "{281, 520}";
}
);
layerId = "D890DE10-725C-4894-AB83-5F7B73FFD58A";
paths = (
{
closed = 1;
nodes = (
"522 262 LINE SMOOTH",
"522 334 OFFCURVE",
"500 394 OFFCURVE",
"460 436 CURVE SMOOTH",
"419 478 OFFCURVE",
"358 502 OFFCURVE",
"282 502 CURVE SMOOTH",
"129 502 OFFCURVE",
"40 410 OFFCURVE",
"40 262 CURVE SMOOTH",
"40 155 OFFCURVE",
"70 80 OFFCURVE",
"129 37 CURVE SMOOTH",
"177 2 OFFCURVE",
"235 -13 OFFCURVE",
"295 -10 CURVE SMOOTH",
"367 -7 OFFCURVE",
"439 19 OFFCURVE",
"499 67 CURVE",
"463 118 LINE",
"424 83 OFFCURVE",
"353 56 OFFCURVE",
"293 55 CURVE SMOOTH",
"189 50 OFFCURVE",
"114 118 OFFCURVE",
"114 230 CURVE",
"522 230 LINE"
);
},
{
closed = 1;
nodes = (
"381 431 OFFCURVE",
"450 387 OFFCURVE",
"450 287 CURVE",
"115 287 LINE",
"121 387 OFFCURVE",
"182 431 OFFCURVE",
"282 431 CURVE SMOOTH"
);
}
);
width = 562;
}
);
leftKerningGroup = "rounded-low";
note = e;
unicode = 0065;
},
{
glyphname = f;
lastChange = "2018-04-12 21:53:01 +0000";
layers = (
{
layerId = "D890DE10-725C-4894-AB83-5F7B73FFD58A";
paths = (
{
closed = 1;
nodes = (
"206 548 OFFCURVE",
"218 585 OFFCURVE",
"242 608 CURVE SMOOTH",
"265 631 OFFCURVE",
"299 640 OFFCURVE",
"344 643 CURVE",
"344 707 LINE",
"212 708 OFFCURVE",
"136 641 OFFCURVE",
"129 492 CURVE",
"129 0 LINE",
"203 0 LINE",
"203 492 LINE"
);
},
{
closed = 1;
nodes = (
"40 435 LINE",
"337 435 LINE",
"337 500 LINE",
"40 500 LINE"
);
}
);
width = 384;
}
);
note = f;
unicode = 0066;
},
{
glyphname = g;
lastChange = "2018-04-12 21:53:02 +0000";
layers = (
{
anchors = (
{
name = bottom;
position = "{263, 0}";
},
{
name = top;
position = "{263, 500}";
}
);
layerId = "D890DE10-725C-4894-AB83-5F7B73FFD58A";
paths = (
{
closed = 1;
nodes = (
"411 -204 OFFCURVE",
"475 -122 OFFCURVE",
"475 5 CURVE SMOOTH",
"475 499 LINE",
"404 499 LINE",
"404 452 LINE",
"334 500 OFFCURVE",
"265 509 OFFCURVE",
"210 494 CURVE SMOOTH",
"98 466 OFFCURVE",
"40 379 OFFCURVE",
"40 235 CURVE SMOOTH",
"40 116 OFFCURVE",
"106 31 OFFCURVE",
"210 4 CURVE SMOOTH",
"282 -13 OFFCURVE",
"349 0 OFFCURVE",
"404 36 CURVE",
"403 -59 OFFCURVE",
"385 -120 OFFCURVE",
"312 -139 CURVE SMOOTH",
"276 -148 OFFCURVE",
"242 -143 OFFCURVE",
"215 -132 CURVE SMOOTH",
"187 -121 OFFCURVE",
"165 -107 OFFCURVE",
"153 -98 CURVE",
"103 -148 LINE",
"114 -156 OFFCURVE",
"135 -170 OFFCURVE",
"164 -182 CURVE SMOOTH",
"193 -194 OFFCURVE",
"229 -204 OFFCURVE",
"270 -204 CURVE SMOOTH"
);
},
{
closed = 1;
nodes = (
"385 83 OFFCURVE",
"364 74 OFFCURVE",
"335 69 CURVE",
"304 62 OFFCURVE",
"269 60 OFFCURVE",
"228 71 CURVE SMOOTH",
"152 90 OFFCURVE",
"111 151 OFFCURVE",
"111 235 CURVE SMOOTH",
"111 336 OFFCURVE",
"143 406 OFFCURVE",
"228 426 CURVE SMOOTH",
"264 434 OFFCURVE",
"299 429 OFFCURVE",
"331 420 CURVE SMOOTH",
"362 411 OFFCURVE",
"388 396 OFFCURVE",
"404 387 CURVE",
"404 91 LINE"
);
}
);
width = 525;
}
);
leftKerningGroup = "rounded-low";
note = g;
unicode = 0067;
},
{
glyphname = h;
lastChange = "2018-04-12 21:53:02 +0000";
layers = (
{
anchors = (
{
name = bottom;
position = "{263, 0}";
},
{
name = center;
position = "{216, 586}";
},
{
name = top;
position = "{263, 668}";
}
);
layerId = "D890DE10-725C-4894-AB83-5F7B73FFD58A";
paths = (
{
closed = 1;
nodes = (
"484 294 LINE SMOOTH",
"484 362 OFFCURVE",
"461 414 OFFCURVE",
"421 448 CURVE SMOOTH",
"381 482 OFFCURVE",
"325 499 OFFCURVE",
"260 499 CURVE SMOOTH",
"213 499 OFFCURVE",
"173 479 OFFCURVE",
"122 436 CURVE",
"122 700 LINE",
"52 700 LINE",
"52 0 LINE",
"122 0 LINE",
"122 363 LINE",
"135 375 OFFCURVE",
"155 393 OFFCURVE",
"180 409 CURVE SMOOTH",
"205 424 OFFCURVE",
"234 435 OFFCURVE",
"265 435 CURVE SMOOTH",
"353 435 OFFCURVE",
"412 390 OFFCURVE",
"412 294 CURVE SMOOTH",
"412 0 LINE",
"484 0 LINE"
);
}
);
width = 524;
}
);
leftKerningGroup = "angleds-low";
note = h;
unicode = 0068;
},
{
glyphname = i;
lastChange = "2018-05-08 09:14:29 +0000";
layers = (
{
components = (
{
name = idotless;
transform = "{1, 0, 0, 1, 10, 0}";
}
);
layerId = "D890DE10-725C-4894-AB83-5F7B73FFD58A";
paths = (
{
closed = 1;
nodes = (
"121 576 OFFCURVE",
"142 597 OFFCURVE",
"142 622 CURVE SMOOTH",
"142 647 OFFCURVE",
"121 668 OFFCURVE",
"96 668 CURVE SMOOTH",
"71 668 OFFCURVE",
"50 647 OFFCURVE",
"50 622 CURVE SMOOTH",
"50 597 OFFCURVE",
"71 576 OFFCURVE",
"96 576 CURVE SMOOTH"
);
}
);
width = 196;
}
);
leftKerningGroup = "angleds-low";
note = i;
unicode = 0069;
},
{
glyphname = idotless;
lastChange = "2018-04-12 21:53:01 +0000";
layers = (
{
anchors = (
{
name = bottom;
position = "{88, 0}";
},
{
name = ogonek;
position = "{171, 10}";
},
{
name = top;
position = "{88, 500}";
}
);
layerId = "D890DE10-725C-4894-AB83-5F7B73FFD58A";
paths = (
{
closed = 1;
nodes = (
"120 500 LINE",
"50 500 LINE",
"50 0 LINE",
"120 0 LINE"
);
}
);
width = 170;
}
);
unicode = 0131;
},
{
glyphname = j;
lastChange = "2018-04-12 21:53:01 +0000";
layers = (
{
components = (
{
name = jdotless;
}
);
layerId = "D890DE10-725C-4894-AB83-5F7B73FFD58A";
paths = (
{
closed = 1;
nodes = (
"181 576 OFFCURVE",
"202 597 OFFCURVE",
"202 622 CURVE SMOOTH",
"202 647 OFFCURVE",
"181 668 OFFCURVE",
"156 668 CURVE SMOOTH",
"131 668 OFFCURVE",
"110 647 OFFCURVE",
"110 622 CURVE SMOOTH",
"110 597 OFFCURVE",
"131 576 OFFCURVE",
"156 576 CURVE SMOOTH"
);
}
);
width = 252;
}
);
note = j;
unicode = 006A;
},
{
glyphname = jdotless;
lastChange = "2018-04-11 08:28:49 +0000";
layers = (
{
anchors = (
{
name = bottom;
position = "{125, 0}";
},
{
name = top;
position = "{129, 500}";
}
);
layerId = "D890DE10-725C-4894-AB83-5F7B73FFD58A";
paths = (
{
closed = 1;
nodes = (
"111 -177 OFFCURVE",
"191 -108 OFFCURVE",
"191 39 CURVE SMOOTH",
"191 500 LINE",
"124 500 LINE",
"124 39 LINE SMOOTH",
"125 -72 OFFCURVE",
"76 -109 OFFCURVE",
"-30 -114 CURVE",
"-30 -177 LINE"
);
}
);
width = 249;
}
);
unicode = 0237;
},
{
glyphname = k;
lastChange = "2018-04-12 21:53:02 +0000";
layers = (
{
anchors = (
{
name = bottom;
position = "{249, 0}";
},
{
name = top;
position = "{249, 500}";
}
);
layerId = "D890DE10-725C-4894-AB83-5F7B73FFD58A";
paths = (
{
closed = 1;
nodes = (
"228 346 LINE",
"399 493 LINE",
"293 493 LINE",
"120 349 LINE",
"120 700 LINE",
"50 700 LINE",
"50 0 LINE",
"120 0 LINE",
"120 255 LINE",
"174 300 LINE",
"377 0 LINE",
"458 0 LINE"
);
}
);
width = 498;
}
);
leftKerningGroup = "angleds-low";
note = k;
unicode = 006B;
},
{
glyphname = l;
lastChange = "2018-04-10 03:07:38 +0000";
layers = (
{
anchors = (
{
name = bottom;
position = "{86, 0}";
},
{
name = center;
position = "{85, 338}";
},
{
name = top;
position = "{85, 700}";
},
{
name = topright;
position = "{150, 500}";
}
);
layerId = "D890DE10-725C-4894-AB83-5F7B73FFD58A";
paths = (
{
closed = 1;
nodes = (
"120 700 LINE",
"50 700 LINE",
"50 0 LINE",
"120 0 LINE"
);
}
);
width = 170;
}
);
note = l;
unicode = 006C;
},
{
glyphname = m;
lastChange = "2018-04-12 21:53:02 +0000";
layers = (
{
layerId = "D890DE10-725C-4894-AB83-5F7B73FFD58A";
paths = (
{
closed = 1;
nodes = (
"808 298 LINE SMOOTH",
"808 409 OFFCURVE",
"751 472 OFFCURVE",
"666 496 CURVE",
"650 503 OFFCURVE",
"625 506 OFFCURVE",
"601 506 CURVE",
"576 505 OFFCURVE",
"549 501 OFFCURVE",
"528 493 CURVE SMOOTH",
"493 480 OFFCURVE",
"466 463 OFFCURVE",
"435 427 CURVE",
"387 489 OFFCURVE",
"326 515 OFFCURVE",
"251 506 CURVE SMOOTH",
"210 501 OFFCURVE",
"165 484 OFFCURVE",
"120 437 CURVE",
"120 500 LINE",
"50 500 LINE",
"50 0 LINE",
"120 0 LINE",
"120 372 LINE",
"133 385 OFFCURVE",
"153 403 OFFCURVE",
"177 417 CURVE SMOOTH",
"200 431 OFFCURVE",
"226 441 OFFCURVE",
"254 441 CURVE SMOOTH",
"339 441 OFFCURVE",
"398 395 OFFCURVE",
"398 298 CURVE SMOOTH",
"398 0 LINE",
"467 0 LINE",
"467 298 LINE SMOOTH",
"467 391 OFFCURVE",
"522 441 OFFCURVE",
"603 441 CURVE SMOOTH",
"683 441 OFFCURVE",
"738 391 OFFCURVE",
"738 298 CURVE SMOOTH",
"738 0 LINE",
"808 0 LINE"
);
}
);
width = 848;
}
);
leftKerningGroup = "angleds-low";
note = m;
unicode = 006D;
},
{
glyphname = n;
lastChange = "2018-04-12 21:53:02 +0000";
layers = (
{
anchors = (
{
name = bottom;
position = "{260, 0}";
},
{
name = top;
position = "{260, 520}";
}
);
layerId = "D890DE10-725C-4894-AB83-5F7B73FFD58A";
paths = (
{
closed = 1;
nodes = (
"480 298 LINE SMOOTH",
"480 367 OFFCURVE",
"458 418 OFFCURVE",
"418 453 CURVE SMOOTH",
"378 488 OFFCURVE",
"323 506 OFFCURVE",
"258 506 CURVE SMOOTH",
"213 506 OFFCURVE",
"173 486 OFFCURVE",
"120 445 CURVE",
"120 500 LINE",
"50 500 LINE",
"50 0 LINE",
"120 0 LINE",
"120 368 LINE",
"133 381 OFFCURVE",
"153 399 OFFCURVE",
"178 414 CURVE SMOOTH",
"203 429 OFFCURVE",
"232 441 OFFCURVE",
"263 441 CURVE SMOOTH",
"351 441 OFFCURVE",
"410 395 OFFCURVE",
"410 298 CURVE SMOOTH",
"410 0 LINE",
"480 0 LINE"
);
}
);
width = 520;
}
);
leftKerningGroup = "angleds-low";
note = n;
unicode = 006E;
},
{
glyphname = eng;
lastChange = "2018-04-11 00:32:04 +0000";
layers = (
{
layerId = "D890DE10-725C-4894-AB83-5F7B73FFD58A";
paths = (
{
closed = 1;
nodes = (
"418 -135 OFFCURVE",
"480 -110 OFFCURVE",
"480 1 CURVE",
"480 298 LINE SMOOTH",
"480 367 OFFCURVE",
"458 418 OFFCURVE",
"418 453 CURVE SMOOTH",
"378 488 OFFCURVE",
"323 506 OFFCURVE",
"258 506 CURVE SMOOTH",
"213 506 OFFCURVE",
"173 486 OFFCURVE",
"120 445 CURVE",
"120 500 LINE",
"50 500 LINE",
"50 0 LINE",
"120 0 LINE",
"120 368 LINE",
"133 381 OFFCURVE",
"153 399 OFFCURVE",
"178 414 CURVE SMOOTH",
"203 429 OFFCURVE",
"232 441 OFFCURVE",
"263 441 CURVE SMOOTH",
"351 441 OFFCURVE",
"410 395 OFFCURVE",
"410 298 CURVE SMOOTH",
"410 1 LINE",
"408 -58 OFFCURVE",
"378 -65 OFFCURVE",
"302 -65 CURVE",
"302 -135 LINE"
);
}
);
width = 520;
}
);
unicode = 014B;
},
{
glyphname = o;
lastChange = "2018-04-17 04:09:09 +0000";
layers = (
{
anchors = (
{
name = bottom;
position = "{282, 0}";
},
{
name = center;
position = "{282, 250}";
},
{
name = ogonek;
position = "{369, 10}";
},
{
name = top;
position = "{282, 520}";
},
{
name = topright;
position = "{544, 500}";
}
);
layerId = "D890DE10-725C-4894-AB83-5F7B73FFD58A";
paths = (
{
closed = 1;
nodes = (
"355 -11 OFFCURVE",
"417 15 OFFCURVE",
"459 59 CURVE SMOOTH",
"501 103 OFFCURVE",
"524 165 OFFCURVE",
"524 238 CURVE SMOOTH",
"524 327 OFFCURVE",
"501 399 OFFCURVE",
"459 443 CURVE SMOOTH",
"417 486 OFFCURVE",
"355 507 OFFCURVE",
"282 507 CURVE SMOOTH",
"131 507 OFFCURVE",
"40 417 OFFCURVE",
"40 238 CURVE SMOOTH",
"40 165 OFFCURVE",
"63 103 OFFCURVE",
"105 59 CURVE SMOOTH",
"147 15 OFFCURVE",
"206 -11 OFFCURVE",
"282 -11 CURVE SMOOTH"
);
},
{
closed = 1;
nodes = (
"340 441 OFFCURVE",
"384 419 OFFCURVE",
"413 383 CURVE SMOOTH",
"442 347 OFFCURVE",
"455 291 OFFCURVE",
"455 238 CURVE SMOOTH",
"455 194 OFFCURVE",
"442 151 OFFCURVE",
"413 116 CURVE SMOOTH",
"384 81 OFFCURVE",
"340 58 OFFCURVE",
"282 58 CURVE SMOOTH",
"225 58 OFFCURVE",
"182 80 OFFCURVE",
"153 114 CURVE SMOOTH",
"124 148 OFFCURVE",
"109 193 OFFCURVE",
"109 238 CURVE SMOOTH",
"109 292 OFFCURVE",
"123 347 OFFCURVE",
"152 384 CURVE SMOOTH",
"181 420 OFFCURVE",
"225 441 OFFCURVE",
"282 441 CURVE SMOOTH"
);
}
);
width = 564;
}
);
leftKerningGroup = "rounded-low";
note = o;
unicode = 006F;
},
{
glyphname = oe;
lastChange = "2018-04-12 21:53:02 +0000";
layers = (
{
layerId = "D890DE10-725C-4894-AB83-5F7B73FFD58A";
paths = (
{
closed = 1;
nodes = (
"912 262 LINE SMOOTH",
"912 334 OFFCURVE",
"891 394 OFFCURVE",
"851 436 CURVE SMOOTH",
"811 478 OFFCURVE",
"753 502 OFFCURVE",
"678 502 CURVE SMOOTH",
"591 502 OFFCURVE",
"529 471 OFFCURVE",
"478 404 CURVE",
"427 479 OFFCURVE",
"363 507 OFFCURVE",
"276 507 CURVE SMOOTH",
"128 507 OFFCURVE",
"40 423 OFFCURVE",
"40 244 CURVE SMOOTH",
"40 171 OFFCURVE",
"62 109 OFFCURVE",
"103 65 CURVE SMOOTH",
"143 21 OFFCURVE",
"203 -5 OFFCURVE",
"276 -5 CURVE SMOOTH",
"357 -5 OFFCURVE",
"423 29 OFFCURVE",
"474 98 CURVE",
"497 65 OFFCURVE",
"512 49 OFFCURVE",
"529 37 CURVE SMOOTH",
"576 2 OFFCURVE",
"631 -13 OFFCURVE",
"691 -10 CURVE SMOOTH",
"760 -7 OFFCURVE",
"830 19 OFFCURVE",
"890 66 CURVE",
"854 118 LINE",
"815 83 OFFCURVE",
"755 64 OFFCURVE",
"698 63 CURVE",
"594 58 OFFCURVE",
"518 121 OFFCURVE",
"513 230 CURVE",
"912 230 LINE"
);
},
{
closed = 1;
nodes = (
"775 430 OFFCURVE",
"842 385 OFFCURVE",
"842 286 CURVE",
"515 286 LINE",
"515 386 OFFCURVE",
"579 430 OFFCURVE",
"678 430 CURVE SMOOTH"
);
},
{
closed = 1;
nodes = (
"333 441 OFFCURVE",
"376 418 OFFCURVE",
"405 383 CURVE SMOOTH",
"432 347 OFFCURVE",
"445 297 OFFCURVE",
"445 244 CURVE SMOOTH",
"445 200 OFFCURVE",
"432 157 OFFCURVE",
"404 122 CURVE SMOOTH",
"375 88 OFFCURVE",
"333 64 OFFCURVE",
"276 64 CURVE SMOOTH",
"220 64 OFFCURVE",
"178 88 OFFCURVE",
"151 121 CURVE SMOOTH",
"122 154 OFFCURVE",
"108 199 OFFCURVE",
"108 244 CURVE SMOOTH",
"108 298 OFFCURVE",
"122 347 OFFCURVE",
"151 384 CURVE SMOOTH",
"178 419 OFFCURVE",
"220 441 OFFCURVE",
"276 441 CURVE SMOOTH"
);
}
);
width = 952;
}
);
leftKerningGroup = "rounded-low";
note = oe;
unicode = 0153;
},
{
glyphname = p;
lastChange = "2018-04-12 21:53:02 +0000";
layers = (
{
guideLines = (
{
angle = 180;
position = "{117, -170}";
}
);
layerId = "D890DE10-725C-4894-AB83-5F7B73FFD58A";
paths = (
{
closed = 1;
nodes = (
"216 505 OFFCURVE",
"178 493 OFFCURVE",
"122 452 CURVE",
"122 495 LINE",
"50 495 LINE",
"50 -170 LINE",
"122 -170 LINE",
"122 29 LINE",
"171 8 OFFCURVE",
"209 -4 OFFCURVE",
"252 -4 CURVE SMOOTH",
"319 -4 OFFCURVE",
"377 20 OFFCURVE",
"418 63 CURVE SMOOTH",
"459 106 OFFCURVE",
"483 169 OFFCURVE",
"483 245 CURVE SMOOTH",
"483 324 OFFCURVE",
"463 387 OFFCURVE",
"425 433 CURVE SMOOTH",
"387 479 OFFCURVE",
"331 505 OFFCURVE",
"259 505 CURVE SMOOTH"
);
},
{
closed = 1;
nodes = (
"187 64 OFFCURVE",
"149 79 OFFCURVE",
"122 90 CURVE",
"122 391 LINE",
"151 410 OFFCURVE",
"201 435 OFFCURVE",
"254 435 CURVE SMOOTH",
"351 435 OFFCURVE",
"412 362 OFFCURVE",
"412 245 CURVE SMOOTH",
"412 132 OFFCURVE",
"349 64 OFFCURVE",
"236 64 CURVE SMOOTH"
);
}
);
width = 523;
}
);
leftKerningGroup = "angleds-low";
note = p;
unicode = 0070;
},
{
glyphname = thorn;
lastChange = "2018-04-06 02:06:09 +0000";
layers = (
{
layerId = "D890DE10-725C-4894-AB83-5F7B73FFD58A";
paths = (
{
closed = 1;
nodes = (
"417 52 OFFCURVE",
"483 136 OFFCURVE",
"483 255 CURVE SMOOTH",
"483 398 OFFCURVE",
"425 479 OFFCURVE",
"313 506 CURVE SMOOTH",
"253 521 OFFCURVE",
"194 507 OFFCURVE",
"122 470 CURVE",
"122 700 LINE",
"50 700 LINE",
"50 -170 LINE",
"122 -170 LINE",
"122 50 LINE",
"183 23 OFFCURVE",
"244 8 OFFCURVE",
"313 25 CURVE SMOOTH"
);
},
{
closed = 1;
nodes = (
"379 418 OFFCURVE",
"412 355 OFFCURVE",
"412 255 CURVE SMOOTH",
"412 171 OFFCURVE",
"371 111 OFFCURVE",
"295 92 CURVE SMOOTH",
"276 87 OFFCURVE",
"257 85 OFFCURVE",
"240 85 CURVE SMOOTH",
"223 85 OFFCURVE",
"207 86 OFFCURVE",
"192 89 CURVE SMOOTH",
"162 94 OFFCURVE",
"138 103 OFFCURVE",
"122 111 CURVE",
"122 400 LINE",
"139 411 OFFCURVE",
"166 424 OFFCURVE",
"196 433 CURVE SMOOTH",
"226 442 OFFCURVE",
"260 446 OFFCURVE",
"295 438 CURVE SMOOTH"
);
}
);
width = 523;
}
);
note = thorn;
unicode = 00FE;
},
{
glyphname = q;
lastChange = "2018-04-12 21:53:02 +0000";
layers = (
{
layerId = "D890DE10-725C-4894-AB83-5F7B73FFD58A";
paths = (
{
closed = 1;
nodes = (
"192 505 OFFCURVE",
"136 479 OFFCURVE",
"98 433 CURVE SMOOTH",
"60 387 OFFCURVE",
"40 324 OFFCURVE",
"40 245 CURVE SMOOTH",
"40 169 OFFCURVE",
"64 106 OFFCURVE",
"105 63 CURVE SMOOTH",
"146 20 OFFCURVE",
"204 -4 OFFCURVE",
"271 -4 CURVE SMOOTH",
"314 -4 OFFCURVE",
"352 8 OFFCURVE",
"401 29 CURVE",
"401 -170 LINE",
"473 -170 LINE",
"473 495 LINE",
"401 495 LINE",
"401 452 LINE",
"348 496 OFFCURVE",
"307 505 OFFCURVE",
"264 505 CURVE SMOOTH"
);
},
{
closed = 1;
nodes = (
"174 64 OFFCURVE",
"111 132 OFFCURVE",
"111 245 CURVE SMOOTH",
"111 362 OFFCURVE",
"172 435 OFFCURVE",
"269 435 CURVE SMOOTH",
"322 435 OFFCURVE",
"372 410 OFFCURVE",
"401 391 CURVE",
"401 90 LINE",
"374 79 OFFCURVE",
"336 64 OFFCURVE",
"287 64 CURVE SMOOTH"
);
}
);
width = 523;
}
);
leftKerningGroup = "rounded-low";
note = q;
unicode = 0071;
},
{
glyphname = r;
lastChange = "2018-04-12 21:53:02 +0000";
layers = (
{
anchors = (
{
name = bottom;
position = "{199, 0}";
},
{
name = top;
position = "{199, 500}";
}
);
layerId = "D890DE10-725C-4894-AB83-5F7B73FFD58A";
paths = (
{
closed = 1;
nodes = (
"333 506 OFFCURVE",
"292 508 OFFCURVE",
"248 503 CURVE SMOOTH",
"208 498 OFFCURVE",
"173 477 OFFCURVE",
"124 430 CURVE",
"124 500 LINE",
"50 500 LINE",
"50 0 LINE",
"124 0 LINE",
"124 349 LINE",
"131 359 OFFCURVE",
"140 369 OFFCURVE",
"150 379 CURVE SMOOTH",
"169 399 OFFCURVE",
"191 417 OFFCURVE",
"219 429 CURVE SMOOTH",
"247 440 OFFCURVE",
"277 440 OFFCURVE",
"299 440 CURVE SMOOTH",
"310 440 OFFCURVE",
"321 439 OFFCURVE",
"332 436 CURVE",
"368 495 LINE"
);
}
);
width = 398;
}
);
leftKerningGroup = "angleds-low";
note = r;
unicode = 0072;
},
{
glyphname = s;
lastChange = "2018-05-22 01:52:10 +0000";
layers = (
{
anchors = (
{
name = bottom;
position = "{212, 0}";
},
{
name = top;
position = "{212, 520}";
}
);
layerId = "D890DE10-725C-4894-AB83-5F7B73FFD58A";
paths = (
{
closed = 1;
nodes = (
"355 459 LINE",
"335 476 OFFCURVE",
"307 489 OFFCURVE",
"276 497 CURVE SMOOTH",
"242 506 OFFCURVE",
"204 509 OFFCURVE",
"172 505 CURVE SMOOTH",
"101 496 OFFCURVE",
"53 452 OFFCURVE",
"46 387 CURVE SMOOTH",
"37 308 OFFCURVE",
"79 258 OFFCURVE",
"200 226 CURVE SMOOTH",
"271 207 OFFCURVE",
"313 185 OFFCURVE",
"312 129 CURVE SMOOTH",
"311 84 OFFCURVE",
"265 57 OFFCURVE",
"205 57 CURVE SMOOTH",
"165 57 OFFCURVE",
"126 80 OFFCURVE",
"83 113 CURVE",
"40 65 LINE",
"85 23 OFFCURVE",
"147 -7 OFFCURVE",
"209 -7 CURVE SMOOTH",
"296 -7 OFFCURVE",
"380 52 OFFCURVE",
"380 130 CURVE SMOOTH",
"380 160 OFFCURVE",
"375 195 OFFCURVE",
"349 225 CURVE SMOOTH",
"331 246 OFFCURVE",
"312 260 OFFCURVE",
"263 278 CURVE",
"183 303 OFFCURVE",
"107 319 OFFCURVE",
"116 380 CURVE SMOOTH",
"119 401 OFFCURVE",
"129 429 OFFCURVE",
"173 438 CURVE SMOOTH",
"198 443 OFFCURVE",
"227 442 OFFCURVE",
"252 436 CURVE SMOOTH",
"277 430 OFFCURVE",
"300 420 OFFCURVE",
"313 411 CURVE"
);
}
);
width = 420;
}
);
leftKerningGroup = "rounded-low";
note = s;
unicode = 0073;
},
{
glyphname = germandbls;
lastChange = "2018-04-06 02:06:09 +0000";
layers = (
{
layerId = "D890DE10-725C-4894-AB83-5F7B73FFD58A";
paths = (
{
closed = 1;
nodes = (
"400 0 OFFCURVE",
"444 26 OFFCURVE",
"477 64 CURVE SMOOTH",
"509 102 OFFCURVE",
"530 151 OFFCURVE",
"530 200 CURVE SMOOTH",
"530 268 OFFCURVE",
"497 327 OFFCURVE",
"432 368 CURVE",
"447 385 LINE SMOOTH",
"478 422 OFFCURVE",
"494 472 OFFCURVE",
"494 516 CURVE SMOOTH",
"494 565 OFFCURVE",
"477 612 OFFCURVE",
"446 645 CURVE SMOOTH",
"415 678 OFFCURVE",
"372 700 OFFCURVE",
"320 700 CURVE SMOOTH",
"50 700 LINE",
"50 0 LINE",
"121 0 LINE",
"121 318 LINE",
"355 318 LINE SMOOTH",
"390 318 OFFCURVE",
"416 302 OFFCURVE",
"433 279 CURVE SMOOTH",
"450 255 OFFCURVE",
"459 225 OFFCURVE",
"459 200 CURVE SMOOTH",
"459 168 OFFCURVE",
"447 136 OFFCURVE",
"428 111 CURVE SMOOTH",
"409 86 OFFCURVE",
"381 69 OFFCURVE",
"352 69 CURVE SMOOTH",
"203 69 LINE",
"203 0 LINE",
"352 0 LINE SMOOTH"
);
},
{
closed = 1;
nodes = (
"355 631 OFFCURVE",
"381 616 OFFCURVE",
"398 594 CURVE SMOOTH",
"414 572 OFFCURVE",
"423 543 OFFCURVE",
"423 516 CURVE SMOOTH",
"423 485 OFFCURVE",
"412 453 OFFCURVE",
"393 427 CURVE SMOOTH",
"373 401 OFFCURVE",
"347 382 OFFCURVE",
"316 382 CURVE SMOOTH",
"121 382 LINE",
"121 631 LINE",
"320 631 LINE SMOOTH"
);
}
);
width = 570;
}
);
note = germandbls;
unicode = 00DF;
},
{
glyphname = t;
lastChange = "2018-05-08 09:16:54 +0000";
layers = (
{
anchors = (
{
name = bottom;
position = "{227, 0}";
},
{
name = center;
position = "{193, 613}";
},
{
name = top;
position = "{193, 700}";
},
{
name = topright;
position = "{365, 500}";
}
);
layerId = "D890DE10-725C-4894-AB83-5F7B73FFD58A";
paths = (
{
closed = 1;
nodes = (
"130 65 OFFCURVE",
"188 -5 OFFCURVE",
"324 -5 CURVE",
"324 59 LINE",
"226 64 OFFCURVE",
"204 101 OFFCURVE",
"204 212 CURVE SMOOTH",
"204 434 LINE",
"338 434 LINE",
"338 500 LINE",
"204 500 LINE",
"204 700 LINE",
"130 700 LINE",
"130 500 LINE",
"40 500 LINE",
"40 434 LINE",
"130 434 LINE",
"130 212 LINE SMOOTH"
);
}
);
width = 385;
}
);
note = t;
unicode = 0074;
},
{
glyphname = u;
lastChange = "2018-04-17 04:07:38 +0000";
layers = (
{
anchors = (
{
name = bottom;
position = "{262, 0}";
},
{
name = ogonek;
position = "{472, 10}";
},
{
name = top;
position = "{262, 500}";
},
{
name = topright;
position = "{504, 500}";
}
);
layerId = "D890DE10-725C-4894-AB83-5F7B73FFD58A";
paths = (
{
closed = 1;
nodes = (
"474 500 LINE",
"402 500 LINE",
"402 132 LINE",
"374 91 OFFCURVE",
"318 59 OFFCURVE",
"259 59 CURVE SMOOTH",
"171 59 OFFCURVE",
"112 105 OFFCURVE",
"112 202 CURVE SMOOTH",
"112 500 LINE",
"40 500 LINE",
"40 202 LINE SMOOTH",
"40 133 OFFCURVE",
"63 81 OFFCURVE",
"103 46 CURVE SMOOTH",
"143 11 OFFCURVE",
"199 -6 OFFCURVE",
"264 -6 CURVE SMOOTH",
"311 -6 OFFCURVE",
"369 8 OFFCURVE",
"402 44 CURVE",
"402 0 LINE",
"474 0 LINE"
);
}
);
width = 524;
}
);
leftKerningGroup = "rounded-low";
note = u;
unicode = 0075;
},
{
glyphname = v;
lastChange = "2018-04-12 21:53:02 +0000";
layers = (
{
layerId = "D890DE10-725C-4894-AB83-5F7B73FFD58A";
paths = (
{
closed = 1;
nodes = (
"434 500 LINE",
"274 63 LINE",
"114 500 LINE",
"40 500 LINE",
"227 0 LINE",
"322 0 LINE",
"510 500 LINE"
);
}
);
width = 550;
}
);
leftKerningGroup = "angled-low";
note = v;
unicode = 0076;
},
{
glyphname = w;
lastChange = "2018-04-17 03:23:02 +0000";
layers = (
{
anchors = (
{
name = bottom;
position = "{445, 0}";
},
{
name = top;
position = "{445, 520}";
}
);
layerId = "D890DE10-725C-4894-AB83-5F7B73FFD58A";
paths = (
{
closed = 1;
nodes = (
"308 0 LINE",
"445 427 LINE",
"583 0 LINE",
"685 0 LINE",
"850 500 LINE",
"781 500 LINE",
"635 70 LINE",
"494 500 LINE",
"397 500 LINE",
"257 70 LINE",
"110 500 LINE",
"40 500 LINE",
"206 0 LINE"
);
}
);
width = 890;
}
);
leftKerningGroup = "angled-low";
note = w;
unicode = 0077;
},
{
glyphname = x;
lastChange = "2018-04-12 21:53:02 +0000";
layers = (
{
layerId = "D890DE10-725C-4894-AB83-5F7B73FFD58A";
paths = (
{
closed = 1;
nodes = (
"358 500 LINE",
"242 307 LINE",
"125 500 LINE",
"43 500 LINE",
"200 254 LINE",
"40 0 LINE",
"121 0 LINE",
"242 201 LINE",
"365 0 LINE",
"446 0 LINE",
"284 254 LINE",
"439 500 LINE"
);
}
);
width = 486;
}
);
leftKerningGroup = "angled-low";
note = x;
unicode = 0078;
},
{
glyphname = y;
lastChange = "2018-04-12 21:53:02 +0000";
layers = (
{
anchors = (
{
name = bottom;
position = "{271, 0}";
},
{
name = top;
position = "{271, 520}";
}
);
layerId = "D890DE10-725C-4894-AB83-5F7B73FFD58A";
paths = (
{
closed = 1;
nodes = (
"423 500 LINE",
"277 79 LINE",
"116 500 LINE",
"40 500 LINE",
"232 -6 LINE",
"228 -21 LINE",
"207 -70 OFFCURVE",
"165 -96 OFFCURVE",
"113 -104 CURVE",
"113 -175 LINE",
"125 -174 OFFCURVE",
"136 -172 OFFCURVE",
"146 -169 CURVE",
"229 -149 OFFCURVE",
"280 -94 OFFCURVE",
"315 0 CURVE SMOOTH",
"501 500 LINE"
);
}
);
width = 541;
}
);
leftKerningGroup = "angled-low";
note = y;
unicode = 0079;
},
{
glyphname = z;
lastChange = "2018-04-06 02:06:09 +0000";
layers = (
{
anchors = (
{
name = bottom;
position = "{235, 0}";
},
{
name = top;
position = "{235, 520}";
}
);
layerId = "D890DE10-725C-4894-AB83-5F7B73FFD58A";
paths = (
{
closed = 1;
nodes = (
"430 73 LINE",
"137 73 LINE",
"430 437 LINE",
"430 500 LINE",
"47 500 LINE",
"47 427 LINE",
"333 427 LINE",
"40 59 LINE",
"40 0 LINE",
"430 0 LINE"
);
}
);
width = 470;
}
);
note = z;
unicode = 007A;
},
{
glyphname = zero;
lastChange = "2018-04-06 02:06:09 +0000";
layers = (
{
layerId = "D890DE10-725C-4894-AB83-5F7B73FFD58A";
paths = (
{
closed = 1;
nodes = (
"436 -5 OFFCURVE",
"510 36 OFFCURVE",
"559 101 CURVE SMOOTH",
"608 166 OFFCURVE",
"632 255 OFFCURVE",
"632 350 CURVE SMOOTH",
"632 443 OFFCURVE",
"608 533 OFFCURVE",
"559 598 CURVE SMOOTH",
"510 663 OFFCURVE",
"436 705 OFFCURVE",
"336 705 CURVE SMOOTH",
"236 705 OFFCURVE",
"162 664 OFFCURVE",
"113 600 CURVE SMOOTH",
"64 535 OFFCURVE",
"40 446 OFFCURVE",
"40 350 CURVE SMOOTH",
"40 255 OFFCURVE",
"64 166 OFFCURVE",
"113 101 CURVE SMOOTH",
"161 36 OFFCURVE",
"235 -5 OFFCURVE",
"336 -5 CURVE SMOOTH"
);
},
{
closed = 1;
nodes = (
"414 633 OFFCURVE",
"471 600 OFFCURVE",
"508 549 CURVE SMOOTH",
"544 497 OFFCURVE",
"561 426 OFFCURVE",
"560 350 CURVE SMOOTH",
"560 275 OFFCURVE",
"544 203 OFFCURVE",
"508 151 CURVE SMOOTH",
"471 99 OFFCURVE",
"414 66 OFFCURVE",
"336 66 CURVE SMOOTH",
"257 66 OFFCURVE",
"200 99 OFFCURVE",
"163 151 CURVE SMOOTH",
"127 203 OFFCURVE",
"111 275 OFFCURVE",
"111 350 CURVE SMOOTH",
"111 425 OFFCURVE",
"127 497 OFFCURVE",
"163 549 CURVE SMOOTH",
"200 600 OFFCURVE",
"257 633 OFFCURVE",
"336 633 CURVE SMOOTH"
);
}
);
width = 672;
}
);
note = zero;
unicode = 0030;
},
{
glyphname = one;
lastChange = "2018-04-12 21:53:01 +0000";
layers = (
{
layerId = "D890DE10-725C-4894-AB83-5F7B73FFD58A";
paths = (
{
closed = 1;
nodes = (
"396 60 LINE",
"301 60 LINE",
"301 700 LINE",
"188 700 LINE",
"40 547 LINE",
"88 497 LINE",
"231 639 LINE",
"231 60 LINE",
"113 60 LINE",
"113 0 LINE",
"396 0 LINE"
);
}
);
width = 436;
}
);
note = one;
unicode = 0031;
},
{
glyphname = two;
lastChange = "2018-05-22 01:55:36 +0000";
layers = (
{
layerId = "D890DE10-725C-4894-AB83-5F7B73FFD58A";
paths = (
{
closed = 1;
nodes = (
"518 70 LINE",
"129 70 LINE",
"129 114 OFFCURVE",
"166 129 OFFCURVE",
"276 201 CURVE SMOOTH",
"335 240 OFFCURVE",
"395 279 OFFCURVE",
"440 324 CURVE SMOOTH",
"485 368 OFFCURVE",
"515 417 OFFCURVE",
"515 473 CURVE",
"518 599 OFFCURVE",
"409 701 OFFCURVE",
"284 707 CURVE SMOOTH",
"201 710 OFFCURVE",
"138 691 OFFCURVE",
"95 652 CURVE SMOOTH",
"63 621 OFFCURVE",
"43 578 OFFCURVE",
"40 530 CURVE",
"118 530 LINE",
"127 616 OFFCURVE",
"180 641 OFFCURVE",
"281 636 CURVE SMOOTH",
"374 630 OFFCURVE",
"447 562 OFFCURVE",
"447 471 CURVE SMOOTH",
"447 394 OFFCURVE",
"328 314 OFFCURVE",
"237 254 CURVE SMOOTH",
"172 211 OFFCURVE",
"129 186 OFFCURVE",
"101 159 CURVE SMOOTH",
"51 109 OFFCURVE",
"56 97 OFFCURVE",
"57 0 CURVE",
"518 0 LINE"
);
}
);
width = 558;
}
);
note = two;
unicode = 0032;
},
{
glyphname = three;
lastChange = "2018-05-22 01:53:07 +0000";
layers = (
{
layerId = "D890DE10-725C-4894-AB83-5F7B73FFD58A";
paths = (
{
closed = 1;
nodes = (
"330 -7 OFFCURVE",
"387 16 OFFCURVE",
"428 53 CURVE SMOOTH",
"468 89 OFFCURVE",
"494 140 OFFCURVE",
"494 195 CURVE SMOOTH",
"494 258 OFFCURVE",
"458 320 OFFCURVE",
"393 368 CURVE",
"450 415 OFFCURVE",
"481 462 OFFCURVE",
"481 518 CURVE SMOOTH",
"481 570 OFFCURVE",
"459 618 OFFCURVE",
"421 652 CURVE SMOOTH",
"383 686 OFFCURVE",
"330 707 OFFCURVE",
"273 707 CURVE SMOOTH",
"246 707 OFFCURVE",
"221 702 OFFCURVE",
"196 693 CURVE SMOOTH",
"147 675 OFFCURVE",
"109 639 OFFCURVE",
"86 598 CURVE",
"81 587 OFFCURVE",
"75 571 OFFCURVE",
"70 555 CURVE",
"140 534 LINE",
"147 562 OFFCURVE",
"153 578 OFFCURVE",
"178 601 CURVE SMOOTH",
"204 625 OFFCURVE",
"238 637 OFFCURVE",
"273 637 CURVE SMOOTH",
"310 637 OFFCURVE",
"344 623 OFFCURVE",
"369 602 CURVE SMOOTH",
"393 581 OFFCURVE",
"408 551 OFFCURVE",
"408 518 CURVE SMOOTH",
"408 485 OFFCURVE",
"393 458 OFFCURVE",
"369 435 CURVE SMOOTH",
"344 412 OFFCURVE",
"310 398 OFFCURVE",
"273 398 CURVE SMOOTH",
"202 398 LINE",
"202 337 LINE",
"267 337 LINE SMOOTH",
"308 337 OFFCURVE",
"348 321 OFFCURVE",
"376 297 CURVE SMOOTH",
"404 272 OFFCURVE",
"422 231 OFFCURVE",
"422 195 CURVE SMOOTH",
"422 158 OFFCURVE",
"404 125 OFFCURVE",
"376 101 CURVE SMOOTH",
"348 77 OFFCURVE",
"308 63 OFFCURVE",
"267 63 CURVE SMOOTH",
"232 63 OFFCURVE",
"200 75 OFFCURVE",
"173 92 CURVE SMOOTH",
"146 109 OFFCURVE",
"124 133 OFFCURVE",
"111 160 CURVE",
"40 140 LINE",
"45 131 OFFCURVE",
"62 103 OFFCURVE",
"66 98 CURVE",
"106 34 OFFCURVE",
"182 -7 OFFCURVE",
"267 -7 CURVE SMOOTH"
);
}
);
width = 534;
}
);
note = three;
unicode = 0033;
},
{
glyphname = four;
lastChange = "2018-04-06 02:06:09 +0000";
layers = (
{
layerId = "D890DE10-725C-4894-AB83-5F7B73FFD58A";
paths = (
{
closed = 1;
nodes = (
"549 254 LINE",
"442 254 LINE",
"442 702 LINE",
"315 702 LINE",
"40 262 LINE",
"40 194 LINE",
"371 194 LINE",
"371 0 LINE",
"442 0 LINE",
"442 194 LINE",
"549 194 LINE"
);
},
{
closed = 1;
nodes = (
"112 254 LINE",
"349 631 LINE",
"371 631 LINE",
"371 254 LINE"
);
}
);
width = 589;
}
);
note = four;
unicode = 0034;
},
{
glyphname = five;
lastChange = "2018-04-06 02:06:09 +0000";
layers = (
{
layerId = "D890DE10-725C-4894-AB83-5F7B73FFD58A";
paths = (
{
closed = 1;
nodes = (
"316 -6 OFFCURVE",
"374 21 OFFCURVE",
"416 63 CURVE SMOOTH",
"458 105 OFFCURVE",
"483 163 OFFCURVE",
"483 227 CURVE SMOOTH",
"483 290 OFFCURVE",
"462 346 OFFCURVE",
"425 389 CURVE SMOOTH",
"385 436 OFFCURVE",
"330 460 OFFCURVE",
"269 460 CURVE SMOOTH",
"237 460 OFFCURVE",
"207 454 OFFCURVE",
"160 433 CURVE",
"175 633 LINE",
"464 633 LINE",
"464 700 LINE",
"108 700 LINE",
"84 367 LINE",
"153 341 LINE",
"184 372 OFFCURVE",
"224 391 OFFCURVE",
"269 391 CURVE SMOOTH",
"313 391 OFFCURVE",
"350 374 OFFCURVE",
"376 344 CURVE SMOOTH",
"402 314 OFFCURVE",
"416 272 OFFCURVE",
"416 227 CURVE SMOOTH",
"416 182 OFFCURVE",
"398 142 OFFCURVE",
"368 112 CURVE SMOOTH",
"338 82 OFFCURVE",
"296 63 OFFCURVE",
"252 63 CURVE SMOOTH",
"181 63 OFFCURVE",
"139 84 OFFCURVE",
"90 135 CURVE",
"40 85 LINE",
"100 22 OFFCURVE",
"160 -6 OFFCURVE",
"252 -6 CURVE SMOOTH"
);
}
);
width = 523;
}
);
note = five;
unicode = 0035;
},
{
glyphname = six;
lastChange = "2018-05-22 01:52:53 +0000";
layers = (
{
layerId = "D890DE10-725C-4894-AB83-5F7B73FFD58A";
paths = (
{
closed = 1;
nodes = (
"340 -7 OFFCURVE",
"399 18 OFFCURVE",
"443 61 CURVE SMOOTH",
"486 103 OFFCURVE",
"512 161 OFFCURVE",
"512 225 CURVE SMOOTH",
"512 289 OFFCURVE",
"486 349 OFFCURVE",
"443 391 CURVE SMOOTH",
"400 433 OFFCURVE",
"341 458 OFFCURVE",
"276 458 CURVE SMOOTH",
"241 458 OFFCURVE",
"203 448 OFFCURVE",
"161 418 CURVE",
"249 549 OFFCURVE",
"334 639 OFFCURVE",
"394 700 CURVE",
"297 700 LINE",
"286 687 OFFCURVE",
"274 673 OFFCURVE",
"261 659 CURVE SMOOTH",
"248 644 OFFCURVE",
"235 629 OFFCURVE",
"222 613 CURVE SMOOTH",
"98 457 OFFCURVE",
"40 336 OFFCURVE",
"40 225 CURVE SMOOTH",
"40 161 OFFCURVE",
"66 103 OFFCURVE",
"109 61 CURVE SMOOTH",
"152 19 OFFCURVE",
"210 -7 OFFCURVE",
"275 -7 CURVE SMOOTH"
);
},
{
closed = 1;
nodes = (
"323 388 OFFCURVE",
"365 370 OFFCURVE",
"394 341 CURVE SMOOTH",
"423 312 OFFCURVE",
"442 269 OFFCURVE",
"442 225 CURVE SMOOTH",
"442 181 OFFCURVE",
"423 140 OFFCURVE",
"394 111 CURVE SMOOTH",
"365 82 OFFCURVE",
"323 63 OFFCURVE",
"278 63 CURVE SMOOTH",
"233 63 OFFCURVE",
"192 82 OFFCURVE",
"162 111 CURVE SMOOTH",
"132 140 OFFCURVE",
"113 181 OFFCURVE",
"113 225 CURVE SMOOTH",
"113 269 OFFCURVE",
"132 312 OFFCURVE",
"162 341 CURVE SMOOTH",
"192 370 OFFCURVE",
"233 388 OFFCURVE",
"278 388 CURVE SMOOTH"
);
}
);
width = 552;
}
);
note = six;
unicode = 0036;
},
{
glyphname = seven;
lastChange = "2018-04-06 02:06:09 +0000";
layers = (
{
layerId = "D890DE10-725C-4894-AB83-5F7B73FFD58A";
paths = (
{
closed = 1;
nodes = (
"40 702 LINE",
"40 631 LINE",
"341 631 LINE",
"140 0 LINE",
"217 0 LINE",
"420 640 LINE",
"421 702 LINE"
);
}
);
width = 461;
}
);
note = seven;
unicode = 0037;
},
{
glyphname = eight;
lastChange = "2018-04-06 02:06:09 +0000";
layers = (
{
layerId = "D890DE10-725C-4894-AB83-5F7B73FFD58A";
paths = (
{
closed = 1;
nodes = (
"339 -5 OFFCURVE",
"397 19 OFFCURVE",
"438 56 CURVE SMOOTH",
"479 93 OFFCURVE",
"504 145 OFFCURVE",
"504 201 CURVE SMOOTH",
"504 268 OFFCURVE",
"463 326 OFFCURVE",
"391 375 CURVE",
"446 421 OFFCURVE",
"474 470 OFFCURVE",
"474 521 CURVE SMOOTH",
"474 572 OFFCURVE",
"452 618 OFFCURVE",
"416 651 CURVE SMOOTH",
"379 684 OFFCURVE",
"328 705 OFFCURVE",
"272 705 CURVE SMOOTH",
"216 705 OFFCURVE",
"166 684 OFFCURVE",
"130 651 CURVE SMOOTH",
"93 618 OFFCURVE",
"71 572 OFFCURVE",
"71 521 CURVE SMOOTH",
"71 469 OFFCURVE",
"101 420 OFFCURVE",
"154 375 CURVE",
"82 327 OFFCURVE",
"40 268 OFFCURVE",
"40 201 CURVE SMOOTH",
"40 145 OFFCURVE",
"64 93 OFFCURVE",
"105 56 CURVE SMOOTH",
"146 19 OFFCURVE",
"204 -5 OFFCURVE",
"272 -5 CURVE SMOOTH"
);
},
{
closed = 1;
nodes = (
"307 636 OFFCURVE",
"340 628 OFFCURVE",
"364 609 CURVE SMOOTH",
"388 589 OFFCURVE",
"404 561 OFFCURVE",
"404 521 CURVE SMOOTH",
"404 481 OFFCURVE",
"388 452 OFFCURVE",
"364 433 CURVE SMOOTH",
"340 414 OFFCURVE",
"307 405 OFFCURVE",
"272 405 CURVE SMOOTH",
"237 405 OFFCURVE",
"205 414 OFFCURVE",
"181 433 CURVE SMOOTH",
"157 452 OFFCURVE",
"141 481 OFFCURVE",
"141 521 CURVE SMOOTH",
"141 561 OFFCURVE",
"157 589 OFFCURVE",
"181 609 CURVE SMOOTH",
"205 628 OFFCURVE",
"237 636 OFFCURVE",
"272 636 CURVE SMOOTH"
);
},
{
closed = 1;
nodes = (
"315 336 OFFCURVE",
"355 325 OFFCURVE",
"385 303 CURVE SMOOTH",
"415 281 OFFCURVE",
"433 246 OFFCURVE",
"433 201 CURVE SMOOTH",
"433 154 OFFCURVE",
"415 121 OFFCURVE",
"385 98 CURVE SMOOTH",
"355 75 OFFCURVE",
"315 64 OFFCURVE",
"272 64 CURVE SMOOTH",
"229 64 OFFCURVE",
"189 75 OFFCURVE",
"160 98 CURVE SMOOTH",
"131 121 OFFCURVE",
"112 154 OFFCURVE",
"112 201 CURVE SMOOTH",
"112 246 OFFCURVE",
"131 279 OFFCURVE",
"160 302 CURVE SMOOTH",
"189 325 OFFCURVE",
"229 336 OFFCURVE",
"272 336 CURVE SMOOTH"
);
}
);
width = 544;
}
);
note = eight;
unicode = 0038;
},
{
glyphname = fraction;
lastChange = "2018-04-06 02:06:09 +0000";
layers = (
{
layerId = "D890DE10-725C-4894-AB83-5F7B73FFD58A";
paths = (
{
closed = 1;
nodes = (
"440 700 LINE",
"40 -6 LINE",
"106 -6 LINE",
"507 700 LINE"
);
}
);
width = 547;
}
);
note = fraction;
unicode = 2044;
},
{
glyphname = asterisk;
lastChange = "2018-04-12 21:53:01 +0000";
layers = (
{
layerId = "D890DE10-725C-4894-AB83-5F7B73FFD58A";
paths = (
{
closed = 1;
nodes = (
"234 548 LINE",
"338 606 LINE",
"318 640 LINE",
"216 581 LINE",
"216 700 LINE",
"176 700 LINE",
"176 578 LINE",
"68 634 LINE",
"50 598 LINE",
"155 545 LINE",
"53 488 LINE",
"73 455 LINE",
"176 515 LINE",
"176 395 LINE",
"216 395 LINE",
"216 516 LINE",
"323 461 LINE",
"341 496 LINE"
);
}
);
width = 391;
}
);
note = asterisk;
unicode = 002A;
},
{
glyphname = backslash;
lastChange = "2018-04-12 21:53:01 +0000";
layers = (
{
layerId = "D890DE10-725C-4894-AB83-5F7B73FFD58A";
paths = (
{
closed = 1;
nodes = (
"100 700 LINE",
"35 700 LINE",
"400 -104 LINE",
"464 -104 LINE"
);
}
);
width = 499;
}
);
note = backslash;
unicode = 005C;
},
{
glyphname = periodcentered;
lastChange = "2018-04-12 21:53:01 +0000";
layers = (
{
layerId = "D890DE10-725C-4894-AB83-5F7B73FFD58A";
paths = (
{
closed = 1;
nodes = (
"121 267 OFFCURVE",
"142 288 OFFCURVE",
"142 313 CURVE SMOOTH",
"142 338 OFFCURVE",
"121 359 OFFCURVE",
"96 359 CURVE SMOOTH",
"71 359 OFFCURVE",
"50 338 OFFCURVE",
"50 313 CURVE SMOOTH",
"50 288 OFFCURVE",
"71 267 OFFCURVE",
"96 267 CURVE SMOOTH"
);
}
);
width = 192;
}
);
note = periodcentered;
unicode = 00B7;
},
{
glyphname = bullet;
lastChange = "2018-04-12 21:53:01 +0000";
layers = (
{
layerId = "D890DE10-725C-4894-AB83-5F7B73FFD58A";
paths = (
{
closed = 1;
nodes = (
"148 222 OFFCURVE",
"168 231 OFFCURVE",
"182 245 CURVE SMOOTH",
"195 258 OFFCURVE",
"204 277 OFFCURVE",
"204 299 CURVE SMOOTH",
"204 320 OFFCURVE",
"195 340 OFFCURVE",
"182 354 CURVE",
"168 367 OFFCURVE",
"148 376 OFFCURVE",
"127 376 CURVE SMOOTH",
"105 376 OFFCURVE",
"86 367 OFFCURVE",
"73 354 CURVE SMOOTH",
"59 340 OFFCURVE",
"50 320 OFFCURVE",
"50 299 CURVE SMOOTH",
"50 277 OFFCURVE",
"59 258 OFFCURVE",
"73 245 CURVE",
"86 231 OFFCURVE",
"105 222 OFFCURVE",
"127 222 CURVE SMOOTH"
);
}
);
width = 254;
}
);
note = bullet;
unicode = 2022;
},
{
glyphname = colon;
lastChange = "2018-04-06 02:06:09 +0000";
layers = (
{
layerId = "D890DE10-725C-4894-AB83-5F7B73FFD58A";
paths = (
{
closed = 1;
nodes = (
"122 365 OFFCURVE",
"143 386 OFFCURVE",
"143 411 CURVE SMOOTH",
"143 436 OFFCURVE",
"122 457 OFFCURVE",
"97 457 CURVE SMOOTH",
"72 457 OFFCURVE",
"51 436 OFFCURVE",
"51 411 CURVE SMOOTH",
"51 386 OFFCURVE",
"72 365 OFFCURVE",
"97 365 CURVE SMOOTH"
);
},
{
closed = 1;
nodes = (
"121 -1 OFFCURVE",
"142 20 OFFCURVE",
"142 45 CURVE SMOOTH",
"142 70 OFFCURVE",
"121 91 OFFCURVE",
"96 91 CURVE SMOOTH",
"71 91 OFFCURVE",
"50 70 OFFCURVE",
"50 45 CURVE SMOOTH",
"50 20 OFFCURVE",
"71 -1 OFFCURVE",
"96 -1 CURVE SMOOTH"
);
}
);
width = 193;
}
);
note = colon;
unicode = 003A;
},
{
glyphname = comma;
lastChange = "2018-04-12 21:53:01 +0000";
layers = (
{
layerId = "D890DE10-725C-4894-AB83-5F7B73FFD58A";
paths = (
{
closed = 1;
nodes = (
"20 20 OFFCURVE",
"45 -5 OFFCURVE",
"78 -4 CURVE",
"69 -52 OFFCURVE",
"55 -92 OFFCURVE",
"49 -106 CURVE",
"72 -116 LINE",
"82 -93 OFFCURVE",
"131 15 OFFCURVE",
"132 48 CURVE",
"135 77 OFFCURVE",
"108 108 OFFCURVE",
"77 108 CURVE SMOOTH",
"45 108 OFFCURVE",
"20 82 OFFCURVE",
"20 52 CURVE SMOOTH"
);
}
);
width = 172;
}
);
note = comma;
unicode = 002C;
},
{
glyphname = ellipsis;
lastChange = "2018-04-06 02:06:09 +0000";
layers = (
{
layerId = "D890DE10-725C-4894-AB83-5F7B73FFD58A";
paths = (
{
closed = 1;
nodes = (
"111 -4 OFFCURVE",
"132 17 OFFCURVE",
"132 42 CURVE SMOOTH",
"132 67 OFFCURVE",
"111 88 OFFCURVE",
"86 88 CURVE SMOOTH",
"61 88 OFFCURVE",
"40 67 OFFCURVE",
"40 42 CURVE SMOOTH",
"40 17 OFFCURVE",
"61 -4 OFFCURVE",
"86 -4 CURVE SMOOTH"
);
},
{
closed = 1;
nodes = (
"316 -4 OFFCURVE",
"337 17 OFFCURVE",
"337 42 CURVE SMOOTH",
"337 67 OFFCURVE",
"316 88 OFFCURVE",
"291 88 CURVE SMOOTH",
"266 88 OFFCURVE",
"245 67 OFFCURVE",
"245 42 CURVE SMOOTH",
"245 17 OFFCURVE",
"266 -4 OFFCURVE",
"291 -4 CURVE SMOOTH"
);
},
{
closed = 1;
nodes = (
"515 -4 OFFCURVE",
"536 17 OFFCURVE",
"536 42 CURVE SMOOTH",
"536 67 OFFCURVE",
"515 88 OFFCURVE",
"490 88 CURVE SMOOTH",
"465 88 OFFCURVE",
"444 67 OFFCURVE",
"444 42 CURVE SMOOTH",
"444 17 OFFCURVE",
"465 -4 OFFCURVE",
"490 -4 CURVE SMOOTH"
);
}
);
width = 576;
}
);
note = ellipsis;
unicode = 2026;
},
{
glyphname = exclam;
lastChange = "2018-04-06 02:06:09 +0000";
layers = (
{
layerId = "D890DE10-725C-4894-AB83-5F7B73FFD58A";
paths = (
{
closed = 1;
nodes = (
"62 700 LINE",
"67 174 LINE",
"127 174 LINE",
"132 700 LINE"
);
},
{
closed = 1;
nodes = (
"121 -2 OFFCURVE",
"142 19 OFFCURVE",
"142 44 CURVE SMOOTH",
"142 69 OFFCURVE",
"121 90 OFFCURVE",
"96 90 CURVE SMOOTH",
"71 90 OFFCURVE",
"50 69 OFFCURVE",
"50 44 CURVE SMOOTH",
"50 19 OFFCURVE",
"71 -2 OFFCURVE",
"96 -2 CURVE SMOOTH"
);
}
);
width = 192;
}
);
note = exclam;
unicode = 0021;
},
{
glyphname = numbersign;
lastChange = "2018-04-06 02:06:09 +0000";
layers = (
{
layerId = "D890DE10-725C-4894-AB83-5F7B73FFD58A";
paths = (
{
closed = 1;
nodes = (
"595 506 LINE",
"646 697 LINE",
"578 697 LINE",
"525 507 LINE",
"332 507 LINE",
"382 697 LINE",
"316 697 LINE",
"265 507 LINE",
"100 508 LINE",
"100 443 LINE",
"247 443 LINE",
"198 259 LINE",
"40 259 LINE",
"40 195 LINE",
"180 195 LINE",
"128 1 LINE",
"195 1 LINE",
"247 195 LINE",
"439 194 LINE",
"385 1 LINE",
"459 1 LINE",
"511 194 LINE",
"679 194 LINE",
"679 257 LINE",
"528 257 LINE",
"577 442 LINE",
"738 442 LINE",
"739 506 LINE"
);
},
{
closed = 1;
nodes = (
"457 258 LINE",
"264 258 LINE",
"314 443 LINE",
"508 442 LINE"
);
}
);
width = 779;
}
);
note = numbersign;
unicode = 0023;
},
{
glyphname = period;
lastChange = "2018-04-12 21:53:01 +0000";
layers = (
{
layerId = "D890DE10-725C-4894-AB83-5F7B73FFD58A";
paths = (
{
closed = 1;
nodes = (
"81 -5 OFFCURVE",
"102 16 OFFCURVE",
"102 41 CURVE SMOOTH",
"102 66 OFFCURVE",
"81 87 OFFCURVE",
"56 87 CURVE SMOOTH",
"31 87 OFFCURVE",
"10 66 OFFCURVE",
"10 41 CURVE SMOOTH",
"10 16 OFFCURVE",
"31 -5 OFFCURVE",
"56 -5 CURVE SMOOTH"
);
}
);
width = 152;
}
);
note = period;
unicode = 002E;
},
{
glyphname = question;
lastChange = "2018-04-12 21:53:01 +0000";
layers = (
{
layerId = "D890DE10-725C-4894-AB83-5F7B73FFD58A";
paths = (
{
closed = 1;
nodes = (
"490 375 OFFCURVE",
"518 423 OFFCURVE",
"521 491 CURVE SMOOTH",
"522 552 OFFCURVE",
"499 605 OFFCURVE",
"459 644 CURVE SMOOTH",
"418 683 OFFCURVE",
"360 705 OFFCURVE",
"292 708 CURVE SMOOTH",
"147 713 OFFCURVE",
"57 649 OFFCURVE",
"50 528 CURVE",
"117 528 LINE",
"119 550 OFFCURVE",
"125 569 OFFCURVE",
"136 585 CURVE SMOOTH",
"157 616 OFFCURVE",
"190 636 OFFCURVE",
"230 645 CURVE SMOOTH",
"269 653 OFFCURVE",
"309 651 OFFCURVE",
"349 638 CURVE SMOOTH",
"389 625 OFFCURVE",
"422 599 OFFCURVE",
"442 561 CURVE SMOOTH",
"461 523 OFFCURVE",
"458 469 OFFCURVE",
"447 438 CURVE SMOOTH",
"436 406 OFFCURVE",
"419 384 OFFCURVE",
"396 369 CURVE SMOOTH",
"363 347 OFFCURVE",
"320 336 OFFCURVE",
"291 320 CURVE SMOOTH",
"271 309 OFFCURVE",
"254 296 OFFCURVE",
"243 275 CURVE SMOOTH",
"232 254 OFFCURVE",
"227 232 OFFCURVE",
"226 185 CURVE",
"292 185 LINE",
"292 206 OFFCURVE",
"293 222 OFFCURVE",
"296 234 CURVE",
"300 258 OFFCURVE",
"318 269 OFFCURVE",
"373 293 CURVE",
"397 304 OFFCURVE",
"422 317 OFFCURVE",
"445 336 CURVE SMOOTH"
);
},
{
closed = 1;
nodes = (
"284 -8 OFFCURVE",
"305 13 OFFCURVE",
"305 38 CURVE SMOOTH",
"305 63 OFFCURVE",
"284 84 OFFCURVE",
"259 84 CURVE SMOOTH",
"234 84 OFFCURVE",
"213 63 OFFCURVE",
"213 38 CURVE SMOOTH",
"213 13 OFFCURVE",
"234 -8 OFFCURVE",
"259 -8 CURVE SMOOTH"
);
}
);
width = 571;
}
);
note = question;
unicode = 003F;
},
{
glyphname = quotedbl;
lastChange = "2018-04-06 02:06:09 +0000";
layers = (
{
layerId = "D890DE10-725C-4894-AB83-5F7B73FFD58A";
paths = (
{
closed = 1;
nodes = (
"193 700 LINE",
"198 463 LINE",
"253 463 LINE",
"258 700 LINE"
);
},
{
closed = 1;
nodes = (
"40 700 LINE",
"45 463 LINE",
"100 463 LINE",
"105 700 LINE"
);
}
);
width = 298;
}
);
note = quotedbl;
unicode = 0022;
},
{
glyphname = quotesingle;
lastChange = "2018-04-06 02:06:09 +0000";
layers = (
{
layerId = "D890DE10-725C-4894-AB83-5F7B73FFD58A";
paths = (
{
closed = 1;
nodes = (
"40 700 LINE",
"45 463 LINE",
"100 463 LINE",
"105 700 LINE"
);
}
);
width = 145;
}
);
note = quotesingle;
unicode = 0027;
},
{
glyphname = semicolon;
lastChange = "2018-04-12 21:53:01 +0000";
layers = (
{
layerId = "D890DE10-725C-4894-AB83-5F7B73FFD58A";
paths = (
{
closed = 1;
nodes = (
"101 365 OFFCURVE",
"122 386 OFFCURVE",
"122 411 CURVE SMOOTH",
"122 436 OFFCURVE",
"101 457 OFFCURVE",
"76 457 CURVE SMOOTH",
"51 457 OFFCURVE",
"30 436 OFFCURVE",
"30 411 CURVE SMOOTH",
"30 386 OFFCURVE",
"51 365 OFFCURVE",
"76 365 CURVE SMOOTH"
);
},
{
closed = 1;
nodes = (
"30 18 OFFCURVE",
"51 -3 OFFCURVE",
"78 -2 CURVE",
"70 -41 OFFCURVE",
"59 -74 OFFCURVE",
"54 -86 CURVE",
"73 -94 LINE",
"81 -75 OFFCURVE",
"121 14 OFFCURVE",
"122 41 CURVE",
"125 65 OFFCURVE",
"102 90 OFFCURVE",
"77 90 CURVE SMOOTH",
"51 90 OFFCURVE",
"30 69 OFFCURVE",
"30 44 CURVE SMOOTH"
);
}
);
width = 172;
}
);
note = semicolon;
unicode = 003B;
},
{
glyphname = slash;
lastChange = "2018-04-12 21:53:01 +0000";
layers = (
{
layerId = "D890DE10-725C-4894-AB83-5F7B73FFD58A";
paths = (
{
closed = 1;
nodes = (
"399 700 LINE",
"35 -104 LINE",
"99 -104 LINE",
"464 700 LINE"
);
}
);
width = 499;
}
);
note = slash;
unicode = 002F;
},
{
glyphname = underscore;
lastChange = "2018-04-10 03:23:02 +0000";
layers = (
{
layerId = "D890DE10-725C-4894-AB83-5F7B73FFD58A";
paths = (
{
closed = 1;
nodes = (
"545 -73 LINE",
"50 -73 LINE",
"50 -123 LINE",
"545 -123 LINE"
);
}
);
width = 595;
}
);
note = underscore;
unicode = 005F;
},
{
glyphname = braceleft;
lastChange = "2018-04-12 21:53:01 +0000";
layers = (
{
layerId = "D890DE10-725C-4894-AB83-5F7B73FFD58A";
paths = (
{
closed = 1;
nodes = (
"276 -141 LINE",
"276 -93 LINE",
"208 -93 LINE",
"167 -88 OFFCURVE",
"171 -35 OFFCURVE",
"171 17 CURVE SMOOTH",
"171 181 OFFCURVE",
"202 250 OFFCURVE",
"108 285 CURVE",
"200 324 OFFCURVE",
"171 383 OFFCURVE",
"171 554 CURVE SMOOTH",
"171 606 OFFCURVE",
"167 659 OFFCURVE",
"207 664 CURVE",
"276 664 LINE",
"276 712 LINE",
"207 712 LINE SMOOTH",
"181 712 OFFCURVE",
"171 708 OFFCURVE",
"148 687 CURVE",
"120 658 OFFCURVE",
"105 614 OFFCURVE",
"105 554 CURVE SMOOTH",
"105 329 OFFCURVE",
"117 309 OFFCURVE",
"50 308 CURVE",
"50 263 LINE",
"116 262 OFFCURVE",
"105 242 OFFCURVE",
"105 17 CURVE SMOOTH",
"105 -43 OFFCURVE",
"120 -87 OFFCURVE",
"148 -116 CURVE",
"171 -137 OFFCURVE",
"181 -141 OFFCURVE",
"207 -141 CURVE SMOOTH"
);
}
);
width = 316;
}
);
note = braceleft;
unicode = 007B;
},
{
glyphname = bracketleft;
lastChange = "2018-04-06 02:06:09 +0000";
layers = (
{
layerId = "D890DE10-725C-4894-AB83-5F7B73FFD58A";
paths = (
{
closed = 1;
nodes = (
"237 -85 LINE",
"113 -85 LINE",
"113 634 LINE",
"237 634 LINE",
"237 698 LINE",
"50 698 LINE",
"50 -147 LINE",
"237 -147 LINE"
);
}
);
width = 277;
}
);
note = bracketleft;
unicode = 005B;
},
{
glyphname = bracketright;
lastChange = "2018-04-06 02:06:09 +0000";
layers = (
{
layerId = "D890DE10-725C-4894-AB83-5F7B73FFD58A";
paths = (
{
closed = 1;
nodes = (
"227 698 LINE",
"40 698 LINE",
"40 634 LINE",
"164 634 LINE",
"164 -85 LINE",
"40 -85 LINE",
"40 -147 LINE",
"227 -147 LINE"
);
}
);
width = 277;
}
);
note = bracketright;
unicode = 005D;
},
{
glyphname = parenleft;
lastChange = "2018-04-12 21:53:01 +0000";
layers = (
{
layerId = "D890DE10-725C-4894-AB83-5F7B73FFD58A";
paths = (
{
closed = 1;
nodes = (
"164 -1 OFFCURVE",
"112 144 OFFCURVE",
"112 315 CURVE SMOOTH",
"112 479 OFFCURVE",
"169 620 OFFCURVE",
"252 705 CURVE",
"182 705 LINE",
"101 613 OFFCURVE",
"50 490 OFFCURVE",
"50 315 CURVE SMOOTH",
"50 230 OFFCURVE",
"57 173 OFFCURVE",
"79 104 CURVE SMOOTH",
"99 39 OFFCURVE",
"132 -30 OFFCURVE",
"184 -90 CURVE",
"252 -90 LINE"
);
}
);
width = 292;
}
);
note = parenleft;
unicode = 0028;
},
{
glyphname = parenright;
lastChange = "2018-04-12 21:53:01 +0000";
layers = (
{
layerId = "D890DE10-725C-4894-AB83-5F7B73FFD58A";
paths = (
{
closed = 1;
nodes = (
"160 -30 OFFCURVE",
"193 39 OFFCURVE",
"214 104 CURVE SMOOTH",
"234 170 OFFCURVE",
"242 228 OFFCURVE",
"242 315 CURVE SMOOTH",
"242 490 OFFCURVE",
"191 613 OFFCURVE",
"110 705 CURVE",
"40 705 LINE",
"123 620 OFFCURVE",
"180 479 OFFCURVE",
"180 315 CURVE SMOOTH",
"180 144 OFFCURVE",
"128 -1 OFFCURVE",
"40 -90 CURVE",
"108 -90 LINE"
);
}
);
width = 292;
}
);
note = parenright;
unicode = 0029;
},
{
glyphname = emdash;
lastChange = "2018-04-12 21:53:01 +0000";
layers = (
{
layerId = "D890DE10-725C-4894-AB83-5F7B73FFD58A";
paths = (
{
closed = 1;
nodes = (
"926 335 LINE",
"20 335 LINE",
"20 265 LINE",
"926 265 LINE"
);
}
);
width = 946;
}
);
note = emdash;
unicode = 2014;
},
{
glyphname = endash;
lastChange = "2018-04-06 02:06:09 +0000";
layers = (
{
layerId = "D890DE10-725C-4894-AB83-5F7B73FFD58A";
paths = (
{
closed = 1;
nodes = (
"545 335 LINE",
"50 335 LINE",
"50 265 LINE",
"545 265 LINE"
);
}
);
width = 595;
}
);
note = endash;
unicode = 2013;
},
{
glyphname = hyphen;
lastChange = "2018-04-06 02:06:09 +0000";
layers = (
{
layerId = "D890DE10-725C-4894-AB83-5F7B73FFD58A";
paths = (
{
closed = 1;
nodes = (
"400 335 LINE",
"50 335 LINE",
"50 265 LINE",
"400 265 LINE"
);
}
);
width = 450;
}
);
note = hyphen;
unicode = 002D;
},
{
glyphname = guillemotleft;
lastChange = "2018-04-12 21:53:01 +0000";
layers = (
{
layerId = "D890DE10-725C-4894-AB83-5F7B73FFD58A";
paths = (
{
closed = 1;
nodes = (
"275 130 LINE",
"116 269 LINE",
"275 410 LINE",
"275 482 LINE",
"30 272 LINE",
"275 58 LINE"
);
},
{
closed = 1;
nodes = (
"494 130 LINE",
"335 269 LINE",
"494 410 LINE",
"494 482 LINE",
"249 272 LINE",
"494 58 LINE"
);
}
);
width = 534;
}
);
note = guillemotleft;
unicode = 00AB;
},
{
glyphname = guilsinglleft;
lastChange = "2018-04-12 21:53:01 +0000";
layers = (
{
layerId = "D890DE10-725C-4894-AB83-5F7B73FFD58A";
paths = (
{
closed = 1;
nodes = (
"287 131 LINE",
"116 269 LINE",
"287 410 LINE",
"287 482 LINE",
"30 272 LINE",
"287 58 LINE"
);
}
);
width = 327;
}
);
note = guilsinglleft;
unicode = 2039;
},
{
glyphname = quotedblbase;
lastChange = "2018-04-12 21:53:01 +0000";
layers = (
{
layerId = "D890DE10-725C-4894-AB83-5F7B73FFD58A";
paths = (
{
closed = 1;
nodes = (
"20 20 OFFCURVE",
"45 -5 OFFCURVE",
"78 -4 CURVE",
"69 -52 OFFCURVE",
"55 -92 OFFCURVE",
"49 -106 CURVE",
"72 -116 LINE",
"82 -93 OFFCURVE",
"131 15 OFFCURVE",
"132 48 CURVE",
"135 77 OFFCURVE",
"108 108 OFFCURVE",
"77 108 CURVE SMOOTH",
"45 108 OFFCURVE",
"20 82 OFFCURVE",
"20 52 CURVE SMOOTH"
);
},
{
closed = 1;
nodes = (
"183 20 OFFCURVE",
"208 -5 OFFCURVE",
"241 -4 CURVE",
"232 -52 OFFCURVE",
"218 -92 OFFCURVE",
"212 -106 CURVE",
"235 -116 LINE",
"245 -93 OFFCURVE",
"294 15 OFFCURVE",
"295 48 CURVE",
"298 77 OFFCURVE",
"271 108 OFFCURVE",
"240 108 CURVE SMOOTH",
"208 108 OFFCURVE",
"183 82 OFFCURVE",
"183 52 CURVE SMOOTH"
);
}
);
width = 315;
}
);
note = quotedblbase;
unicode = 201E;
},
{
glyphname = quotedblleft;
lastChange = "2018-04-12 21:53:01 +0000";
layers = (
{
layerId = "D890DE10-725C-4894-AB83-5F7B73FFD58A";
paths = (
{
closed = 1;
nodes = (
"295 564 OFFCURVE",
"270 589 OFFCURVE",
"237 588 CURVE",
"246 636 OFFCURVE",
"260 676 OFFCURVE",
"266 690 CURVE",
"243 700 LINE",
"233 677 OFFCURVE",
"184 569 OFFCURVE",
"183 536 CURVE",
"180 507 OFFCURVE",
"207 476 OFFCURVE",
"238 476 CURVE SMOOTH",
"270 476 OFFCURVE",
"295 502 OFFCURVE",
"295 532 CURVE SMOOTH"
);
},
{
closed = 1;
nodes = (
"132 564 OFFCURVE",
"107 589 OFFCURVE",
"74 588 CURVE",
"83 636 OFFCURVE",
"97 676 OFFCURVE",
"103 690 CURVE",
"80 700 LINE",
"70 677 OFFCURVE",
"21 569 OFFCURVE",
"20 536 CURVE",
"17 507 OFFCURVE",
"44 476 OFFCURVE",
"75 476 CURVE SMOOTH",
"107 476 OFFCURVE",
"132 502 OFFCURVE",
"132 532 CURVE SMOOTH"
);
}
);
width = 315;
}
);
note = quotedblleft;
unicode = 201C;
},
{
glyphname = quotedblright;
lastChange = "2018-04-12 21:53:01 +0000";
layers = (
{
layerId = "D890DE10-725C-4894-AB83-5F7B73FFD58A";
paths = (
{
closed = 1;
nodes = (
"20 612 OFFCURVE",
"45 587 OFFCURVE",
"78 588 CURVE",
"69 540 OFFCURVE",
"55 500 OFFCURVE",
"49 486 CURVE",
"72 476 LINE",
"82 499 OFFCURVE",
"131 607 OFFCURVE",
"132 640 CURVE",
"135 669 OFFCURVE",
"108 700 OFFCURVE",
"77 700 CURVE SMOOTH",
"45 700 OFFCURVE",
"20 674 OFFCURVE",
"20 644 CURVE SMOOTH"
);
},
{
closed = 1;
nodes = (
"183 612 OFFCURVE",
"208 587 OFFCURVE",
"241 588 CURVE",
"232 540 OFFCURVE",
"218 500 OFFCURVE",
"212 486 CURVE",
"235 476 LINE",
"245 499 OFFCURVE",
"294 607 OFFCURVE",
"295 640 CURVE",
"298 669 OFFCURVE",
"271 700 OFFCURVE",
"240 700 CURVE SMOOTH",
"208 700 OFFCURVE",
"183 674 OFFCURVE",
"183 644 CURVE SMOOTH"
);
}
);
width = 315;
}
);
note = quotedblright;
unicode = 201D;
},
{
glyphname = quoteleft;
lastChange = "2018-04-12 21:53:01 +0000";
layers = (
{
layerId = "D890DE10-725C-4894-AB83-5F7B73FFD58A";
paths = (
{
closed = 1;
nodes = (
"132 564 OFFCURVE",
"107 589 OFFCURVE",
"74 588 CURVE",
"83 636 OFFCURVE",
"97 676 OFFCURVE",
"103 690 CURVE",
"80 700 LINE",
"70 677 OFFCURVE",
"21 569 OFFCURVE",
"20 536 CURVE",
"17 507 OFFCURVE",
"44 476 OFFCURVE",
"75 476 CURVE SMOOTH",
"107 476 OFFCURVE",
"132 502 OFFCURVE",
"132 532 CURVE SMOOTH"
);
}
);
width = 152;
}
);
note = quoteleft;
unicode = 2018;
},
{
glyphname = quoteright;
lastChange = "2018-04-12 21:53:01 +0000";
layers = (
{
layerId = "D890DE10-725C-4894-AB83-5F7B73FFD58A";
paths = (
{
closed = 1;
nodes = (
"20 612 OFFCURVE",
"45 587 OFFCURVE",
"78 588 CURVE",
"69 540 OFFCURVE",
"55 500 OFFCURVE",
"49 486 CURVE",
"72 476 LINE",
"82 499 OFFCURVE",
"131 607 OFFCURVE",
"132 640 CURVE",
"135 669 OFFCURVE",
"108 700 OFFCURVE",
"77 700 CURVE SMOOTH",
"45 700 OFFCURVE",
"20 674 OFFCURVE",
"20 644 CURVE SMOOTH"
);
}
);
width = 152;
}
);
note = quoteright;
unicode = 2019;
},
{
glyphname = quotesinglbase;
lastChange = "2018-04-12 21:53:01 +0000";
layers = (
{
layerId = "D890DE10-725C-4894-AB83-5F7B73FFD58A";
paths = (
{
closed = 1;
nodes = (
"20 25 OFFCURVE",
"45 0 OFFCURVE",
"78 1 CURVE",
"69 -47 OFFCURVE",
"55 -87 OFFCURVE",
"49 -101 CURVE",
"72 -111 LINE",
"82 -88 OFFCURVE",
"131 20 OFFCURVE",
"132 53 CURVE",
"135 82 OFFCURVE",
"108 113 OFFCURVE",
"77 113 CURVE SMOOTH",
"45 113 OFFCURVE",
"20 87 OFFCURVE",
"20 57 CURVE SMOOTH"
);
}
);
width = 152;
}
);
note = quotesinglbase;
unicode = 201A;
},
{
glyphname = cent;
lastChange = "2018-04-06 02:06:09 +0000";
layers = (
{
layerId = "D890DE10-725C-4894-AB83-5F7B73FFD58A";
paths = (
{
closed = 1;
nodes = (
"380 93 OFFCURVE",
"427 115 OFFCURVE",
"460 150 CURVE",
"422 200 LINE",
"409 188 OFFCURVE",
"386 175 OFFCURVE",
"355 167 CURVE SMOOTH",
"323 159 OFFCURVE",
"285 155 OFFCURVE",
"240 163 CURVE SMOOTH",
"156 178 OFFCURVE",
"111 245 OFFCURVE",
"111 348 CURVE SMOOTH",
"111 449 OFFCURVE",
"156 516 OFFCURVE",
"240 531 CURVE SMOOTH",
"285 539 OFFCURVE",
"323 536 OFFCURVE",
"355 528 CURVE",
"386 519 OFFCURVE",
"409 506 OFFCURVE",
"422 494 CURVE",
"460 545 LINE",
"427 578 OFFCURVE",
"380 602 OFFCURVE",
"304 606 CURVE",
"304 672 LINE",
"250 672 LINE",
"250 604 LINE",
"220 599 LINE SMOOTH",
"109 580 OFFCURVE",
"40 489 OFFCURVE",
"40 348 CURVE SMOOTH",
"40 204 OFFCURVE",
"109 114 OFFCURVE",
"220 95 CURVE SMOOTH",
"250 90 LINE",
"250 30 LINE",
"304 30 LINE",
"304 89 LINE"
);
}
);
width = 500;
}
);
note = cent;
unicode = 00A2;
},
{
glyphname = currency;
lastChange = "2018-04-12 21:53:01 +0000";
layers = (
{
layerId = "D890DE10-725C-4894-AB83-5F7B73FFD58A";
paths = (
{
closed = 1;
nodes = (
"484 199 LINE",
"515 244 OFFCURVE",
"531 290 OFFCURVE",
"531 337 CURVE SMOOTH",
"531 385 OFFCURVE",
"515 430 OFFCURVE",
"483 477 CURVE",
"576 570 LINE",
"540 606 LINE",
"446 513 LINE",
"400 545 OFFCURVE",
"354 561 OFFCURVE",
"308 561 CURVE SMOOTH",
"262 561 OFFCURVE",
"216 545 OFFCURVE",
"170 513 CURVE",
"77 607 LINE",
"40 570 LINE",
"133 477 LINE",
"101 430 OFFCURVE",
"85 385 OFFCURVE",
"85 337 CURVE SMOOTH",
"85 290 OFFCURVE",
"101 244 OFFCURVE",
"132 199 CURVE",
"40 107 LINE",
"77 70 LINE",
"169 162 LINE",
"215 130 OFFCURVE",
"261 114 OFFCURVE",
"308 114 CURVE SMOOTH",
"355 114 OFFCURVE",
"402 130 OFFCURVE",
"447 163 CURVE",
"540 71 LINE",
"576 107 LINE"
);
},
{
closed = 1;
nodes = (
"353 500 OFFCURVE",
"394 483 OFFCURVE",
"424 453 CURVE SMOOTH",
"454 423 OFFCURVE",
"471 382 OFFCURVE",
"471 337 CURVE SMOOTH",
"471 292 OFFCURVE",
"454 252 OFFCURVE",
"424 222 CURVE SMOOTH",
"394 192 OFFCURVE",
"353 174 OFFCURVE",
"308 174 CURVE SMOOTH",
"263 174 OFFCURVE",
"223 192 OFFCURVE",
"193 222 CURVE SMOOTH",
"163 252 OFFCURVE",
"145 292 OFFCURVE",
"145 337 CURVE SMOOTH",
"145 382 OFFCURVE",
"163 423 OFFCURVE",
"193 453 CURVE SMOOTH",
"223 483 OFFCURVE",
"263 500 OFFCURVE",
"308 500 CURVE SMOOTH"
);
}
);
width = 616;
}
);
note = currency;
unicode = 00A4;
},
{
glyphname = dollar;
lastChange = "2018-04-06 02:06:09 +0000";
layers = (
{
components = (
{
name = S;
transform = "{1, 0, 0, 1, 0, 3}";
}
);
layerId = "D890DE10-725C-4894-AB83-5F7B73FFD58A";
paths = (
{
closed = 1;
nodes = (
"307 744 LINE",
"242 744 LINE",
"242 -46 LINE",
"307 -46 LINE"
);
}
);
width = 549;
}
);
note = dollar;
unicode = 0024;
},
{
glyphname = euro;
lastChange = "2018-05-02 01:52:22 +0000";
layers = (
{
layerId = "D890DE10-725C-4894-AB83-5F7B73FFD58A";
paths = (
{
closed = 1;
nodes = (
"500 63 LINE",
"448 63 LINE SMOOTH",
"312 63 OFFCURVE",
"226 131 OFFCURVE",
"179 247 CURVE",
"422 247 LINE",
"422 294 LINE",
"169 294 LINE",
"165 321 OFFCURVE",
"164 335 OFFCURVE",
"164 350 CURVE SMOOTH",
"164 366 OFFCURVE",
"165 382 OFFCURVE",
"169 410 CURVE",
"422 410 LINE",
"422 456 LINE",
"179 456 LINE",
"227 571 OFFCURVE",
"315 637 OFFCURVE",
"448 637 CURVE SMOOTH",
"500 637 LINE",
"500 705 LINE",
"448 705 LINE SMOOTH",
"359 705 OFFCURVE",
"285 680 OFFCURVE",
"228 637 CURVE SMOOTH",
"171 593 OFFCURVE",
"131 531 OFFCURVE",
"110 456 CURVE",
"40 456 LINE",
"40 410 LINE",
"100 410 LINE",
"97 381 OFFCURVE",
"97 365 OFFCURVE",
"97 350 CURVE SMOOTH",
"97 335 OFFCURVE",
"97 322 OFFCURVE",
"100 294 CURVE",
"40 294 LINE",
"40 247 LINE",
"110 247 LINE",
"130 172 OFFCURVE",
"170 109 OFFCURVE",
"227 65 CURVE SMOOTH",
"284 21 OFFCURVE",
"357 -5 OFFCURVE",
"448 -5 CURVE SMOOTH",
"500 -5 LINE"
);
}
);
width = 550;
}
);
note = Euro;
unicode = 20AC;
},
{
glyphname = sterling;
lastChange = "2018-04-12 21:53:01 +0000";
layers = (
{
layerId = "D890DE10-725C-4894-AB83-5F7B73FFD58A";
paths = (
{
closed = 1;
nodes = (
"252 623 OFFCURVE",
"282 631 OFFCURVE",
"318 634 CURVE SMOOTH",
"354 637 OFFCURVE",
"392 633 OFFCURVE",
"432 628 CURVE",
"432 693 LINE",
"386 700 OFFCURVE",
"339 701 OFFCURVE",
"298 697 CURVE SMOOTH",
"252 691 OFFCURVE",
"217 680 OFFCURVE",
"194 663 CURVE",
"152 634 OFFCURVE",
"126 593 OFFCURVE",
"119 543 CURVE",
"106 472 OFFCURVE",
"133 439 OFFCURVE",
"144 376 CURVE",
"62 376 LINE",
"62 322 LINE",
"145 322 LINE",
"137 243 OFFCURVE",
"110 159 OFFCURVE",
"40 64 CURVE",
"40 -2 LINE",
"427 -2 LINE",
"427 56 LINE",
"103 56 LINE",
"105 53 LINE",
"118 77 OFFCURVE",
"131 99 OFFCURVE",
"142 119 CURVE SMOOTH",
"153 138 OFFCURVE",
"164 158 OFFCURVE",
"174 179 CURVE SMOOTH",
"194 220 OFFCURVE",
"205 263 OFFCURVE",
"211 322 CURVE",
"350 322 LINE",
"350 376 LINE",
"212 376 LINE",
"208 399 OFFCURVE",
"204 413 OFFCURVE",
"200 426 CURVE",
"180 482 OFFCURVE",
"179 523 OFFCURVE",
"188 551 CURVE SMOOTH",
"196 578 OFFCURVE",
"211 597 OFFCURVE",
"232 610 CURVE SMOOTH"
);
}
);
width = 477;
}
);
note = sterling;
unicode = 00A3;
},
{
glyphname = yen;
lastChange = "2018-04-06 02:06:09 +0000";
layers = (
{
layerId = "D890DE10-725C-4894-AB83-5F7B73FFD58A";
paths = (
{
closed = 1;
nodes = (
"528 702 LINE",
"324 308 LINE",
"120 702 LINE",
"40 702 LINE",
"249 311 LINE",
"85 311 LINE",
"85 246 LINE",
"289 246 LINE",
"289 152 LINE",
"85 152 LINE",
"85 87 LINE",
"289 87 LINE",
"289 0 LINE",
"360 0 LINE",
"360 87 LINE",
"563 87 LINE",
"563 152 LINE",
"360 152 LINE",
"360 246 LINE",
"563 246 LINE",
"563 311 LINE",
"401 311 LINE",
"608 702 LINE"
);
}
);
width = 648;
}
);
note = yen;
unicode = 00A5;
},
{
glyphname = plus;
lastChange = "2018-04-06 02:06:09 +0000";
layers = (
{
layerId = "D890DE10-725C-4894-AB83-5F7B73FFD58A";
paths = (
{
closed = 1;
nodes = (
"545 326 LINE",
"328 326 LINE",
"328 544 LINE",
"268 544 LINE",
"268 326 LINE",
"50 326 LINE",
"50 266 LINE",
"268 266 LINE",
"268 49 LINE",
"328 49 LINE",
"328 266 LINE",
"545 266 LINE"
);
}
);
width = 595;
}
);
note = plus;
unicode = 002B;
},
{
glyphname = minus;
lastChange = "2018-04-06 02:06:09 +0000";
layers = (
{
layerId = "D890DE10-725C-4894-AB83-5F7B73FFD58A";
paths = (
{
closed = 1;
nodes = (
"520 323 LINE",
"50 323 LINE",
"50 263 LINE",
"520 263 LINE"
);
}
);
width = 570;
}
);
note = minus;
unicode = 2212;
},
{
glyphname = multiply;
lastChange = "2018-04-06 02:06:09 +0000";
layers = (
{
layerId = "D890DE10-725C-4894-AB83-5F7B73FFD58A";
paths = (
{
closed = 1;
nodes = (
"405 494 LINE",
"249 339 LINE",
"92 495 LINE",
"50 452 LINE",
"206 296 LINE",
"51 140 LINE",
"94 98 LINE",
"249 253 LINE",
"404 98 LINE",
"446 141 LINE",
"292 296 LINE",
"447 452 LINE"
);
}
);
width = 497;
}
);
note = multiply;
unicode = 00D7;
},
{
glyphname = divide;
lastChange = "2018-04-12 23:05:27 +0000";
layers = (
{
layerId = "D890DE10-725C-4894-AB83-5F7B73FFD58A";
paths = (
{
closed = 1;
nodes = (
"310 407 OFFCURVE",
"330 426 OFFCURVE",
"330 452 CURVE SMOOTH",
"330 477 OFFCURVE",
"310 497 OFFCURVE",
"285 497 CURVE SMOOTH",
"260 497 OFFCURVE",
"240 477 OFFCURVE",
"240 452 CURVE SMOOTH",
"240 426 OFFCURVE",
"260 407 OFFCURVE",
"285 407 CURVE SMOOTH"
);
},
{
closed = 1;
nodes = (
"519 323 LINE",
"50 323 LINE",
"50 263 LINE",
"519 263 LINE"
);
},
{
closed = 1;
nodes = (
"310 86 OFFCURVE",
"330 106 OFFCURVE",
"330 131 CURVE SMOOTH",
"330 157 OFFCURVE",
"310 176 OFFCURVE",
"285 176 CURVE SMOOTH",
"260 176 OFFCURVE",
"240 157 OFFCURVE",
"240 131 CURVE SMOOTH",
"240 106 OFFCURVE",
"260 86 OFFCURVE",
"285 86 CURVE SMOOTH"
);
}
);
width = 569;
}
);
note = divide;
unicode = 00F7;
},
{
glyphname = equal;
lastChange = "2018-04-06 02:06:09 +0000";
layers = (
{
layerId = "D890DE10-725C-4894-AB83-5F7B73FFD58A";
paths = (
{
closed = 1;
nodes = (
"520 424 LINE",
"50 424 LINE",
"50 364 LINE",
"520 364 LINE"
);
},
{
closed = 1;
nodes = (
"520 224 LINE",
"50 224 LINE",
"50 164 LINE",
"520 164 LINE"
);
}
);
width = 570;
}
);
note = equal;
unicode = 003D;
},
{
glyphname = notequal;
lastChange = "2018-04-06 02:06:09 +0000";
layers = (
{
layerId = "D890DE10-725C-4894-AB83-5F7B73FFD58A";
paths = (
{
closed = 1;
nodes = (
"529 429 LINE",
"371 429 LINE",
"417 544 LINE",
"358 544 LINE",
"312 429 LINE",
"53 429 LINE",
"53 368 LINE",
"286 368 LINE",
"229 226 LINE",
"50 226 LINE",
"50 165 LINE",
"204 165 LINE",
"158 49 LINE",
"217 49 LINE",
"263 165 LINE",
"526 165 LINE",
"526 226 LINE",
"288 226 LINE",
"345 368 LINE",
"529 368 LINE"
);
}
);
width = 579;
}
);
note = notequal;
unicode = 2260;
},
{
glyphname = less;
lastChange = "2018-04-06 02:06:09 +0000";
layers = (
{
layerId = "D890DE10-725C-4894-AB83-5F7B73FFD58A";
paths = (
{
closed = 1;
nodes = (
"40 234 LINE",
"467 23 LINE",
"467 96 LINE",
"113 269 LINE",
"467 441 LINE",
"467 516 LINE",
"40 304 LINE"
);
}
);
width = 507;
}
);
note = less;
unicode = 003C;
},
{
glyphname = lessequal;
lastChange = "2018-04-06 02:06:09 +0000";
layers = (
{
layerId = "D890DE10-725C-4894-AB83-5F7B73FFD58A";
paths = (
{
closed = 1;
nodes = (
"40 283 LINE",
"466 151 LINE",
"466 221 LINE",
"102 323 LINE",
"466 429 LINE",
"467 500 LINE",
"40 362 LINE"
);
},
{
closed = 1;
nodes = (
"466 60 LINE",
"40 60 LINE",
"40 0 LINE",
"466 0 LINE"
);
}
);
width = 507;
}
);
note = lessequal;
unicode = 2264;
},
{
glyphname = plusminus;
lastChange = "2018-04-12 21:53:01 +0000";
layers = (
{
layerId = "D890DE10-725C-4894-AB83-5F7B73FFD58A";
paths = (
{
closed = 1;
nodes = (
"520 350 LINE",
"315 350 LINE",
"315 440 LINE",
"255 440 LINE",
"255 350 LINE",
"50 350 LINE",
"50 290 LINE",
"255 290 LINE",
"255 199 LINE",
"315 199 LINE",
"315 290 LINE",
"520 290 LINE"
);
},
{
closed = 1;
nodes = (
"520 102 LINE",
"50 102 LINE",
"50 41 LINE",
"520 41 LINE"
);
}
);
width = 570;
}
);
note = plusminus;
unicode = 00B1;
},
{
glyphname = approxequal;
lastChange = "2018-04-12 21:53:01 +0000";
layers = (
{
layerId = "D890DE10-725C-4894-AB83-5F7B73FFD58A";
paths = (
{
closed = 1;
nodes = (
"434 323 OFFCURVE",
"468 338 OFFCURVE",
"493 363 CURVE SMOOTH",
"518 387 OFFCURVE",
"536 421 OFFCURVE",
"540 458 CURVE",
"485 458 LINE",
"478 405 OFFCURVE",
"434 374 OFFCURVE",
"382 382 CURVE",
"349 386 OFFCURVE",
"265 443 OFFCURVE",
"223 448 CURVE",
"179 456 OFFCURVE",
"136 442 OFFCURVE",
"102 417 CURVE SMOOTH",
"68 392 OFFCURVE",
"44 353 OFFCURVE",
"40 312 CURVE",
"98 312 LINE",
"102 337 OFFCURVE",
"118 359 OFFCURVE",
"139 374 CURVE SMOOTH",
"160 389 OFFCURVE",
"188 397 OFFCURVE",
"215 393 CURVE SMOOTH",
"222 392 OFFCURVE",
"229 390 OFFCURVE",
"236 387 CURVE SMOOTH",
"250 381 OFFCURVE",
"267 372 OFFCURVE",
"291 360 CURVE",
"303 353 OFFCURVE",
"315 347 OFFCURVE",
"328 342 CURVE",
"352 331 OFFCURVE",
"377 323 OFFCURVE",
"401 323 CURVE SMOOTH"
);
},
{
closed = 1;
nodes = (
"441 119 OFFCURVE",
"477 134 OFFCURVE",
"504 159 CURVE SMOOTH",
"531 183 OFFCURVE",
"551 217 OFFCURVE",
"555 253 CURVE",
"504 253 LINE",
"500 225 OFFCURVE",
"484 204 OFFCURVE",
"462 192 CURVE SMOOTH",
"440 179 OFFCURVE",
"413 173 OFFCURVE",
"389 177 CURVE SMOOTH",
"375 180 OFFCURVE",
"366 182 OFFCURVE",
"312 210 CURVE",
"281 226 OFFCURVE",
"253 240 OFFCURVE",
"230 244 CURVE SMOOTH",
"183 252 OFFCURVE",
"142 240 OFFCURVE",
"111 216 CURVE SMOOTH",
"80 191 OFFCURVE",
"60 153 OFFCURVE",
"56 106 CURVE",
"115 106 LINE",
"118 131 OFFCURVE",
"130 154 OFFCURVE",
"150 170 CURVE SMOOTH",
"169 185 OFFCURVE",
"193 192 OFFCURVE",
"221 188 CURVE",
"250 181 OFFCURVE",
"273 168 OFFCURVE",
"297 156 CURVE",
"327 138 OFFCURVE",
"375 119 OFFCURVE",
"408 119 CURVE SMOOTH"
);
}
);
width = 595;
}
);
note = approxequal;
unicode = 2248;
},
{
glyphname = asciitilde;
lastChange = "2018-04-06 02:06:09 +0000";
layers = (
{
layerId = "D890DE10-725C-4894-AB83-5F7B73FFD58A";
paths = (
{
closed = 1;
nodes = (
"464 202 OFFCURVE",
"497 220 OFFCURVE",
"524 249 CURVE SMOOTH",
"551 278 OFFCURVE",
"571 319 OFFCURVE",
"579 366 CURVE",
"512 366 LINE",
"499 303 OFFCURVE",
"467 263 OFFCURVE",
"407 272 CURVE",
"383 278 OFFCURVE",
"354 297 OFFCURVE",
"323 314 CURVE SMOOTH",
"288 333 OFFCURVE",
"256 350 OFFCURVE",
"231 355 CURVE",
"163 366 OFFCURVE",
"119 339 OFFCURVE",
"96 312 CURVE SMOOTH",
"67 279 OFFCURVE",
"47 243 OFFCURVE",
"40 187 CURVE",
"107 187 LINE",
"114 215 OFFCURVE",
"126 248 OFFCURVE",
"146 267 CURVE SMOOTH",
"172 293 OFFCURVE",
"210 297 OFFCURVE",
"245 284 CURVE SMOOTH",
"260 278 OFFCURVE",
"280 262 OFFCURVE",
"306 247 CURVE SMOOTH",
"319 239 OFFCURVE",
"332 232 OFFCURVE",
"346 225 CURVE SMOOTH",
"373 212 OFFCURVE",
"400 202 OFFCURVE",
"427 202 CURVE SMOOTH"
);
}
);
width = 619;
}
);
note = asciitilde;
unicode = 007E;
},
{
glyphname = logicalnot;
lastChange = "2018-04-06 02:06:09 +0000";
layers = (
{
layerId = "D890DE10-725C-4894-AB83-5F7B73FFD58A";
paths = (
{
closed = 1;
nodes = (
"468 320 LINE",
"40 320 LINE",
"40 259 LINE",
"410 259 LINE",
"410 85 LINE",
"468 85 LINE"
);
}
);
width = 518;
}
);
note = logicalnot;
unicode = 00AC;
},
{
glyphname = emptyset;
lastChange = "2018-04-06 02:06:09 +0000";
layers = (
{
layerId = "D890DE10-725C-4894-AB83-5F7B73FFD58A";
paths = (
{
closed = 1;
nodes = (
"431 35 OFFCURVE",
"508 69 OFFCURVE",
"564 125 CURVE SMOOTH",
"620 181 OFFCURVE",
"654 258 OFFCURVE",
"654 342 CURVE SMOOTH",
"654 413 OFFCURVE",
"630 479 OFFCURVE",
"581 542 CURVE",
"640 602 LINE",
"608 635 LINE",
"547 575 LINE",
"486 625 OFFCURVE",
"419 650 OFFCURVE",
"347 650 CURVE SMOOTH",
"263 650 OFFCURVE",
"186 615 OFFCURVE",
"130 559 CURVE SMOOTH",
"74 503 OFFCURVE",
"40 426 OFFCURVE",
"40 342 CURVE SMOOTH",
"40 271 OFFCURVE",
"65 205 OFFCURVE",
"114 142 CURVE",
"54 82 LINE",
"87 50 LINE",
"147 109 LINE",
"210 60 OFFCURVE",
"276 35 OFFCURVE",
"347 35 CURVE SMOOTH"
);
},
{
closed = 1;
nodes = (
"403 602 OFFCURVE",
"458 582 OFFCURVE",
"514 542 CURVE",
"149 177 LINE",
"108 231 OFFCURVE",
"87 286 OFFCURVE",
"87 343 CURVE SMOOTH",
"87 415 OFFCURVE",
"116 480 OFFCURVE",
"163 527 CURVE SMOOTH",
"211 573 OFFCURVE",
"275 602 OFFCURVE",
"347 602 CURVE"
);
},
{
closed = 1;
nodes = (
"589 452 OFFCURVE",
"607 401 OFFCURVE",
"607 343 CURVE SMOOTH",
"607 271 OFFCURVE",
"578 207 OFFCURVE",
"531 159 CURVE SMOOTH",
"483 112 OFFCURVE",
"419 83 OFFCURVE",
"347 83 CURVE SMOOTH",
"289 83 OFFCURVE",
"237 103 OFFCURVE",
"181 143 CURVE",
"546 508 LINE"
);
}
);
width = 694;
}
);
note = emptyset;
unicode = 2205;
},
{
glyphname = infinity;
lastChange = "2018-04-06 02:06:09 +0000";
layers = (
{
layerId = "D890DE10-725C-4894-AB83-5F7B73FFD58A";
paths = (
{
closed = 1;
nodes = (
"676 0 OFFCURVE",
"724 22 OFFCURVE",
"758 58 CURVE SMOOTH",
"792 93 OFFCURVE",
"813 142 OFFCURVE",
"813 195 CURVE SMOOTH",
"813 248 OFFCURVE",
"792 298 OFFCURVE",
"758 334 CURVE SMOOTH",
"724 369 OFFCURVE",
"676 391 OFFCURVE",
"624 391 CURVE SMOOTH",
"556 391 OFFCURVE",
"484 353 OFFCURVE",
"431 284 CURVE",
"379 352 OFFCURVE",
"307 391 OFFCURVE",
"239 391 CURVE SMOOTH",
"187 391 OFFCURVE",
"140 369 OFFCURVE",
"106 334 CURVE SMOOTH",
"72 298 OFFCURVE",
"50 248 OFFCURVE",
"50 195 CURVE SMOOTH",
"50 142 OFFCURVE",
"72 93 OFFCURVE",
"106 58 CURVE SMOOTH",
"140 22 OFFCURVE",
"187 0 OFFCURVE",
"239 0 CURVE SMOOTH",
"307 0 OFFCURVE",
"378 38 OFFCURVE",
"431 106 CURVE",
"484 38 OFFCURVE",
"556 0 OFFCURVE",
"624 0 CURVE SMOOTH"
);
},
{
closed = 1;
nodes = (
"660 331 OFFCURVE",
"693 316 OFFCURVE",
"717 292 CURVE SMOOTH",
"741 267 OFFCURVE",
"756 232 OFFCURVE",
"756 195 CURVE SMOOTH",
"756 158 OFFCURVE",
"741 123 OFFCURVE",
"717 99 CURVE SMOOTH",
"693 74 OFFCURVE",
"660 59 OFFCURVE",
"624 59 CURVE SMOOTH",
"580 59 OFFCURVE",
"539 78 OFFCURVE",
"509 104 CURVE SMOOTH",
"479 130 OFFCURVE",
"460 164 OFFCURVE",
"460 195 CURVE SMOOTH",
"460 227 OFFCURVE",
"479 261 OFFCURVE",
"509 287 CURVE SMOOTH",
"539 313 OFFCURVE",
"580 331 OFFCURVE",
"624 331 CURVE SMOOTH"
);
},
{
closed = 1;
nodes = (
"284 331 OFFCURVE",
"326 313 OFFCURVE",
"355 287 CURVE SMOOTH",
"384 261 OFFCURVE",
"403 227 OFFCURVE",
"403 195 CURVE SMOOTH",
"403 164 OFFCURVE",
"384 131 OFFCURVE",
"355 104 CURVE SMOOTH",
"326 77 OFFCURVE",
"284 59 OFFCURVE",
"239 59 CURVE SMOOTH",
"203 59 OFFCURVE",
"170 74 OFFCURVE",
"146 99 CURVE SMOOTH",
"122 123 OFFCURVE",
"107 158 OFFCURVE",
"107 195 CURVE SMOOTH",
"107 232 OFFCURVE",
"122 267 OFFCURVE",
"146 292 CURVE SMOOTH",
"170 316 OFFCURVE",
"203 331 OFFCURVE",
"239 331 CURVE SMOOTH"
);
}
);
width = 863;
}
);
note = infinity;
unicode = 221E;
},
{
glyphname = integral;
lastChange = "2018-04-06 02:06:09 +0000";
layers = (
{
layerId = "D890DE10-725C-4894-AB83-5F7B73FFD58A";
paths = (
{
closed = 1;
nodes = (
"517 707 LINE",
"440 707 LINE SMOOTH",
"388 707 OFFCURVE",
"354 678 OFFCURVE",
"327 613 CURVE SMOOTH",
"299 548 OFFCURVE",
"278 446 OFFCURVE",
"253 302 CURVE SMOOTH",
"236 202 OFFCURVE",
"219 106 OFFCURVE",
"199 33 CURVE SMOOTH",
"176 -47 OFFCURVE",
"145 -96 OFFCURVE",
"110 -96 CURVE SMOOTH",
"40 -96 LINE",
"40 -158 LINE",
"117 -158 LINE SMOOTH",
"148 -158 OFFCURVE",
"174 -147 OFFCURVE",
"195 -125 CURVE SMOOTH",
"235 -82 OFFCURVE",
"256 -10 OFFCURVE",
"269 39 CURVE SMOOTH",
"281 87 OFFCURVE",
"292 144 OFFCURVE",
"303 205 CURVE SMOOTH",
"308 236 OFFCURVE",
"314 267 OFFCURVE",
"320 300 CURVE SMOOTH",
"343 420 OFFCURVE",
"357 503 OFFCURVE",
"373 558 CURVE SMOOTH",
"389 610 OFFCURVE",
"408 645 OFFCURVE",
"447 645 CURVE SMOOTH",
"517 645 LINE"
);
}
);
width = 557;
}
);
note = integral;
unicode = 222B;
},
{
glyphname = product;
lastChange = "2018-04-06 02:06:09 +0000";
layers = (
{
layerId = "D890DE10-725C-4894-AB83-5F7B73FFD58A";
paths = (
{
closed = 1;
nodes = (
"535 700 LINE",
"40 700 LINE",
"40 643 LINE",
"152 643 LINE",
"152 -101 LINE",
"204 -101 LINE",
"204 643 LINE",
"382 643 LINE",
"382 -101 LINE",
"435 -101 LINE",
"435 643 LINE",
"535 643 LINE"
);
}
);
width = 575;
}
);
note = product;
unicode = 220F;
},
{
glyphname = summation;
lastChange = "2018-04-06 02:06:09 +0000";
layers = (
{
layerId = "D890DE10-725C-4894-AB83-5F7B73FFD58A";
paths = (
{
closed = 1;
nodes = (
"516 -37 LINE",
"123 -37 LINE",
"356 299 LINE",
"123 635 LINE",
"516 635 LINE",
"516 700 LINE",
"45 700 LINE",
"45 636 LINE",
"277 299 LINE",
"45 -38 LINE",
"45 -102 LINE",
"516 -102 LINE"
);
}
);
width = 561;
}
);
note = summation;
unicode = 2211;
},
{
glyphname = radical;
lastChange = "2018-04-12 21:53:01 +0000";
layers = (
{
layerId = "D890DE10-725C-4894-AB83-5F7B73FFD58A";
paths = (
{
closed = 1;
nodes = (
"576 700 LINE",
"352 700 LINE",
"197 -69 LINE",
"107 168 LINE",
"32 168 LINE",
"152 -148 LINE",
"247 -148 LINE",
"408 640 LINE",
"576 640 LINE"
);
}
);
width = 621;
}
);
note = radical;
unicode = 221A;
},
{
glyphname = partialdiff;
lastChange = "2018-04-06 02:06:09 +0000";
layers = (
{
layerId = "D890DE10-725C-4894-AB83-5F7B73FFD58A";
paths = (
{
closed = 1;
nodes = (
"313 -10 OFFCURVE",
"375 9 OFFCURVE",
"423 46 CURVE SMOOTH",
"470 82 OFFCURVE",
"503 136 OFFCURVE",
"511 199 CURVE SMOOTH",
"526 311 OFFCURVE",
"482 436 OFFCURVE",
"378 605 CURVE SMOOTH",
"367 622 OFFCURVE",
"356 639 OFFCURVE",
"345 655 CURVE SMOOTH",
"334 670 OFFCURVE",
"324 685 OFFCURVE",
"315 699 CURVE",
"227 700 LINE",
"239 684 OFFCURVE",
"253 666 OFFCURVE",
"268 646 CURVE SMOOTH",
"283 626 OFFCURVE",
"298 605 OFFCURVE",
"313 583 CURVE SMOOTH",
"333 555 OFFCURVE",
"352 527 OFFCURVE",
"374 492 CURVE SMOOTH",
"396 456 OFFCURVE",
"418 414 OFFCURVE",
"446 359 CURVE",
"367 456 OFFCURVE",
"262 455 OFFCURVE",
"186 434 CURVE SMOOTH",
"110 413 OFFCURVE",
"54 349 OFFCURVE",
"42 256 CURVE SMOOTH",
"34 193 OFFCURVE",
"54 133 OFFCURVE",
"91 86 CURVE SMOOTH",
"128 39 OFFCURVE",
"184 6 OFFCURVE",
"249 -2 CURVE SMOOTH"
);
},
{
closed = 1;
nodes = (
"341 383 OFFCURVE",
"380 360 OFFCURVE",
"406 328 CURVE SMOOTH",
"432 295 OFFCURVE",
"445 252 OFFCURVE",
"440 208 CURVE",
"433 164 OFFCURVE",
"410 125 OFFCURVE",
"377 101 CURVE SMOOTH",
"344 76 OFFCURVE",
"301 63 OFFCURVE",
"256 68 CURVE SMOOTH",
"212 73 OFFCURVE",
"174 96 OFFCURVE",
"148 129 CURVE SMOOTH",
"122 161 OFFCURVE",
"108 204 OFFCURVE",
"113 248 CURVE SMOOTH",
"118 292 OFFCURVE",
"142 330 OFFCURVE",
"175 355 CURVE SMOOTH",
"208 380 OFFCURVE",
"252 393 OFFCURVE",
"297 388 CURVE SMOOTH"
);
}
);
width = 554;
}
);
note = partialdiff;
unicode = 2202;
},
{
glyphname = percent;
lastChange = "2018-04-12 21:53:01 +0000";
layers = (
{
layerId = "D890DE10-725C-4894-AB83-5F7B73FFD58A";
paths = (
{
closed = 1;
nodes = (
"307 -1 LINE",
"616 701 LINE",
"553 701 LINE",
"244 -1 LINE"
);
},
{
closed = 1;
nodes = (
"234 414 OFFCURVE",
"270 430 OFFCURVE",
"296 456 CURVE SMOOTH",
"322 482 OFFCURVE",
"337 517 OFFCURVE",
"337 557 CURVE SMOOTH",
"337 597 OFFCURVE",
"322 633 OFFCURVE",
"296 659 CURVE SMOOTH",
"270 685 OFFCURVE",
"234 701 OFFCURVE",
"194 701 CURVE SMOOTH",
"154 701 OFFCURVE",
"118 685 OFFCURVE",
"92 659 CURVE SMOOTH",
"66 633 OFFCURVE",
"50 597 OFFCURVE",
"50 557 CURVE SMOOTH",
"50 517 OFFCURVE",
"66 482 OFFCURVE",
"92 456 CURVE SMOOTH",
"118 430 OFFCURVE",
"154 414 OFFCURVE",
"194 414 CURVE SMOOTH"
);
},
{
closed = 1;
nodes = (
"243 647 OFFCURVE",
"283 608 OFFCURVE",
"283 557 CURVE SMOOTH",
"283 508 OFFCURVE",
"243 468 OFFCURVE",
"194 468 CURVE SMOOTH",
"143 468 OFFCURVE",
"104 508 OFFCURVE",
"104 557 CURVE SMOOTH",
"104 608 OFFCURVE",
"143 647 OFFCURVE",
"194 647 CURVE SMOOTH"
);
},
{
closed = 1;
nodes = (
"712 -1 OFFCURVE",
"748 15 OFFCURVE",
"774 41 CURVE SMOOTH",
"800 67 OFFCURVE",
"815 102 OFFCURVE",
"815 142 CURVE SMOOTH",
"815 182 OFFCURVE",
"800 218 OFFCURVE",
"774 244 CURVE SMOOTH",
"748 270 OFFCURVE",
"712 286 OFFCURVE",
"672 286 CURVE SMOOTH",
"632 286 OFFCURVE",
"596 270 OFFCURVE",
"570 244 CURVE SMOOTH",
"544 218 OFFCURVE",
"528 182 OFFCURVE",
"528 142 CURVE SMOOTH",
"528 102 OFFCURVE",
"544 67 OFFCURVE",
"570 41 CURVE SMOOTH",
"596 15 OFFCURVE",
"632 -1 OFFCURVE",
"672 -1 CURVE SMOOTH"
);
},
{
closed = 1;
nodes = (
"721 232 OFFCURVE",
"761 193 OFFCURVE",
"761 142 CURVE SMOOTH",
"761 93 OFFCURVE",
"721 53 OFFCURVE",
"672 53 CURVE SMOOTH",
"621 53 OFFCURVE",
"582 93 OFFCURVE",
"582 142 CURVE SMOOTH",
"582 193 OFFCURVE",
"621 232 OFFCURVE",
"672 232 CURVE SMOOTH"
);
}
);
width = 865;
}
);
note = percent;
unicode = 0025;
},
{
glyphname = perthousand;
lastChange = "2018-04-12 21:53:01 +0000";
layers = (
{
layerId = "D890DE10-725C-4894-AB83-5F7B73FFD58A";
paths = (
{
closed = 1;
nodes = (
"307 -1 LINE",
"616 701 LINE",
"553 701 LINE",
"244 -1 LINE"
);
},
{
closed = 1;
nodes = (
"234 414 OFFCURVE",
"270 430 OFFCURVE",
"296 456 CURVE SMOOTH",
"322 482 OFFCURVE",
"337 517 OFFCURVE",
"337 557 CURVE SMOOTH",
"337 597 OFFCURVE",
"322 633 OFFCURVE",
"296 659 CURVE SMOOTH",
"270 685 OFFCURVE",
"234 701 OFFCURVE",
"194 701 CURVE SMOOTH",
"154 701 OFFCURVE",
"118 685 OFFCURVE",
"92 659 CURVE SMOOTH",
"66 633 OFFCURVE",
"50 597 OFFCURVE",
"50 557 CURVE SMOOTH",
"50 517 OFFCURVE",
"66 482 OFFCURVE",
"92 456 CURVE SMOOTH",
"118 430 OFFCURVE",
"154 414 OFFCURVE",
"194 414 CURVE SMOOTH"
);
},
{
closed = 1;
nodes = (
"243 647 OFFCURVE",
"283 608 OFFCURVE",
"283 557 CURVE SMOOTH",
"283 508 OFFCURVE",
"243 468 OFFCURVE",
"194 468 CURVE SMOOTH",
"143 468 OFFCURVE",
"104 508 OFFCURVE",
"104 557 CURVE SMOOTH",
"104 608 OFFCURVE",
"143 647 OFFCURVE",
"194 647 CURVE SMOOTH"
);
},
{
closed = 1;
nodes = (
"712 -1 OFFCURVE",
"748 15 OFFCURVE",
"774 41 CURVE SMOOTH",
"800 67 OFFCURVE",
"815 102 OFFCURVE",
"815 142 CURVE SMOOTH",
"815 182 OFFCURVE",
"800 218 OFFCURVE",
"774 244 CURVE SMOOTH",
"748 270 OFFCURVE",
"712 286 OFFCURVE",
"672 286 CURVE SMOOTH",
"632 286 OFFCURVE",
"596 270 OFFCURVE",
"570 244 CURVE SMOOTH",
"544 218 OFFCURVE",
"528 182 OFFCURVE",
"528 142 CURVE SMOOTH",
"528 102 OFFCURVE",
"544 67 OFFCURVE",
"570 41 CURVE SMOOTH",
"596 15 OFFCURVE",
"632 -1 OFFCURVE",
"672 -1 CURVE SMOOTH"
);
},
{
closed = 1;
nodes = (
"721 232 OFFCURVE",
"761 193 OFFCURVE",
"761 142 CURVE SMOOTH",
"761 93 OFFCURVE",
"721 53 OFFCURVE",
"672 53 CURVE SMOOTH",
"621 53 OFFCURVE",
"582 93 OFFCURVE",
"582 142 CURVE SMOOTH",
"582 193 OFFCURVE",
"621 232 OFFCURVE",
"672 232 CURVE SMOOTH"
);
},
{
closed = 1;
nodes = (
"1074 -1 OFFCURVE",
"1110 15 OFFCURVE",
"1136 41 CURVE SMOOTH",
"1162 67 OFFCURVE",
"1177 102 OFFCURVE",
"1177 142 CURVE SMOOTH",
"1177 182 OFFCURVE",
"1162 218 OFFCURVE",
"1136 244 CURVE SMOOTH",
"1110 270 OFFCURVE",
"1074 286 OFFCURVE",
"1034 286 CURVE SMOOTH",
"994 286 OFFCURVE",
"958 270 OFFCURVE",
"932 244 CURVE SMOOTH",
"906 218 OFFCURVE",
"890 182 OFFCURVE",
"890 142 CURVE SMOOTH",
"890 102 OFFCURVE",
"906 67 OFFCURVE",
"932 41 CURVE SMOOTH",
"958 15 OFFCURVE",
"994 -1 OFFCURVE",
"1034 -1 CURVE SMOOTH"
);
},
{
closed = 1;
nodes = (
"1083 232 OFFCURVE",
"1123 193 OFFCURVE",
"1123 142 CURVE SMOOTH",
"1123 93 OFFCURVE",
"1083 53 OFFCURVE",
"1034 53 CURVE SMOOTH",
"983 53 OFFCURVE",
"944 93 OFFCURVE",
"944 142 CURVE SMOOTH",
"944 193 OFFCURVE",
"983 232 OFFCURVE",
"1034 232 CURVE SMOOTH"
);
}
);
width = 1227;
}
);
note = perthousand;
unicode = 2030;
},
{
glyphname = lozenge;
lastChange = "2018-04-12 21:53:01 +0000";
layers = (
{
layerId = "D890DE10-725C-4894-AB83-5F7B73FFD58A";
paths = (
{
closed = 1;
nodes = (
"305 660 LINE",
"229 660 LINE",
"50 330 LINE",
"229 0 LINE",
"305 0 LINE",
"485 330 LINE"
);
},
{
closed = 1;
nodes = (
"268 56 LINE",
"120 330 LINE",
"268 604 LINE",
"415 330 LINE"
);
}
);
width = 535;
}
);
note = lozenge;
unicode = 25CA;
},
{
glyphname = at;
lastChange = "2018-04-06 02:06:09 +0000";
layers = (
{
layerId = "D890DE10-725C-4894-AB83-5F7B73FFD58A";
paths = (
{
closed = 1;
nodes = (
"791 57 OFFCURVE",
"821 147 OFFCURVE",
"817 291 CURVE SMOOTH",
"814 409 OFFCURVE",
"763 514 OFFCURVE",
"676 584 CURVE SMOOTH",
"595 650 OFFCURVE",
"493 678 OFFCURVE",
"391 663 CURVE SMOOTH",
"290 650 OFFCURVE",
"199 598 OFFCURVE",
"129 513 CURVE SMOOTH",
"63 432 OFFCURVE",
"32 329 OFFCURVE",
"42 225 CURVE SMOOTH",
"52 120 OFFCURVE",
"101 27 OFFCURVE",
"182 -36 CURVE SMOOTH",
"247 -88 OFFCURVE",
"330 -117 OFFCURVE",
"416 -117 CURVE SMOOTH",
"433 -117 OFFCURVE",
"448 -116 OFFCURVE",
"466 -115 CURVE",
"466 -54 LINE",
"376 -67 OFFCURVE",
"289 -43 OFFCURVE",
"218 13 CURVE SMOOTH",
"151 66 OFFCURVE",
"109 145 OFFCURVE",
"102 231 CURVE SMOOTH",
"94 319 OFFCURVE",
"121 407 OFFCURVE",
"177 476 CURVE SMOOTH",
"231 546 OFFCURVE",
"310 591 OFFCURVE",
"398 602 CURVE SMOOTH",
"488 613 OFFCURVE",
"573 590 OFFCURVE",
"639 536 CURVE SMOOTH",
"712 476 OFFCURVE",
"754 388 OFFCURVE",
"757 291 CURVE SMOOTH",
"760 172 OFFCURVE",
"735 98 OFFCURVE",
"697 69 CURVE SMOOTH",
"672 50 OFFCURVE",
"645 49 OFFCURVE",
"624 53 CURVE SMOOTH",
"604 57 OFFCURVE",
"590 72 OFFCURVE",
"589 100 CURVE",
"589 355 LINE SMOOTH",
"589 406 OFFCURVE",
"562 445 OFFCURVE",
"516 464 CURVE SMOOTH",
"471 481 OFFCURVE",
"415 479 OFFCURVE",
"362 458 CURVE SMOOTH",
"318 440 OFFCURVE",
"285 413 OFFCURVE",
"273 402 CURVE",
"311 361 LINE",
"324 372 OFFCURVE",
"353 390 OFFCURVE",
"387 403 CURVE SMOOTH",
"417 416 OFFCURVE",
"453 419 OFFCURVE",
"480 413 CURVE SMOOTH",
"512 405 OFFCURVE",
"529 384 OFFCURVE",
"529 351 CURVE SMOOTH",
"529 317 LINE",
"506 317 OFFCURVE",
"482 316 OFFCURVE",
"460 314 CURVE SMOOTH",
"435 312 OFFCURVE",
"412 310 OFFCURVE",
"398 307 CURVE",
"371 303 OFFCURVE",
"341 290 OFFCURVE",
"317 273 CURVE",
"281 246 OFFCURVE",
"265 215 OFFCURVE",
"265 177 CURVE SMOOTH",
"265 146 OFFCURVE",
"275 118 OFFCURVE",
"293 97 CURVE SMOOTH",
"311 75 OFFCURVE",
"340 64 OFFCURVE",
"377 64 CURVE SMOOTH",
"420 64 OFFCURVE",
"474 82 OFFCURVE",
"529 127 CURVE",
"529 117 LINE",
"529 65 LINE",
"537 -2 OFFCURVE",
"661 -17 OFFCURVE",
"726 20 CURVE SMOOTH"
);
},
{
closed = 1;
nodes = (
"503 161 OFFCURVE",
"467 143 OFFCURVE",
"433 133 CURVE SMOOTH",
"388 119 OFFCURVE",
"354 115 OFFCURVE",
"332 141 CURVE SMOOTH",
"327 147 OFFCURVE",
"324 160 OFFCURVE",
"324 177 CURVE SMOOTH",
"324 213 OFFCURVE",
"350 230 OFFCURVE",
"385 245 CURVE",
"453 271 OFFCURVE",
"473 267 OFFCURVE",
"530 274 CURVE",
"530 180 LINE"
);
}
);
width = 857;
}
);
note = at;
unicode = 0040;
},
{
glyphname = ampersand;
lastChange = "2018-04-17 04:01:45 +0000";
layers = (
{
layerId = "D890DE10-725C-4894-AB83-5F7B73FFD58A";
paths = (
{
closed = 1;
nodes = (
"544 126 LINE",
"587 184 OFFCURVE",
"597 271 OFFCURVE",
"597 358 CURVE",
"529 358 LINE",
"532 287 OFFCURVE",
"527 235 OFFCURVE",
"496 177 CURVE",
"422 258 OFFCURVE",
"229 474 OFFCURVE",
"211 505 CURVE SMOOTH",
"168 575 OFFCURVE",
"210 645 OFFCURVE",
"287 651 CURVE",
"355 653 OFFCURVE",
"377 639 OFFCURVE",
"403 582 CURVE",
"464 599 LINE",
"456 620 OFFCURVE",
"442 649 OFFCURVE",
"415 672 CURVE SMOOTH",
"388 695 OFFCURVE",
"348 712 OFFCURVE",
"287 712 CURVE SMOOTH",
"226 712 OFFCURVE",
"178 679 OFFCURVE",
"151 633 CURVE SMOOTH",
"98 543 OFFCURVE",
"138 489 OFFCURVE",
"205 410 CURVE",
"92 362 OFFCURVE",
"25 257 OFFCURVE",
"42 155 CURVE SMOOTH",
"72 -28 OFFCURVE",
"343 -70 OFFCURVE",
"497 79 CURVE",
"574 0 LINE",
"659 0 LINE"
);
},
{
closed = 1;
nodes = (
"308 286 OFFCURVE",
"370 219 OFFCURVE",
"457 126 CURVE",
"394 68 OFFCURVE",
"323 47 OFFCURVE",
"268 48 CURVE SMOOTH",
"212 48 OFFCURVE",
"167 72 OFFCURVE",
"139 108 CURVE SMOOTH",
"111 144 OFFCURVE",
"100 192 OFFCURVE",
"112 241 CURVE SMOOTH",
"124 289 OFFCURVE",
"175 327 OFFCURVE",
"240 363 CURVE"
);
}
);
width = 682;
}
);
note = ampersand;
unicode = 0026;
},
{
glyphname = paragraph;
lastChange = "2018-04-12 21:53:01 +0000";
layers = (
{
layerId = "D890DE10-725C-4894-AB83-5F7B73FFD58A";
paths = (
{
closed = 1;
nodes = (
"486 698 LINE",
"426 698 LINE",
"426 -58 LINE",
"486 -58 LINE"
);
},
{
closed = 1;
nodes = (
"357 698 LINE",
"189 698 LINE SMOOTH",
"149 698 OFFCURVE",
"111 681 OFFCURVE",
"84 654 CURVE SMOOTH",
"57 626 OFFCURVE",
"40 590 OFFCURVE",
"40 551 CURVE SMOOTH",
"40 511 OFFCURVE",
"56 474 OFFCURVE",
"84 448 CURVE SMOOTH",
"111 422 OFFCURVE",
"148 405 OFFCURVE",
"189 405 CURVE SMOOTH",
"220 405 OFFCURVE",
"249 414 OFFCURVE",
"296 445 CURVE",
"296 -58 LINE",
"357 -58 LINE"
);
}
);
width = 526;
}
);
note = paragraph;
unicode = 00B6;
},
{
glyphname = section;
lastChange = "2018-04-12 21:53:01 +0000";
layers = (
{
layerId = "D890DE10-725C-4894-AB83-5F7B73FFD58A";
paths = (
{
closed = 1;
nodes = (
"372 273 OFFCURVE",
"391 309 OFFCURVE",
"391 352 CURVE SMOOTH",
"391 403 OFFCURVE",
"350 445 OFFCURVE",
"306 465 CURVE",
"279 476 OFFCURVE",
"254 482 OFFCURVE",
"229 486 CURVE SMOOTH",
"201 491 OFFCURVE",
"172 500 OFFCURVE",
"150 513 CURVE SMOOTH",
"128 526 OFFCURVE",
"112 543 OFFCURVE",
"112 563 CURVE SMOOTH",
"112 588 OFFCURVE",
"125 612 OFFCURVE",
"145 629 CURVE SMOOTH",
"165 645 OFFCURVE",
"193 655 OFFCURVE",
"224 655 CURVE SMOOTH",
"263 655 OFFCURVE",
"304 634 OFFCURVE",
"332 614 CURVE",
"376 656 LINE",
"333 688 OFFCURVE",
"268 711 OFFCURVE",
"216 711 CURVE SMOOTH",
"168 711 OFFCURVE",
"125 695 OFFCURVE",
"90 663 CURVE SMOOTH",
"61 636 OFFCURVE",
"45 600 OFFCURVE",
"45 564 CURVE SMOOTH",
"45 548 OFFCURVE",
"49 531 OFFCURVE",
"58 512 CURVE SMOOTH",
"66 496 OFFCURVE",
"78 481 OFFCURVE",
"106 458 CURVE",
"59 425 OFFCURVE",
"40 389 OFFCURVE",
"40 346 CURVE SMOOTH",
"40 295 OFFCURVE",
"81 253 OFFCURVE",
"125 233 CURVE",
"152 222 OFFCURVE",
"177 216 OFFCURVE",
"202 212 CURVE SMOOTH",
"230 207 OFFCURVE",
"260 197 OFFCURVE",
"282 185 CURVE SMOOTH",
"304 172 OFFCURVE",
"319 155 OFFCURVE",
"319 135 CURVE SMOOTH",
"319 110 OFFCURVE",
"306 86 OFFCURVE",
"286 70 CURVE SMOOTH",
"266 53 OFFCURVE",
"238 43 OFFCURVE",
"207 43 CURVE SMOOTH",
"168 43 OFFCURVE",
"127 64 OFFCURVE",
"99 84 CURVE",
"55 42 LINE",
"98 10 OFFCURVE",
"163 -13 OFFCURVE",
"215 -13 CURVE SMOOTH",
"263 -13 OFFCURVE",
"306 3 OFFCURVE",
"341 35 CURVE SMOOTH",
"370 62 OFFCURVE",
"386 98 OFFCURVE",
"386 134 CURVE SMOOTH",
"386 150 OFFCURVE",
"382 167 OFFCURVE",
"373 186 CURVE SMOOTH",
"365 202 OFFCURVE",
"353 217 OFFCURVE",
"325 240 CURVE"
);
},
{
closed = 1;
nodes = (
"347 318 OFFCURVE",
"313 280 OFFCURVE",
"242 273 CURVE SMOOTH",
"210 269 OFFCURVE",
"174 277 OFFCURVE",
"147 293 CURVE",
"119 308 OFFCURVE",
"100 332 OFFCURVE",
"100 360 CURVE SMOOTH",
"100 397 OFFCURVE",
"136 433 OFFCURVE",
"191 433 CURVE SMOOTH",
"264 433 OFFCURVE",
"316 402 OFFCURVE",
"331 362 CURVE SMOOTH"
);
}
);
width = 431;
}
);
note = section;
unicode = 00A7;
},
{
glyphname = copyright;
lastChange = "2018-04-06 02:06:09 +0000";
layers = (
{
layerId = "D890DE10-725C-4894-AB83-5F7B73FFD58A";
paths = (
{
closed = 1;
nodes = (
"478 -3 OFFCURVE",
"563 36 OFFCURVE",
"625 100 CURVE SMOOTH",
"687 164 OFFCURVE",
"725 253 OFFCURVE",
"725 350 CURVE SMOOTH",
"725 447 OFFCURVE",
"687 536 OFFCURVE",
"625 600 CURVE SMOOTH",
"563 664 OFFCURVE",
"478 703 OFFCURVE",
"383 703 CURVE SMOOTH",
"288 703 OFFCURVE",
"203 664 OFFCURVE",
"141 600 CURVE SMOOTH",
"79 536 OFFCURVE",
"40 447 OFFCURVE",
"40 350 CURVE SMOOTH",
"40 253 OFFCURVE",
"79 164 OFFCURVE",
"141 100 CURVE SMOOTH",
"203 36 OFFCURVE",
"288 -3 OFFCURVE",
"383 -3 CURVE SMOOTH"
);
},
{
closed = 1;
nodes = (
"460 648 OFFCURVE",
"532 615 OFFCURVE",
"584 561 CURVE SMOOTH",
"635 506 OFFCURVE",
"668 432 OFFCURVE",
"668 350 CURVE SMOOTH",
"668 268 OFFCURVE",
"635 193 OFFCURVE",
"584 139 CURVE SMOOTH",
"532 85 OFFCURVE",
"460 52 OFFCURVE",
"383 52 CURVE SMOOTH",
"305 52 OFFCURVE",
"233 85 OFFCURVE",
"182 139 CURVE SMOOTH",
"130 193 OFFCURVE",
"97 268 OFFCURVE",
"97 350 CURVE SMOOTH",
"97 432 OFFCURVE",
"130 506 OFFCURVE",
"182 561 CURVE SMOOTH",
"233 615 OFFCURVE",
"305 648 OFFCURVE",
"383 648 CURVE SMOOTH"
);
},
{
closed = 1;
nodes = (
"383.345 149.723 OFFCURVE",
"468.408 154.166 OFFCURVE",
"517.981 205.777 CURVE",
"489.431 242.321 LINE",
"467.636 222.908 OFFCURVE",
"421.965 203.684 OFFCURVE",
"356.553 215.949 CURVE SMOOTH",
"294.447 227.593 OFFCURVE",
"259 275.89 OFFCURVE",
"259 351 CURVE SMOOTH",
"259 425.777 OFFCURVE",
"294.99 474.47 OFFCURVE",
"356.508 485.043 CURVE SMOOTH",
"421.885 496.28 OFFCURVE",
"467.66 476.023 OFFCURVE",
"489.539 458.817 CURVE",
"517.984 495.227 LINE",
"477.542 537.048 OFFCURVE",
"420.989 549.809 OFFCURVE",
"342.479 535.954 CURVE SMOOTH",
"257.934 520.102 OFFCURVE",
"207 449.789 OFFCURVE",
"207 351 CURVE SMOOTH",
"207 258.688 OFFCURVE",
"249.456 191.194 OFFCURVE",
"322.165 170.119 CURVE"
);
}
);
width = 765;
}
);
note = copyright;
unicode = 00A9;
},
{
glyphname = registered;
lastChange = "2018-04-06 02:06:09 +0000";
layers = (
{
layerId = "D890DE10-725C-4894-AB83-5F7B73FFD58A";
paths = (
{
closed = 1;
nodes = (
"324 322 OFFCURVE",
"406 406 OFFCURVE",
"406 511 CURVE SMOOTH",
"406 616 OFFCURVE",
"324 700 OFFCURVE",
"224 700 CURVE SMOOTH",
"122 700 OFFCURVE",
"40 616 OFFCURVE",
"40 511 CURVE SMOOTH",
"40 406 OFFCURVE",
"122 322 OFFCURVE",
"224 322 CURVE SMOOTH"
);
},
{
closed = 1;
nodes = (
"147 364 OFFCURVE",
"83 431 OFFCURVE",
"83 511 CURVE SMOOTH",
"83 591 OFFCURVE",
"147 657 OFFCURVE",
"224 657 CURVE SMOOTH",
"299 657 OFFCURVE",
"364 591 OFFCURVE",
"364 511 CURVE SMOOTH",
"364 431 OFFCURVE",
"299 364 OFFCURVE",
"224 364 CURVE SMOOTH"
);
},
{
closed = 1;
nodes = (
"200 421 LINE",
"200 491 LINE",
"213 491 LINE",
"255 421 LINE",
"300 421 LINE",
"254 496 LINE",
"274 506 OFFCURVE",
"287 528 OFFCURVE",
"287 549 CURVE SMOOTH",
"287 580 OFFCURVE",
"263 606 OFFCURVE",
"234 606 CURVE SMOOTH",
"162 606 LINE",
"162 421 LINE"
);
},
{
closed = 1;
nodes = (
"234 568 LINE SMOOTH",
"241 568 OFFCURVE",
"248 559 OFFCURVE",
"248 549 CURVE SMOOTH",
"248 539 OFFCURVE",
"241 529 OFFCURVE",
"233 529 CURVE SMOOTH",
"200 529 LINE",
"200 568 LINE"
);
}
);
width = 446;
}
);
note = registered;
unicode = 00AE;
},
{
glyphname = trademark;
lastChange = "2018-04-06 02:06:09 +0000";
layers = (
{
layerId = "D890DE10-725C-4894-AB83-5F7B73FFD58A";
paths = (
{
closed = 1;
nodes = (
"140 653 LINE",
"140 362 LINE",
"190 362 LINE",
"190 653 LINE",
"276 653 LINE",
"276 362 LINE",
"326 362 LINE",
"326 636 LINE",
"337 636 LINE",
"427 413 LINE",
"477 413 LINE",
"567 636 LINE",
"578 636 LINE",
"578 362 LINE",
"629 362 LINE",
"629 700 LINE",
"540 700 LINE",
"452 482 LINE",
"363 700 LINE",
"40 700 LINE",
"40 653 LINE"
);
}
);
width = 669;
}
);
note = trademark;
unicode = 2122;
},
{
glyphname = degree;
lastChange = "2018-04-06 02:06:09 +0000";
layers = (
{
layerId = "D890DE10-725C-4894-AB83-5F7B73FFD58A";
paths = (
{
closed = 1;
nodes = (
"224 412 OFFCURVE",
"260 428 OFFCURVE",
"286 454 CURVE SMOOTH",
"312 480 OFFCURVE",
"327 515 OFFCURVE",
"327 555 CURVE SMOOTH",
"327 595 OFFCURVE",
"312 631 OFFCURVE",
"286 657 CURVE SMOOTH",
"260 683 OFFCURVE",
"224 699 OFFCURVE",
"184 699 CURVE SMOOTH",
"144 699 OFFCURVE",
"108 683 OFFCURVE",
"82 657 CURVE SMOOTH",
"56 631 OFFCURVE",
"40 595 OFFCURVE",
"40 555 CURVE SMOOTH",
"40 515 OFFCURVE",
"56 480 OFFCURVE",
"82 454 CURVE SMOOTH",
"108 428 OFFCURVE",
"144 412 OFFCURVE",
"184 412 CURVE SMOOTH"
);
},
{
closed = 1;
nodes = (
"233 645 OFFCURVE",
"273 606 OFFCURVE",
"273 555 CURVE SMOOTH",
"273 506 OFFCURVE",
"233 466 OFFCURVE",
"184 466 CURVE SMOOTH",
"133 466 OFFCURVE",
"94 506 OFFCURVE",
"94 555 CURVE SMOOTH",
"94 606 OFFCURVE",
"133 645 OFFCURVE",
"184 645 CURVE SMOOTH"
);
}
);
width = 367;
}
);
note = degree;
unicode = 00B0;
},
{
glyphname = bar;
lastChange = "2018-04-06 02:06:09 +0000";
layers = (
{
layerId = "D890DE10-725C-4894-AB83-5F7B73FFD58A";
paths = (
{
closed = 1;
nodes = (
"115 698 LINE",
"50 698 LINE",
"50 -58 LINE",
"115 -58 LINE"
);
}
);
width = 165;
}
);
note = bar;
unicode = 007C;
},
{
glyphname = brokenbar;
lastChange = "2018-04-06 02:06:09 +0000";
layers = (
{
layerId = "D890DE10-725C-4894-AB83-5F7B73FFD58A";
paths = (
{
closed = 1;
nodes = (
"115 700 LINE",
"50 700 LINE",
"50 386 LINE",
"115 386 LINE"
);
},
{
closed = 1;
nodes = (
"115 177 LINE",
"50 177 LINE",
"50 -137 LINE",
"115 -137 LINE"
);
}
);
width = 165;
}
);
note = brokenbar;
unicode = 00A6;
},
{
glyphname = dagger;
lastChange = "2018-04-06 02:06:09 +0000";
layers = (
{
layerId = "D890DE10-725C-4894-AB83-5F7B73FFD58A";
paths = (
{
closed = 1;
nodes = (
"310 604 LINE",
"212 604 LINE",
"212 700 LINE",
"148 700 LINE",
"148 603 LINE",
"50 603 LINE",
"50 544 LINE",
"148 544 LINE",
"148 205 LINE",
"212 205 LINE",
"212 544 LINE",
"310 544 LINE"
);
}
);
width = 360;
}
);
note = dagger;
unicode = 2020;
},
{
glyphname = daggerdbl;
lastChange = "2018-04-06 02:06:09 +0000";
layers = (
{
layerId = "D890DE10-725C-4894-AB83-5F7B73FFD58A";
paths = (
{
closed = 1;
nodes = (
"310 372 LINE",
"212 372 LINE",
"212 534 LINE",
"310 534 LINE",
"310 594 LINE",
"212 594 LINE",
"212 701 LINE",
"148 701 LINE",
"148 593 LINE",
"50 593 LINE",
"50 534 LINE",
"148 534 LINE",
"148 372 LINE",
"50 372 LINE",
"50 312 LINE",
"148 312 LINE",
"148 206 LINE",
"212 206 LINE",
"212 313 LINE",
"310 313 LINE"
);
}
);
width = 360;
}
);
note = daggerdbl;
unicode = 2021;
},
{
glyphname = asciicircum;
lastChange = "2018-04-06 02:06:09 +0000";
layers = (
{
layerId = "D890DE10-725C-4894-AB83-5F7B73FFD58A";
paths = (
{
closed = 1;
nodes = (
"278 700 LINE",
"212 700 LINE",
"40 370 LINE",
"110 370 LINE",
"246 637 LINE",
"381 370 LINE",
"451 370 LINE"
);
}
);
width = 491;
}
);
note = asciicircum;
unicode = 005E;
},
{
glyphname = dieresiscomb;
lastChange = "2018-04-06 02:06:09 +0000";
layers = (
{
anchors = (
{
name = _top;
position = "{135, 560}";
},
{
name = top;
position = "{135, 700}";
}
);
layerId = "D890DE10-725C-4894-AB83-5F7B73FFD58A";
paths = (
{
closed = 1;
nodes = (
"90 680 OFFCURVE",
"70 700 OFFCURVE",
"45 700 CURVE SMOOTH",
"20 700 OFFCURVE",
"0 680 OFFCURVE",
"0 655 CURVE SMOOTH",
"0 630 OFFCURVE",
"20 610 OFFCURVE",
"45 610 CURVE SMOOTH",
"70 610 OFFCURVE",
"90 630 OFFCURVE",
"90 655 CURVE SMOOTH"
);
},
{
closed = 1;
nodes = (
"269 680 OFFCURVE",
"249 700 OFFCURVE",
"224 700 CURVE SMOOTH",
"199 700 OFFCURVE",
"179 680 OFFCURVE",
"179 655 CURVE SMOOTH",
"179 630 OFFCURVE",
"199 610 OFFCURVE",
"224 610 CURVE SMOOTH",
"249 610 OFFCURVE",
"269 630 OFFCURVE",
"269 655 CURVE SMOOTH"
);
}
);
width = 269;
}
);
unicode = 0308;
},
{
glyphname = dotaccentcomb;
lastChange = "2018-04-06 02:06:09 +0000";
layers = (
{
anchors = (
{
name = _top;
position = "{45, 560}";
},
{
name = top;
position = "{45, 700}";
}
);
layerId = "D890DE10-725C-4894-AB83-5F7B73FFD58A";
paths = (
{
closed = 1;
nodes = (
"90 680 OFFCURVE",
"70 700 OFFCURVE",
"45 700 CURVE SMOOTH",
"20 700 OFFCURVE",
"0 680 OFFCURVE",
"0 655 CURVE SMOOTH",
"0 630 OFFCURVE",
"20 610 OFFCURVE",
"45 610 CURVE SMOOTH",
"70 610 OFFCURVE",
"90 630 OFFCURVE",
"90 655 CURVE SMOOTH"
);
}
);
width = 90;
}
);
unicode = 0307;
},
{
glyphname = gravecomb;
lastChange = "2018-04-10 03:08:39 +0000";
layers = (
{
anchors = (
{
name = _top;
position = "{59, 560}";
},
{
name = top;
position = "{43, 739}";
}
);
layerId = "D890DE10-725C-4894-AB83-5F7B73FFD58A";
paths = (
{
closed = 1;
nodes = (
"0 739 LINE",
"38 606 LINE",
"91 606 LINE",
"66 739 LINE"
);
}
);
width = 91;
}
);
unicode = 0300;
},
{
glyphname = acutecomb;
lastChange = "2018-04-10 03:08:47 +0000";
layers = (
{
anchors = (
{
name = _top;
position = "{26, 560}";
},
{
name = top;
position = "{46, 739}";
}
);
layerId = "D890DE10-725C-4894-AB83-5F7B73FFD58A";
paths = (
{
closed = 1;
nodes = (
"0 606 LINE",
"53 606 LINE",
"91 739 LINE",
"25 739 LINE"
);
}
);
width = 91;
}
);
unicode = 0301;
},
{
glyphname = hungarumlautcomb;
lastChange = "2018-04-06 02:06:09 +0000";
layers = (
{
anchors = (
{
name = _top;
position = "{98, 550}";
},
{
name = top;
position = "{98, 739}";
}
);
layerId = "D890DE10-725C-4894-AB83-5F7B73FFD58A";
paths = (
{
closed = 1;
nodes = (
"0 606 LINE",
"48 606 LINE",
"87 739 LINE",
"26 739 LINE"
);
},
{
closed = 1;
nodes = (
"106 606 LINE",
"154 606 LINE",
"195 739 LINE",
"134 739 LINE"
);
}
);
width = 195;
}
);
unicode = 030B;
},
{
glyphname = circumflexcomb;
lastChange = "2018-04-06 02:06:09 +0000";
layers = (
{
anchors = (
{
name = _top;
position = "{125, 544}";
},
{
name = top;
position = "{125, 700}";
}
);
layerId = "D890DE10-725C-4894-AB83-5F7B73FFD58A";
paths = (
{
closed = 1;
nodes = (
"66 589 LINE",
"125 656 LINE",
"184 589 LINE",
"250 589 LINE",
"149 700 LINE",
"101 700 LINE",
"0 589 LINE"
);
}
);
width = 250;
}
);
unicode = 0302;
},
{
glyphname = caroncomb;
lastChange = "2018-04-06 02:06:09 +0000";
layers = (
{
anchors = (
{
name = _top;
position = "{125, 537}";
},
{
name = top;
position = "{125, 700}";
}
);
layerId = "D890DE10-725C-4894-AB83-5F7B73FFD58A";
paths = (
{
closed = 1;
nodes = (
"101 589 LINE",
"149 589 LINE",
"250 700 LINE",
"184 700 LINE",
"125 633 LINE",
"66 700 LINE",
"0 700 LINE"
);
}
);
width = 250;
}
);
unicode = 030C;
},
{
glyphname = brevecomb;
lastChange = "2018-04-06 02:06:09 +0000";
layers = (
{
anchors = (
{
name = _top;
position = "{115, 534}";
},
{
name = top;
position = "{115, 701}";
}
);
layerId = "D890DE10-725C-4894-AB83-5F7B73FFD58A";
paths = (
{
closed = 1;
nodes = (
"177 586 OFFCURVE",
"229 637 OFFCURVE",
"229 701 CURVE",
"180 701 LINE",
"180 664 OFFCURVE",
"150 635 OFFCURVE",
"114 635 CURVE",
"78 635 OFFCURVE",
"49 664 OFFCURVE",
"49 701 CURVE",
"0 701 LINE",
"0 637 OFFCURVE",
"51 586 OFFCURVE",
"114 586 CURVE"
);
}
);
width = 229;
}
);
unicode = 0306;
},
{
glyphname = ringcomb;
lastChange = "2018-04-06 02:06:09 +0000";
layers = (
{
anchors = (
{
name = _top;
position = "{73, 550}";
},
{
name = top;
position = "{73, 729}";
}
);
layerId = "D890DE10-725C-4894-AB83-5F7B73FFD58A";
paths = (
{
closed = 1;
nodes = (
"113 583 OFFCURVE",
"146 616 OFFCURVE",
"146 656 CURVE",
"146 695 OFFCURVE",
"113 729 OFFCURVE",
"73 729 CURVE",
"34 729 OFFCURVE",
"0 695 OFFCURVE",
"0 656 CURVE",
"0 616 OFFCURVE",
"34 583 OFFCURVE",
"73 583 CURVE"
);
},
{
closed = 1;
nodes = (
"56 624 OFFCURVE",
"41 637 OFFCURVE",
"41 656 CURVE",
"41 673 OFFCURVE",
"56 688 OFFCURVE",
"73 688 CURVE",
"92 688 OFFCURVE",
"105 673 OFFCURVE",
"105 656 CURVE",
"105 637 OFFCURVE",
"92 624 OFFCURVE",
"73 624 CURVE"
);
}
);
width = 146;
}
);
unicode = 030A;
},
{
glyphname = tildecomb;
lastChange = "2018-04-06 02:06:09 +0000";
layers = (
{
anchors = (
{
name = _top;
position = "{126, 555}";
},
{
name = top;
position = "{126, 702}";
}
);
layerId = "D890DE10-725C-4894-AB83-5F7B73FFD58A";
paths = (
{
closed = 1;
nodes = (
"116 598 OFFCURVE",
"174 598 CURVE SMOOTH",
"225 598 OFFCURVE",
"251 639 OFFCURVE",
"251 700 CURVE",
"197 700 LINE",
"197 683 OFFCURVE",
"195 650 OFFCURVE",
"174 650 CURVE SMOOTH",
"147 650 OFFCURVE",
"152 702 OFFCURVE",
"87 702 CURVE SMOOTH",
"37 702 OFFCURVE",
"0 660 OFFCURVE",
"0 599 CURVE",
"53 599 LINE",
"53 621 OFFCURVE",
"64 649 OFFCURVE",
"87 647 CURVE",
"119 643 OFFCURVE"
);
}
);
width = 251;
}
);
unicode = 0303;
},
{
glyphname = macroncomb;
lastChange = "2018-04-10 03:08:11 +0000";
layers = (
{
anchors = (
{
name = _top;
position = "{125, 572}";
},
{
name = top;
position = "{125, 700}";
}
);
layerId = "D890DE10-725C-4894-AB83-5F7B73FFD58A";
paths = (
{
closed = 1;
nodes = (
"0 640 LINE",
"250 640 LINE",
"250 700 LINE",
"0 700 LINE"
);
}
);
width = 250;
}
);
unicode = 0304;
},
{
glyphname = commaaccentcomb;
lastChange = "2018-04-12 21:53:01 +0000";
layers = (
{
anchors = (
{
name = _bottom;
position = "{34, 0}";
},
{
name = bottom;
position = "{34, -200}";
}
);
layerId = "D890DE10-725C-4894-AB83-5F7B73FFD58A";
paths = (
{
closed = 1;
nodes = (
"-17 -102 OFFCURVE",
"4 -123 OFFCURVE",
"31 -122 CURVE",
"24 -162 OFFCURVE",
"12 -195 OFFCURVE",
"7 -207 CURVE",
"26 -215 LINE",
"35 -196 OFFCURVE",
"75 -106 OFFCURVE",
"76 -79 CURVE",
"79 -55 OFFCURVE",
"56 -29 OFFCURVE",
"30 -29 CURVE SMOOTH",
"4 -29 OFFCURVE",
"-17 -51 OFFCURVE",
"-17 -76 CURVE SMOOTH"
);
}
);
width = 94;
}
);
unicode = 0326;
},
{
glyphname = cedillacomb;
lastChange = "2018-04-12 21:53:01 +0000";
layers = (
{
anchors = (
{
name = _bottom;
position = "{88, 0}";
},
{
name = bottom;
position = "{88, -175}";
}
);
layerId = "D890DE10-725C-4894-AB83-5F7B73FFD58A";
paths = (
{
closed = 1;
nodes = (
"209 -177 OFFCURVE",
"205 -9 OFFCURVE",
"81 -9 CURVE SMOOTH",
"79 -9 OFFCURVE",
"76 -9 OFFCURVE",
"72 -10 CURVE",
"73 -13 LINE",
"113 30 LINE",
"71 43 LINE",
"22 -24 LINE",
"22 -67 LINE",
"25 -69 LINE",
"49 -51 OFFCURVE",
"68 -51 OFFCURVE",
"81 -51 CURVE SMOOTH",
"138 -51 OFFCURVE",
"146 -134 OFFCURVE",
"76 -134 CURVE SMOOTH",
"58 -134 OFFCURVE",
"42 -123 OFFCURVE",
"34 -107 CURVE",
"0 -136 LINE",
"13 -160 OFFCURVE",
"45 -177 OFFCURVE",
"76 -177 CURVE SMOOTH"
);
}
);
width = 175;
}
);
unicode = 0327;
},
{
glyphname = ogonekcomb;
lastChange = "2018-04-06 02:06:09 +0000";
layers = (
{
anchors = (
{
name = _ogonek;
position = "{72, 10}";
}
);
layerId = "D890DE10-725C-4894-AB83-5F7B73FFD58A";
paths = (
{
closed = 1;
nodes = (
"150 -106 LINE",
"123 -125 OFFCURVE",
"91 -121 OFFCURVE",
"71 -96 CURVE",
"52 -72 OFFCURVE",
"57 -40 OFFCURVE",
"85 1 CURVE",
"88 5 OFFCURVE",
"90 7 OFFCURVE",
"92 11 CURVE",
"38 12 LINE",
"-4 -54 OFFCURVE",
"-8 -106 OFFCURVE",
"12 -134 CURVE",
"40 -168 OFFCURVE",
"117 -184 OFFCURVE",
"177 -142 CURVE"
);
}
);
width = 177;
}
);
unicode = 0328;
},
{
glyphname = strokeshortcomb;
lastChange = "2018-04-06 02:06:09 +0000";
layers = (
{
anchors = (
{
name = _center;
position = "{210, 314}";
}
);
layerId = "D890DE10-725C-4894-AB83-5F7B73FFD58A";
paths = (
{
closed = 1;
nodes = (
"0 284 LINE",
"420 284 LINE",
"420 344 LINE",
"0 344 LINE"
);
}
);
width = 420;
}
);
unicode = 0335;
},
{
glyphname = strokelongcomb;
lastChange = "2018-04-06 02:06:09 +0000";
layers = (
{
anchors = (
{
name = _center;
position = "{301, 314}";
}
);
layerId = "D890DE10-725C-4894-AB83-5F7B73FFD58A";
paths = (
{
closed = 1;
nodes = (
"0 284 LINE",
"601 284 LINE",
"601 344 LINE",
"0 344 LINE"
);
}
);
width = 601;
}
);
unicode = 0336;
},
{
glyphname = slashshortcomb;
lastChange = "2018-04-06 02:06:09 +0000";
layers = (
{
anchors = (
{
name = _center;
position = "{225, 282}";
}
);
layerId = "D890DE10-725C-4894-AB83-5F7B73FFD58A";
paths = (
{
closed = 1;
nodes = (
"69 0 LINE",
"450 564 LINE",
"380 564 LINE",
"0 0 LINE"
);
}
);
width = 450;
}
);
unicode = 0337;
},
{
glyphname = slashlongcomb;
lastChange = "2018-04-06 02:06:09 +0000";
layers = (
{
anchors = (
{
name = _center;
position = "{272, 341}";
}
);
layerId = "D890DE10-725C-4894-AB83-5F7B73FFD58A";
paths = (
{
closed = 1;
nodes = (
"69 -83 LINE",
"543 764 LINE",
"473 764 LINE",
"0 -83 LINE"
);
}
);
width = 543;
}
);
unicode = 0338;
},
